<?xml version="1.0" encoding="utf-8" standalone="no"?>
<!DOCTYPE svg PUBLIC "-//W3C//DTD SVG 1.1//EN"
  "http://www.w3.org/Graphics/SVG/1.1/DTD/svg11.dtd">
<svg xmlns:xlink="http://www.w3.org/1999/xlink" width="1152pt" height="648pt" viewBox="0 0 1152 648" xmlns="http://www.w3.org/2000/svg" version="1.1">
 <metadata>
  <rdf:RDF xmlns:dc="http://purl.org/dc/elements/1.1/" xmlns:cc="http://creativecommons.org/ns#" xmlns:rdf="http://www.w3.org/1999/02/22-rdf-syntax-ns#">
   <cc:Work>
    <dc:type rdf:resource="http://purl.org/dc/dcmitype/StillImage"/>
    <dc:date>2025-09-07T10:58:49.602691</dc:date>
    <dc:format>image/svg+xml</dc:format>
    <dc:creator>
     <cc:Agent>
      <dc:title>Matplotlib v3.10.1, https://matplotlib.org/</dc:title>
     </cc:Agent>
    </dc:creator>
   </cc:Work>
  </rdf:RDF>
 </metadata>
 <defs>
  <style type="text/css">*{stroke-linejoin: round; stroke-linecap: butt}</style>
 </defs>
 <g id="figure_1">
  <g id="patch_1">
   <path d="M 0 648 
L 1152 648 
L 1152 0 
L 0 0 
z
" style="fill: #ffffff"/>
  </g>
  <g id="axes_1">
   <g id="patch_2">
    <path d="M 60.24 588.388597 
L 1139.617225 588.388597 
L 1139.617225 31.335 
L 60.24 31.335 
z
" style="fill: #ffffff"/>
   </g>
   <g id="matplotlib.axis_1">
    <g id="xtick_1">
     <g id="line2d_1">
      <path d="M 156.921047 588.388597 
L 156.921047 31.335 
" clip-path="url(#pf2d97704fa)" style="fill: none; stroke: #cccccc; stroke-width: 0.8; stroke-linecap: round"/>
     </g>
     <g id="line2d_2"/>
     <g id="text_1">
      <!-- 01/2025 -->
      <g style="fill: #616161" transform="translate(141.596939 634.754957) rotate(-45) scale(0.14 -0.14)">
       <defs>
        <path id="Arial-BoldMT-30" d="M 1756 4600 
Q 2422 4600 2797 4125 
Q 3244 3563 3244 2259 
Q 3244 959 2794 391 
Q 2422 -78 1756 -78 
Q 1088 -78 678 436 
Q 269 950 269 2269 
Q 269 3563 719 4131 
Q 1091 4600 1756 4600 
z
M 1756 3872 
Q 1597 3872 1472 3770 
Q 1347 3669 1278 3406 
Q 1188 3066 1188 2259 
Q 1188 1453 1269 1151 
Q 1350 850 1473 750 
Q 1597 650 1756 650 
Q 1916 650 2041 751 
Q 2166 853 2234 1116 
Q 2325 1453 2325 2259 
Q 2325 3066 2244 3367 
Q 2163 3669 2039 3770 
Q 1916 3872 1756 3872 
z
" transform="scale(0.015625)"/>
        <path id="Arial-BoldMT-31" d="M 2519 0 
L 1641 0 
L 1641 3309 
Q 1159 2859 506 2644 
L 506 3441 
Q 850 3553 1253 3867 
Q 1656 4181 1806 4600 
L 2519 4600 
L 2519 0 
z
" transform="scale(0.015625)"/>
        <path id="Arial-BoldMT-2f" d="M -9 -78 
L 1125 4659 
L 1784 4659 
L 638 -78 
L -9 -78 
z
" transform="scale(0.015625)"/>
        <path id="Arial-BoldMT-32" d="M 3238 816 
L 3238 0 
L 159 0 
Q 209 463 459 877 
Q 709 1291 1447 1975 
Q 2041 2528 2175 2725 
Q 2356 2997 2356 3263 
Q 2356 3556 2198 3714 
Q 2041 3872 1763 3872 
Q 1488 3872 1325 3706 
Q 1163 3541 1138 3156 
L 263 3244 
Q 341 3969 753 4284 
Q 1166 4600 1784 4600 
Q 2463 4600 2850 4234 
Q 3238 3869 3238 3325 
Q 3238 3016 3127 2736 
Q 3016 2456 2775 2150 
Q 2616 1947 2200 1565 
Q 1784 1184 1673 1059 
Q 1563 934 1494 816 
L 3238 816 
z
" transform="scale(0.015625)"/>
        <path id="Arial-BoldMT-35" d="M 284 1178 
L 1159 1269 
Q 1197 972 1381 798 
Q 1566 625 1806 625 
Q 2081 625 2272 848 
Q 2463 1072 2463 1522 
Q 2463 1944 2273 2155 
Q 2084 2366 1781 2366 
Q 1403 2366 1103 2031 
L 391 2134 
L 841 4519 
L 3163 4519 
L 3163 3697 
L 1506 3697 
L 1369 2919 
Q 1663 3066 1969 3066 
Q 2553 3066 2959 2641 
Q 3366 2216 3366 1538 
Q 3366 972 3038 528 
Q 2591 -78 1797 -78 
Q 1163 -78 763 262 
Q 363 603 284 1178 
z
" transform="scale(0.015625)"/>
       </defs>
       <use xlink:href="#Arial-BoldMT-30"/>
       <use xlink:href="#Arial-BoldMT-31" transform="translate(55.615234 0)"/>
       <use xlink:href="#Arial-BoldMT-2f" transform="translate(111.230469 0)"/>
       <use xlink:href="#Arial-BoldMT-32" transform="translate(139.013672 0)"/>
       <use xlink:href="#Arial-BoldMT-30" transform="translate(194.628906 0)"/>
       <use xlink:href="#Arial-BoldMT-32" transform="translate(250.244141 0)"/>
       <use xlink:href="#Arial-BoldMT-35" transform="translate(305.859375 0)"/>
      </g>
     </g>
    </g>
    <g id="xtick_2">
     <g id="line2d_3">
      <path d="M 279.040368 588.388597 
L 279.040368 31.335 
" clip-path="url(#pf2d97704fa)" style="fill: none; stroke: #cccccc; stroke-width: 0.8; stroke-linecap: round"/>
     </g>
     <g id="line2d_4"/>
     <g id="text_2">
      <!-- 02/2025 -->
      <g style="fill: #616161" transform="translate(263.71626 634.754957) rotate(-45) scale(0.14 -0.14)">
       <use xlink:href="#Arial-BoldMT-30"/>
       <use xlink:href="#Arial-BoldMT-32" transform="translate(55.615234 0)"/>
       <use xlink:href="#Arial-BoldMT-2f" transform="translate(111.230469 0)"/>
       <use xlink:href="#Arial-BoldMT-32" transform="translate(139.013672 0)"/>
       <use xlink:href="#Arial-BoldMT-30" transform="translate(194.628906 0)"/>
       <use xlink:href="#Arial-BoldMT-32" transform="translate(250.244141 0)"/>
       <use xlink:href="#Arial-BoldMT-35" transform="translate(305.859375 0)"/>
      </g>
     </g>
    </g>
    <g id="xtick_3">
     <g id="line2d_5">
      <path d="M 389.341691 588.388597 
L 389.341691 31.335 
" clip-path="url(#pf2d97704fa)" style="fill: none; stroke: #cccccc; stroke-width: 0.8; stroke-linecap: round"/>
     </g>
     <g id="line2d_6"/>
     <g id="text_3">
      <!-- 03/2025 -->
      <g style="fill: #616161" transform="translate(374.017582 634.754957) rotate(-45) scale(0.14 -0.14)">
       <defs>
        <path id="Arial-BoldMT-33" d="M 241 1216 
L 1091 1319 
Q 1131 994 1309 822 
Q 1488 650 1741 650 
Q 2013 650 2198 856 
Q 2384 1063 2384 1413 
Q 2384 1744 2206 1937 
Q 2028 2131 1772 2131 
Q 1603 2131 1369 2066 
L 1466 2781 
Q 1822 2772 2009 2936 
Q 2197 3100 2197 3372 
Q 2197 3603 2059 3740 
Q 1922 3878 1694 3878 
Q 1469 3878 1309 3722 
Q 1150 3566 1116 3266 
L 306 3403 
Q 391 3819 561 4067 
Q 731 4316 1036 4458 
Q 1341 4600 1719 4600 
Q 2366 4600 2756 4188 
Q 3078 3850 3078 3425 
Q 3078 2822 2419 2463 
Q 2813 2378 3048 2084 
Q 3284 1791 3284 1375 
Q 3284 772 2843 347 
Q 2403 -78 1747 -78 
Q 1125 -78 715 280 
Q 306 638 241 1216 
z
" transform="scale(0.015625)"/>
       </defs>
       <use xlink:href="#Arial-BoldMT-30"/>
       <use xlink:href="#Arial-BoldMT-33" transform="translate(55.615234 0)"/>
       <use xlink:href="#Arial-BoldMT-2f" transform="translate(111.230469 0)"/>
       <use xlink:href="#Arial-BoldMT-32" transform="translate(139.013672 0)"/>
       <use xlink:href="#Arial-BoldMT-30" transform="translate(194.628906 0)"/>
       <use xlink:href="#Arial-BoldMT-32" transform="translate(250.244141 0)"/>
       <use xlink:href="#Arial-BoldMT-35" transform="translate(305.859375 0)"/>
      </g>
     </g>
    </g>
    <g id="xtick_4">
     <g id="line2d_7">
      <path d="M 511.461012 588.388597 
L 511.461012 31.335 
" clip-path="url(#pf2d97704fa)" style="fill: none; stroke: #cccccc; stroke-width: 0.8; stroke-linecap: round"/>
     </g>
     <g id="line2d_8"/>
     <g id="text_4">
      <!-- 04/2025 -->
      <g style="fill: #616161" transform="translate(496.136903 634.754957) rotate(-45) scale(0.14 -0.14)">
       <defs>
        <path id="Arial-BoldMT-34" d="M 1994 0 
L 1994 922 
L 119 922 
L 119 1691 
L 2106 4600 
L 2844 4600 
L 2844 1694 
L 3413 1694 
L 3413 922 
L 2844 922 
L 2844 0 
L 1994 0 
z
M 1994 1694 
L 1994 3259 
L 941 1694 
L 1994 1694 
z
" transform="scale(0.015625)"/>
       </defs>
       <use xlink:href="#Arial-BoldMT-30"/>
       <use xlink:href="#Arial-BoldMT-34" transform="translate(55.615234 0)"/>
       <use xlink:href="#Arial-BoldMT-2f" transform="translate(111.230469 0)"/>
       <use xlink:href="#Arial-BoldMT-32" transform="translate(139.013672 0)"/>
       <use xlink:href="#Arial-BoldMT-30" transform="translate(194.628906 0)"/>
       <use xlink:href="#Arial-BoldMT-32" transform="translate(250.244141 0)"/>
       <use xlink:href="#Arial-BoldMT-35" transform="translate(305.859375 0)"/>
      </g>
     </g>
    </g>
    <g id="xtick_5">
     <g id="line2d_9">
      <path d="M 629.641 588.388597 
L 629.641 31.335 
" clip-path="url(#pf2d97704fa)" style="fill: none; stroke: #cccccc; stroke-width: 0.8; stroke-linecap: round"/>
     </g>
     <g id="line2d_10"/>
     <g id="text_5">
      <!-- 05/2025 -->
      <g style="fill: #616161" transform="translate(614.316891 634.754957) rotate(-45) scale(0.14 -0.14)">
       <use xlink:href="#Arial-BoldMT-30"/>
       <use xlink:href="#Arial-BoldMT-35" transform="translate(55.615234 0)"/>
       <use xlink:href="#Arial-BoldMT-2f" transform="translate(111.230469 0)"/>
       <use xlink:href="#Arial-BoldMT-32" transform="translate(139.013672 0)"/>
       <use xlink:href="#Arial-BoldMT-30" transform="translate(194.628906 0)"/>
       <use xlink:href="#Arial-BoldMT-32" transform="translate(250.244141 0)"/>
       <use xlink:href="#Arial-BoldMT-35" transform="translate(305.859375 0)"/>
      </g>
     </g>
    </g>
    <g id="xtick_6">
     <g id="line2d_11">
      <path d="M 751.760321 588.388597 
L 751.760321 31.335 
" clip-path="url(#pf2d97704fa)" style="fill: none; stroke: #cccccc; stroke-width: 0.8; stroke-linecap: round"/>
     </g>
     <g id="line2d_12"/>
     <g id="text_6">
      <!-- 06/2025 -->
      <g style="fill: #616161" transform="translate(736.436212 634.754957) rotate(-45) scale(0.14 -0.14)">
       <defs>
        <path id="Arial-BoldMT-36" d="M 3247 3459 
L 2397 3366 
Q 2366 3628 2234 3753 
Q 2103 3878 1894 3878 
Q 1616 3878 1423 3628 
Q 1231 3378 1181 2588 
Q 1509 2975 1997 2975 
Q 2547 2975 2939 2556 
Q 3331 2138 3331 1475 
Q 3331 772 2918 347 
Q 2506 -78 1859 -78 
Q 1166 -78 719 461 
Q 272 1000 272 2228 
Q 272 3488 737 4044 
Q 1203 4600 1947 4600 
Q 2469 4600 2811 4308 
Q 3153 4016 3247 3459 
z
M 1256 1544 
Q 1256 1116 1453 883 
Q 1650 650 1903 650 
Q 2147 650 2309 840 
Q 2472 1031 2472 1466 
Q 2472 1913 2297 2120 
Q 2122 2328 1859 2328 
Q 1606 2328 1431 2129 
Q 1256 1931 1256 1544 
z
" transform="scale(0.015625)"/>
       </defs>
       <use xlink:href="#Arial-BoldMT-30"/>
       <use xlink:href="#Arial-BoldMT-36" transform="translate(55.615234 0)"/>
       <use xlink:href="#Arial-BoldMT-2f" transform="translate(111.230469 0)"/>
       <use xlink:href="#Arial-BoldMT-32" transform="translate(139.013672 0)"/>
       <use xlink:href="#Arial-BoldMT-30" transform="translate(194.628906 0)"/>
       <use xlink:href="#Arial-BoldMT-32" transform="translate(250.244141 0)"/>
       <use xlink:href="#Arial-BoldMT-35" transform="translate(305.859375 0)"/>
      </g>
     </g>
    </g>
    <g id="xtick_7">
     <g id="line2d_13">
      <path d="M 869.940309 588.388597 
L 869.940309 31.335 
" clip-path="url(#pf2d97704fa)" style="fill: none; stroke: #cccccc; stroke-width: 0.8; stroke-linecap: round"/>
     </g>
     <g id="line2d_14"/>
     <g id="text_7">
      <!-- 07/2025 -->
      <g style="fill: #616161" transform="translate(854.6162 634.754957) rotate(-45) scale(0.14 -0.14)">
       <defs>
        <path id="Arial-BoldMT-37" d="M 272 3703 
L 272 4519 
L 3275 4519 
L 3275 3881 
Q 2903 3516 2518 2831 
Q 2134 2147 1932 1376 
Q 1731 606 1734 0 
L 888 0 
Q 909 950 1279 1937 
Q 1650 2925 2269 3703 
L 272 3703 
z
" transform="scale(0.015625)"/>
       </defs>
       <use xlink:href="#Arial-BoldMT-30"/>
       <use xlink:href="#Arial-BoldMT-37" transform="translate(55.615234 0)"/>
       <use xlink:href="#Arial-BoldMT-2f" transform="translate(111.230469 0)"/>
       <use xlink:href="#Arial-BoldMT-32" transform="translate(139.013672 0)"/>
       <use xlink:href="#Arial-BoldMT-30" transform="translate(194.628906 0)"/>
       <use xlink:href="#Arial-BoldMT-32" transform="translate(250.244141 0)"/>
       <use xlink:href="#Arial-BoldMT-35" transform="translate(305.859375 0)"/>
      </g>
     </g>
    </g>
    <g id="xtick_8">
     <g id="line2d_15">
      <path d="M 992.05963 588.388597 
L 992.05963 31.335 
" clip-path="url(#pf2d97704fa)" style="fill: none; stroke: #cccccc; stroke-width: 0.8; stroke-linecap: round"/>
     </g>
     <g id="line2d_16"/>
     <g id="text_8">
      <!-- 08/2025 -->
      <g style="fill: #616161" transform="translate(976.735521 634.754957) rotate(-45) scale(0.14 -0.14)">
       <defs>
        <path id="Arial-BoldMT-38" d="M 1025 2472 
Q 684 2616 529 2867 
Q 375 3119 375 3419 
Q 375 3931 733 4265 
Q 1091 4600 1750 4600 
Q 2403 4600 2764 4265 
Q 3125 3931 3125 3419 
Q 3125 3100 2959 2851 
Q 2794 2603 2494 2472 
Q 2875 2319 3073 2025 
Q 3272 1731 3272 1347 
Q 3272 713 2867 316 
Q 2463 -81 1791 -81 
Q 1166 -81 750 247 
Q 259 634 259 1309 
Q 259 1681 443 1992 
Q 628 2303 1025 2472 
z
M 1206 3356 
Q 1206 3094 1354 2947 
Q 1503 2800 1750 2800 
Q 2000 2800 2150 2948 
Q 2300 3097 2300 3359 
Q 2300 3606 2151 3754 
Q 2003 3903 1759 3903 
Q 1506 3903 1356 3753 
Q 1206 3603 1206 3356 
z
M 1125 1394 
Q 1125 1031 1311 828 
Q 1497 625 1775 625 
Q 2047 625 2225 820 
Q 2403 1016 2403 1384 
Q 2403 1706 2222 1901 
Q 2041 2097 1763 2097 
Q 1441 2097 1283 1875 
Q 1125 1653 1125 1394 
z
" transform="scale(0.015625)"/>
       </defs>
       <use xlink:href="#Arial-BoldMT-30"/>
       <use xlink:href="#Arial-BoldMT-38" transform="translate(55.615234 0)"/>
       <use xlink:href="#Arial-BoldMT-2f" transform="translate(111.230469 0)"/>
       <use xlink:href="#Arial-BoldMT-32" transform="translate(139.013672 0)"/>
       <use xlink:href="#Arial-BoldMT-30" transform="translate(194.628906 0)"/>
       <use xlink:href="#Arial-BoldMT-32" transform="translate(250.244141 0)"/>
       <use xlink:href="#Arial-BoldMT-35" transform="translate(305.859375 0)"/>
      </g>
     </g>
    </g>
    <g id="xtick_9">
     <g id="line2d_17">
      <path d="M 1114.178951 588.388597 
L 1114.178951 31.335 
" clip-path="url(#pf2d97704fa)" style="fill: none; stroke: #cccccc; stroke-width: 0.8; stroke-linecap: round"/>
     </g>
     <g id="line2d_18"/>
     <g id="text_9">
      <!-- 09/2025 -->
      <g style="fill: #616161" transform="translate(1098.854842 634.754957) rotate(-45) scale(0.14 -0.14)">
       <defs>
        <path id="Arial-BoldMT-39" d="M 291 1059 
L 1141 1153 
Q 1172 894 1303 769 
Q 1434 644 1650 644 
Q 1922 644 2112 894 
Q 2303 1144 2356 1931 
Q 2025 1547 1528 1547 
Q 988 1547 595 1964 
Q 203 2381 203 3050 
Q 203 3747 617 4173 
Q 1031 4600 1672 4600 
Q 2369 4600 2816 4061 
Q 3263 3522 3263 2288 
Q 3263 1031 2797 475 
Q 2331 -81 1584 -81 
Q 1047 -81 715 205 
Q 384 491 291 1059 
z
M 2278 2978 
Q 2278 3403 2083 3637 
Q 1888 3872 1631 3872 
Q 1388 3872 1227 3680 
Q 1066 3488 1066 3050 
Q 1066 2606 1241 2398 
Q 1416 2191 1678 2191 
Q 1931 2191 2104 2391 
Q 2278 2591 2278 2978 
z
" transform="scale(0.015625)"/>
       </defs>
       <use xlink:href="#Arial-BoldMT-30"/>
       <use xlink:href="#Arial-BoldMT-39" transform="translate(55.615234 0)"/>
       <use xlink:href="#Arial-BoldMT-2f" transform="translate(111.230469 0)"/>
       <use xlink:href="#Arial-BoldMT-32" transform="translate(139.013672 0)"/>
       <use xlink:href="#Arial-BoldMT-30" transform="translate(194.628906 0)"/>
       <use xlink:href="#Arial-BoldMT-32" transform="translate(250.244141 0)"/>
       <use xlink:href="#Arial-BoldMT-35" transform="translate(305.859375 0)"/>
      </g>
     </g>
    </g>
   </g>
   <g id="matplotlib.axis_2">
    <g id="ytick_1">
     <g id="line2d_19">
      <path d="M 60.24 588.388597 
L 1139.617225 588.388597 
" clip-path="url(#pf2d97704fa)" style="fill: none; stroke: #cccccc; stroke-width: 0.8; stroke-linecap: round"/>
     </g>
     <g id="line2d_20"/>
     <g id="text_10">
      <!-- 0.0k -->
      <g style="fill: #616161" transform="translate(29.494687 593.399066) scale(0.14 -0.14)">
       <defs>
        <path id="Arial-BoldMT-2e" d="M 459 0 
L 459 878 
L 1338 878 
L 1338 0 
L 459 0 
z
" transform="scale(0.015625)"/>
        <path id="Arial-BoldMT-6b" d="M 428 0 
L 428 4581 
L 1306 4581 
L 1306 2150 
L 2334 3319 
L 3416 3319 
L 2281 2106 
L 3497 0 
L 2550 0 
L 1716 1491 
L 1306 1063 
L 1306 0 
L 428 0 
z
" transform="scale(0.015625)"/>
       </defs>
       <use xlink:href="#Arial-BoldMT-30"/>
       <use xlink:href="#Arial-BoldMT-2e" transform="translate(55.615234 0)"/>
       <use xlink:href="#Arial-BoldMT-30" transform="translate(83.398438 0)"/>
       <use xlink:href="#Arial-BoldMT-6b" transform="translate(139.013672 0)"/>
      </g>
     </g>
    </g>
    <g id="ytick_2">
     <g id="line2d_21">
      <path d="M 60.24 522.435435 
L 1139.617225 522.435435 
" clip-path="url(#pf2d97704fa)" style="fill: none; stroke: #cccccc; stroke-width: 0.8; stroke-linecap: round"/>
     </g>
     <g id="line2d_22"/>
     <g id="text_11">
      <!-- 0.2k -->
      <g style="fill: #616161" transform="translate(29.494687 527.445904) scale(0.14 -0.14)">
       <use xlink:href="#Arial-BoldMT-30"/>
       <use xlink:href="#Arial-BoldMT-2e" transform="translate(55.615234 0)"/>
       <use xlink:href="#Arial-BoldMT-32" transform="translate(83.398438 0)"/>
       <use xlink:href="#Arial-BoldMT-6b" transform="translate(139.013672 0)"/>
      </g>
     </g>
    </g>
    <g id="ytick_3">
     <g id="line2d_23">
      <path d="M 60.24 456.482273 
L 1139.617225 456.482273 
" clip-path="url(#pf2d97704fa)" style="fill: none; stroke: #cccccc; stroke-width: 0.8; stroke-linecap: round"/>
     </g>
     <g id="line2d_24"/>
     <g id="text_12">
      <!-- 0.5k -->
      <g style="fill: #616161" transform="translate(29.494687 461.492742) scale(0.14 -0.14)">
       <use xlink:href="#Arial-BoldMT-30"/>
       <use xlink:href="#Arial-BoldMT-2e" transform="translate(55.615234 0)"/>
       <use xlink:href="#Arial-BoldMT-35" transform="translate(83.398438 0)"/>
       <use xlink:href="#Arial-BoldMT-6b" transform="translate(139.013672 0)"/>
      </g>
     </g>
    </g>
    <g id="ytick_4">
     <g id="line2d_25">
      <path d="M 60.24 390.529111 
L 1139.617225 390.529111 
" clip-path="url(#pf2d97704fa)" style="fill: none; stroke: #cccccc; stroke-width: 0.8; stroke-linecap: round"/>
     </g>
     <g id="line2d_26"/>
     <g id="text_13">
      <!-- 0.8k -->
      <g style="fill: #616161" transform="translate(29.494687 395.53958) scale(0.14 -0.14)">
       <use xlink:href="#Arial-BoldMT-30"/>
       <use xlink:href="#Arial-BoldMT-2e" transform="translate(55.615234 0)"/>
       <use xlink:href="#Arial-BoldMT-38" transform="translate(83.398438 0)"/>
       <use xlink:href="#Arial-BoldMT-6b" transform="translate(139.013672 0)"/>
      </g>
     </g>
    </g>
    <g id="ytick_5">
     <g id="line2d_27">
      <path d="M 60.24 324.575949 
L 1139.617225 324.575949 
" clip-path="url(#pf2d97704fa)" style="fill: none; stroke: #cccccc; stroke-width: 0.8; stroke-linecap: round"/>
     </g>
     <g id="line2d_28"/>
     <g id="text_14">
      <!-- 1.0k -->
      <g style="fill: #616161" transform="translate(29.494687 329.586418) scale(0.14 -0.14)">
       <use xlink:href="#Arial-BoldMT-31"/>
       <use xlink:href="#Arial-BoldMT-2e" transform="translate(55.615234 0)"/>
       <use xlink:href="#Arial-BoldMT-30" transform="translate(83.398438 0)"/>
       <use xlink:href="#Arial-BoldMT-6b" transform="translate(139.013672 0)"/>
      </g>
     </g>
    </g>
    <g id="ytick_6">
     <g id="line2d_29">
      <path d="M 60.24 258.622787 
L 1139.617225 258.622787 
" clip-path="url(#pf2d97704fa)" style="fill: none; stroke: #cccccc; stroke-width: 0.8; stroke-linecap: round"/>
     </g>
     <g id="line2d_30"/>
     <g id="text_15">
      <!-- 1.2k -->
      <g style="fill: #616161" transform="translate(29.494687 263.633256) scale(0.14 -0.14)">
       <use xlink:href="#Arial-BoldMT-31"/>
       <use xlink:href="#Arial-BoldMT-2e" transform="translate(55.615234 0)"/>
       <use xlink:href="#Arial-BoldMT-32" transform="translate(83.398438 0)"/>
       <use xlink:href="#Arial-BoldMT-6b" transform="translate(139.013672 0)"/>
      </g>
     </g>
    </g>
    <g id="ytick_7">
     <g id="line2d_31">
      <path d="M 60.24 192.669625 
L 1139.617225 192.669625 
" clip-path="url(#pf2d97704fa)" style="fill: none; stroke: #cccccc; stroke-width: 0.8; stroke-linecap: round"/>
     </g>
     <g id="line2d_32"/>
     <g id="text_16">
      <!-- 1.5k -->
      <g style="fill: #616161" transform="translate(29.494687 197.680094) scale(0.14 -0.14)">
       <use xlink:href="#Arial-BoldMT-31"/>
       <use xlink:href="#Arial-BoldMT-2e" transform="translate(55.615234 0)"/>
       <use xlink:href="#Arial-BoldMT-35" transform="translate(83.398438 0)"/>
       <use xlink:href="#Arial-BoldMT-6b" transform="translate(139.013672 0)"/>
      </g>
     </g>
    </g>
    <g id="ytick_8">
     <g id="line2d_33">
      <path d="M 60.24 126.716463 
L 1139.617225 126.716463 
" clip-path="url(#pf2d97704fa)" style="fill: none; stroke: #cccccc; stroke-width: 0.8; stroke-linecap: round"/>
     </g>
     <g id="line2d_34"/>
     <g id="text_17">
      <!-- 1.8k -->
      <g style="fill: #616161" transform="translate(29.494687 131.726932) scale(0.14 -0.14)">
       <use xlink:href="#Arial-BoldMT-31"/>
       <use xlink:href="#Arial-BoldMT-2e" transform="translate(55.615234 0)"/>
       <use xlink:href="#Arial-BoldMT-38" transform="translate(83.398438 0)"/>
       <use xlink:href="#Arial-BoldMT-6b" transform="translate(139.013672 0)"/>
      </g>
     </g>
    </g>
    <g id="ytick_9">
     <g id="line2d_35">
      <path d="M 60.24 60.763301 
L 1139.617225 60.763301 
" clip-path="url(#pf2d97704fa)" style="fill: none; stroke: #cccccc; stroke-width: 0.8; stroke-linecap: round"/>
     </g>
     <g id="line2d_36"/>
     <g id="text_18">
      <!-- 2.0k -->
      <g style="fill: #616161" transform="translate(29.494687 65.77377) scale(0.14 -0.14)">
       <use xlink:href="#Arial-BoldMT-32"/>
       <use xlink:href="#Arial-BoldMT-2e" transform="translate(55.615234 0)"/>
       <use xlink:href="#Arial-BoldMT-30" transform="translate(83.398438 0)"/>
       <use xlink:href="#Arial-BoldMT-6b" transform="translate(139.013672 0)"/>
      </g>
     </g>
    </g>
    <g id="text_19">
     <!-- Devices -->
     <g style="fill: #616161" transform="translate(22.337187 340.105549) rotate(-90) scale(0.16 -0.16)">
      <defs>
       <path id="Arial-BoldMT-44" d="M 463 4581 
L 2153 4581 
Q 2725 4581 3025 4494 
Q 3428 4375 3715 4072 
Q 4003 3769 4153 3330 
Q 4303 2891 4303 2247 
Q 4303 1681 4163 1272 
Q 3991 772 3672 463 
Q 3431 228 3022 97 
Q 2716 0 2203 0 
L 463 0 
L 463 4581 
z
M 1388 3806 
L 1388 772 
L 2078 772 
Q 2466 772 2638 816 
Q 2863 872 3011 1006 
Q 3159 1141 3253 1448 
Q 3347 1756 3347 2288 
Q 3347 2819 3253 3103 
Q 3159 3388 2990 3547 
Q 2822 3706 2563 3763 
Q 2369 3806 1803 3806 
L 1388 3806 
z
" transform="scale(0.015625)"/>
       <path id="Arial-BoldMT-65" d="M 2381 1056 
L 3256 909 
Q 3088 428 2723 176 
Q 2359 -75 1813 -75 
Q 947 -75 531 491 
Q 203 944 203 1634 
Q 203 2459 634 2926 
Q 1066 3394 1725 3394 
Q 2466 3394 2894 2905 
Q 3322 2416 3303 1406 
L 1103 1406 
Q 1113 1016 1316 798 
Q 1519 581 1822 581 
Q 2028 581 2168 693 
Q 2309 806 2381 1056 
z
M 2431 1944 
Q 2422 2325 2234 2523 
Q 2047 2722 1778 2722 
Q 1491 2722 1303 2513 
Q 1116 2303 1119 1944 
L 2431 1944 
z
" transform="scale(0.015625)"/>
       <path id="Arial-BoldMT-76" d="M 1372 0 
L 34 3319 
L 956 3319 
L 1581 1625 
L 1763 1059 
Q 1834 1275 1853 1344 
Q 1897 1484 1947 1625 
L 2578 3319 
L 3481 3319 
L 2163 0 
L 1372 0 
z
" transform="scale(0.015625)"/>
       <path id="Arial-BoldMT-69" d="M 459 3769 
L 459 4581 
L 1338 4581 
L 1338 3769 
L 459 3769 
z
M 459 0 
L 459 3319 
L 1338 3319 
L 1338 0 
L 459 0 
z
" transform="scale(0.015625)"/>
       <path id="Arial-BoldMT-63" d="M 3353 2338 
L 2488 2181 
Q 2444 2441 2289 2572 
Q 2134 2703 1888 2703 
Q 1559 2703 1364 2476 
Q 1169 2250 1169 1719 
Q 1169 1128 1367 884 
Q 1566 641 1900 641 
Q 2150 641 2309 783 
Q 2469 925 2534 1272 
L 3397 1125 
Q 3263 531 2881 228 
Q 2500 -75 1859 -75 
Q 1131 -75 698 384 
Q 266 844 266 1656 
Q 266 2478 700 2936 
Q 1134 3394 1875 3394 
Q 2481 3394 2839 3133 
Q 3197 2872 3353 2338 
z
" transform="scale(0.015625)"/>
       <path id="Arial-BoldMT-73" d="M 150 947 
L 1031 1081 
Q 1088 825 1259 692 
Q 1431 559 1741 559 
Q 2081 559 2253 684 
Q 2369 772 2369 919 
Q 2369 1019 2306 1084 
Q 2241 1147 2013 1200 
Q 950 1434 666 1628 
Q 272 1897 272 2375 
Q 272 2806 612 3100 
Q 953 3394 1669 3394 
Q 2350 3394 2681 3172 
Q 3013 2950 3138 2516 
L 2309 2363 
Q 2256 2556 2107 2659 
Q 1959 2763 1684 2763 
Q 1338 2763 1188 2666 
Q 1088 2597 1088 2488 
Q 1088 2394 1175 2328 
Q 1294 2241 1995 2081 
Q 2697 1922 2975 1691 
Q 3250 1456 3250 1038 
Q 3250 581 2869 253 
Q 2488 -75 1741 -75 
Q 1063 -75 667 200 
Q 272 475 150 947 
z
" transform="scale(0.015625)"/>
      </defs>
      <use xlink:href="#Arial-BoldMT-44"/>
      <use xlink:href="#Arial-BoldMT-65" transform="translate(72.216797 0)"/>
      <use xlink:href="#Arial-BoldMT-76" transform="translate(127.832031 0)"/>
      <use xlink:href="#Arial-BoldMT-69" transform="translate(183.447266 0)"/>
      <use xlink:href="#Arial-BoldMT-63" transform="translate(211.230469 0)"/>
      <use xlink:href="#Arial-BoldMT-65" transform="translate(266.845703 0)"/>
      <use xlink:href="#Arial-BoldMT-73" transform="translate(322.460938 0)"/>
     </g>
    </g>
   </g>
   <g id="FillBetweenPolyCollection_1">
    <defs>
     <path id="m7ea3a9f9ab" d="M 62.377057 -365.634075 
L 62.377057 -59.611403 
L 89.952388 -59.611403 
L 117.527718 -59.611403 
L 172.678379 -59.611403 
L 200.25371 -59.611403 
L 227.82904 -59.611403 
L 255.404371 -59.611403 
L 282.979701 -59.611403 
L 310.555032 -59.611403 
L 338.130363 -59.611403 
L 365.705693 -59.611403 
L 393.281024 -59.611403 
L 420.856354 -59.611403 
L 448.431685 -59.611403 
L 476.007015 -59.611403 
L 503.582346 -59.611403 
L 531.157676 -59.611403 
L 558.733007 -59.611403 
L 586.308338 -59.611403 
L 613.883668 -59.611403 
L 641.458999 -59.611403 
L 669.034329 -59.611403 
L 696.60966 -59.611403 
L 724.18499 -59.611403 
L 751.760321 -59.611403 
L 779.335651 -59.611403 
L 806.910982 -59.611403 
L 834.486313 -59.611403 
L 862.061643 -59.611403 
L 917.212304 -59.611403 
L 944.787635 -59.611403 
L 972.362965 -59.611403 
L 999.938296 -59.611403 
L 1027.513626 -59.611403 
L 1055.088957 -59.611403 
L 1082.664288 -59.611403 
L 1110.239618 -59.611403 
L 1110.239618 -579.058507 
L 1110.239618 -579.058507 
L 1082.664288 -549.51149 
L 1055.088957 -558.744933 
L 1027.513626 -556.634432 
L 999.938296 -560.063996 
L 972.362965 -537.376109 
L 944.787635 -530.51698 
L 917.212304 -466.938131 
L 862.061643 -531.308418 
L 834.486313 -547.400989 
L 806.910982 -507.565279 
L 779.335651 -545.026675 
L 751.760321 -531.308418 
L 724.18499 -535.793233 
L 696.60966 -527.087415 
L 669.034329 -507.829092 
L 641.458999 -487.779331 
L 613.883668 -522.074975 
L 586.308338 -496.485148 
L 558.733007 -479.337326 
L 531.157676 -469.048633 
L 503.582346 -460.606628 
L 476.007015 -460.606628 
L 448.431685 -463.77238 
L 420.856354 -446.360745 
L 393.281024 -443.722618 
L 365.705693 -443.458806 
L 338.130363 -435.808239 
L 310.555032 -421.562356 
L 282.979701 -409.426974 
L 255.404371 -406.525035 
L 227.82904 -383.573335 
L 200.25371 -382.254271 
L 172.678379 -366.689325 
L 117.527718 -378.560894 
L 89.952388 -362.995948 
L 62.377057 -365.634075 
z
" style="stroke: #77aadd"/>
    </defs>
    <g clip-path="url(#pf2d97704fa)">
     <use xlink:href="#m7ea3a9f9ab" x="0" y="648" style="fill: #77aadd; stroke: #77aadd"/>
    </g>
   </g>
   <g id="FillBetweenPolyCollection_2">
    <defs>
     <path id="mfc3c3c4add" d="M 117.527718 -402.567845 
L 117.527718 -378.560894 
L 172.678379 -366.689325 
L 200.25371 -382.254271 
L 227.82904 -383.573335 
L 255.404371 -406.525035 
L 282.979701 -409.426974 
L 310.555032 -421.562356 
L 338.130363 -435.808239 
L 365.705693 -443.458806 
L 393.281024 -443.722618 
L 420.856354 -446.360745 
L 448.431685 -463.77238 
L 476.007015 -460.606628 
L 503.582346 -460.606628 
L 531.157676 -469.048633 
L 558.733007 -479.337326 
L 586.308338 -496.485148 
L 613.883668 -522.074975 
L 641.458999 -487.779331 
L 669.034329 -507.829092 
L 696.60966 -527.087415 
L 724.18499 -535.793233 
L 751.760321 -531.308418 
L 779.335651 -545.026675 
L 806.910982 -507.565279 
L 834.486313 -547.400989 
L 862.061643 -531.308418 
L 917.212304 -466.938131 
L 944.787635 -530.51698 
L 972.362965 -537.376109 
L 999.938296 -560.063996 
L 1027.513626 -556.634432 
L 1055.088957 -558.744933 
L 1082.664288 -549.51149 
L 1110.239618 -579.058507 
L 1110.239618 -590.138638 
L 1110.239618 -590.138638 
L 1082.664288 -557.162057 
L 1055.088957 -569.297439 
L 1027.513626 -575.628943 
L 999.938296 -566.923125 
L 972.362965 -545.554301 
L 944.787635 -540.014235 
L 917.212304 -473.005822 
L 862.061643 -546.345739 
L 834.486313 -563.757373 
L 806.910982 -523.394038 
L 779.335651 -558.217308 
L 751.760321 -551.094366 
L 724.18499 -552.149617 
L 696.60966 -555.051556 
L 669.034329 -528.406479 
L 641.458999 -504.399528 
L 613.883668 -533.155106 
L 586.308338 -507.301467 
L 558.733007 -503.080464 
L 531.157676 -476.963012 
L 503.582346 -493.319396 
L 476.007015 -476.699199 
L 448.431685 -471.950572 
L 420.856354 -453.747499 
L 393.281024 -452.428436 
L 365.705693 -465.619068 
L 338.130363 -461.134253 
L 310.555032 -467.993382 
L 282.979701 -488.043143 
L 255.404371 -412.328913 
L 227.82904 -388.321962 
L 200.25371 -398.346843 
L 172.678379 -395.972529 
L 117.527718 -402.567845 
z
" style="stroke: #ee8866"/>
    </defs>
    <g clip-path="url(#pf2d97704fa)">
     <use xlink:href="#mfc3c3c4add" x="0" y="648" style="fill: #ee8866; stroke: #ee8866"/>
    </g>
   </g>
   <g id="patch_3">
    <path d="M 60.24 588.388597 
L 60.24 31.335 
" style="fill: none"/>
   </g>
   <g id="patch_4">
    <path d="M 1139.617225 588.388597 
L 1139.617225 31.335 
" style="fill: none"/>
   </g>
   <g id="patch_5">
    <path d="M 60.24 588.388597 
L 1139.617225 588.388597 
" style="fill: none"/>
   </g>
   <g id="patch_6">
    <path d="M 60.24 31.335 
L 1139.617225 31.335 
" style="fill: none"/>
   </g>
   <g id="text_20">
    <!-- Active Users (Weekly) -->
    <g transform="translate(495.617675 25.335) scale(0.2 -0.2)">
     <defs>
      <path id="Arial-BoldMT-41" d="M 4597 0 
L 3591 0 
L 3191 1041 
L 1359 1041 
L 981 0 
L 0 0 
L 1784 4581 
L 2763 4581 
L 4597 0 
z
M 2894 1813 
L 2263 3513 
L 1644 1813 
L 2894 1813 
z
" transform="scale(0.015625)"/>
      <path id="Arial-BoldMT-74" d="M 1981 3319 
L 1981 2619 
L 1381 2619 
L 1381 1281 
Q 1381 875 1398 808 
Q 1416 741 1477 697 
Q 1538 653 1625 653 
Q 1747 653 1978 738 
L 2053 56 
Q 1747 -75 1359 -75 
Q 1122 -75 931 4 
Q 741 84 652 211 
Q 563 338 528 553 
Q 500 706 500 1172 
L 500 2619 
L 97 2619 
L 97 3319 
L 500 3319 
L 500 3978 
L 1381 4491 
L 1381 3319 
L 1981 3319 
z
" transform="scale(0.015625)"/>
      <path id="Arial-BoldMT-20" transform="scale(0.015625)"/>
      <path id="Arial-BoldMT-55" d="M 459 4581 
L 1384 4581 
L 1384 2100 
Q 1384 1509 1419 1334 
Q 1478 1053 1701 883 
Q 1925 713 2313 713 
Q 2706 713 2906 873 
Q 3106 1034 3147 1268 
Q 3188 1503 3188 2047 
L 3188 4581 
L 4113 4581 
L 4113 2175 
Q 4113 1350 4038 1009 
Q 3963 669 3761 434 
Q 3559 200 3221 61 
Q 2884 -78 2341 -78 
Q 1684 -78 1345 73 
Q 1006 225 809 467 
Q 613 709 550 975 
Q 459 1369 459 2138 
L 459 4581 
z
" transform="scale(0.015625)"/>
      <path id="Arial-BoldMT-72" d="M 1300 0 
L 422 0 
L 422 3319 
L 1238 3319 
L 1238 2847 
Q 1447 3181 1614 3287 
Q 1781 3394 1994 3394 
Q 2294 3394 2572 3228 
L 2300 2463 
Q 2078 2606 1888 2606 
Q 1703 2606 1575 2504 
Q 1447 2403 1373 2137 
Q 1300 1872 1300 1025 
L 1300 0 
z
" transform="scale(0.015625)"/>
      <path id="Arial-BoldMT-28" d="M 1916 -1347 
L 1313 -1347 
Q 834 -625 584 153 
Q 334 931 334 1659 
Q 334 2563 644 3369 
Q 913 4069 1325 4659 
L 1925 4659 
Q 1497 3713 1336 3048 
Q 1175 2384 1175 1641 
Q 1175 1128 1270 590 
Q 1366 53 1531 -431 
Q 1641 -750 1916 -1347 
z
" transform="scale(0.015625)"/>
      <path id="Arial-BoldMT-57" d="M 1116 0 
L 22 4581 
L 969 4581 
L 1659 1434 
L 2497 4581 
L 3597 4581 
L 4400 1381 
L 5103 4581 
L 6034 4581 
L 4922 0 
L 3941 0 
L 3028 3425 
L 2119 0 
L 1116 0 
z
" transform="scale(0.015625)"/>
      <path id="Arial-BoldMT-6c" d="M 459 0 
L 459 4581 
L 1338 4581 
L 1338 0 
L 459 0 
z
" transform="scale(0.015625)"/>
      <path id="Arial-BoldMT-79" d="M 44 3319 
L 978 3319 
L 1772 963 
L 2547 3319 
L 3456 3319 
L 2284 125 
L 2075 -453 
Q 1959 -744 1854 -897 
Q 1750 -1050 1614 -1145 
Q 1478 -1241 1279 -1294 
Q 1081 -1347 831 -1347 
Q 578 -1347 334 -1294 
L 256 -606 
Q 463 -647 628 -647 
Q 934 -647 1081 -467 
Q 1228 -288 1306 -9 
L 44 3319 
z
" transform="scale(0.015625)"/>
      <path id="Arial-BoldMT-29" d="M 216 -1347 
Q 475 -791 581 -494 
Q 688 -197 778 190 
Q 869 578 912 926 
Q 956 1275 956 1641 
Q 956 2384 797 3048 
Q 638 3713 209 4659 
L 806 4659 
Q 1278 3988 1539 3234 
Q 1800 2481 1800 1706 
Q 1800 1053 1594 306 
Q 1359 -531 822 -1347 
L 216 -1347 
z
" transform="scale(0.015625)"/>
     </defs>
     <use xlink:href="#Arial-BoldMT-41"/>
     <use xlink:href="#Arial-BoldMT-63" transform="translate(72.216797 0)"/>
     <use xlink:href="#Arial-BoldMT-74" transform="translate(127.832031 0)"/>
     <use xlink:href="#Arial-BoldMT-69" transform="translate(161.132812 0)"/>
     <use xlink:href="#Arial-BoldMT-76" transform="translate(188.916016 0)"/>
     <use xlink:href="#Arial-BoldMT-65" transform="translate(244.53125 0)"/>
     <use xlink:href="#Arial-BoldMT-20" transform="translate(300.146484 0)"/>
     <use xlink:href="#Arial-BoldMT-55" transform="translate(327.929688 0)"/>
     <use xlink:href="#Arial-BoldMT-73" transform="translate(400.146484 0)"/>
     <use xlink:href="#Arial-BoldMT-65" transform="translate(455.761719 0)"/>
     <use xlink:href="#Arial-BoldMT-72" transform="translate(511.376953 0)"/>
     <use xlink:href="#Arial-BoldMT-73" transform="translate(550.292969 0)"/>
     <use xlink:href="#Arial-BoldMT-20" transform="translate(605.908203 0)"/>
     <use xlink:href="#Arial-BoldMT-28" transform="translate(633.691406 0)"/>
     <use xlink:href="#Arial-BoldMT-57" transform="translate(666.992188 0)"/>
     <use xlink:href="#Arial-BoldMT-65" transform="translate(759.626953 0)"/>
     <use xlink:href="#Arial-BoldMT-65" transform="translate(815.242188 0)"/>
     <use xlink:href="#Arial-BoldMT-6b" transform="translate(870.857422 0)"/>
     <use xlink:href="#Arial-BoldMT-6c" transform="translate(926.472656 0)"/>
     <use xlink:href="#Arial-BoldMT-79" transform="translate(954.255859 0)"/>
     <use xlink:href="#Arial-BoldMT-29" transform="translate(1009.871094 0)"/>
    </g>
   </g>
   <g id="legend_1">
    <g id="line2d_37">
     <path d="M 74.64 51.7825 
L 90.64 51.7825 
L 106.64 51.7825 
" style="fill: none; stroke: #ee8866; stroke-width: 5; stroke-linecap: round"/>
    </g>
    <g id="text_21">
     <!-- Bluefin LTS (0.0k) -->
     <g style="fill: #616161" transform="translate(119.44 57.3825) scale(0.16 -0.16)">
      <defs>
       <path id="ArialMT-42" d="M 469 0 
L 469 4581 
L 2188 4581 
Q 2713 4581 3030 4442 
Q 3347 4303 3526 4014 
Q 3706 3725 3706 3409 
Q 3706 3116 3547 2856 
Q 3388 2597 3066 2438 
Q 3481 2316 3704 2022 
Q 3928 1728 3928 1328 
Q 3928 1006 3792 729 
Q 3656 453 3456 303 
Q 3256 153 2954 76 
Q 2653 0 2216 0 
L 469 0 
z
M 1075 2656 
L 2066 2656 
Q 2469 2656 2644 2709 
Q 2875 2778 2992 2937 
Q 3109 3097 3109 3338 
Q 3109 3566 3000 3739 
Q 2891 3913 2687 3977 
Q 2484 4041 1991 4041 
L 1075 4041 
L 1075 2656 
z
M 1075 541 
L 2216 541 
Q 2509 541 2628 563 
Q 2838 600 2978 687 
Q 3119 775 3209 942 
Q 3300 1109 3300 1328 
Q 3300 1584 3169 1773 
Q 3038 1963 2805 2039 
Q 2572 2116 2134 2116 
L 1075 2116 
L 1075 541 
z
" transform="scale(0.015625)"/>
       <path id="ArialMT-6c" d="M 409 0 
L 409 4581 
L 972 4581 
L 972 0 
L 409 0 
z
" transform="scale(0.015625)"/>
       <path id="ArialMT-75" d="M 2597 0 
L 2597 488 
Q 2209 -75 1544 -75 
Q 1250 -75 995 37 
Q 741 150 617 320 
Q 494 491 444 738 
Q 409 903 409 1263 
L 409 3319 
L 972 3319 
L 972 1478 
Q 972 1038 1006 884 
Q 1059 663 1231 536 
Q 1403 409 1656 409 
Q 1909 409 2131 539 
Q 2353 669 2445 892 
Q 2538 1116 2538 1541 
L 2538 3319 
L 3100 3319 
L 3100 0 
L 2597 0 
z
" transform="scale(0.015625)"/>
       <path id="ArialMT-65" d="M 2694 1069 
L 3275 997 
Q 3138 488 2766 206 
Q 2394 -75 1816 -75 
Q 1088 -75 661 373 
Q 234 822 234 1631 
Q 234 2469 665 2931 
Q 1097 3394 1784 3394 
Q 2450 3394 2872 2941 
Q 3294 2488 3294 1666 
Q 3294 1616 3291 1516 
L 816 1516 
Q 847 969 1125 678 
Q 1403 388 1819 388 
Q 2128 388 2347 550 
Q 2566 713 2694 1069 
z
M 847 1978 
L 2700 1978 
Q 2663 2397 2488 2606 
Q 2219 2931 1791 2931 
Q 1403 2931 1139 2672 
Q 875 2413 847 1978 
z
" transform="scale(0.015625)"/>
       <path id="ArialMT-66" d="M 556 0 
L 556 2881 
L 59 2881 
L 59 3319 
L 556 3319 
L 556 3672 
Q 556 4006 616 4169 
Q 697 4388 901 4523 
Q 1106 4659 1475 4659 
Q 1713 4659 2000 4603 
L 1916 4113 
Q 1741 4144 1584 4144 
Q 1328 4144 1222 4034 
Q 1116 3925 1116 3625 
L 1116 3319 
L 1763 3319 
L 1763 2881 
L 1116 2881 
L 1116 0 
L 556 0 
z
" transform="scale(0.015625)"/>
       <path id="ArialMT-69" d="M 425 3934 
L 425 4581 
L 988 4581 
L 988 3934 
L 425 3934 
z
M 425 0 
L 425 3319 
L 988 3319 
L 988 0 
L 425 0 
z
" transform="scale(0.015625)"/>
       <path id="ArialMT-6e" d="M 422 0 
L 422 3319 
L 928 3319 
L 928 2847 
Q 1294 3394 1984 3394 
Q 2284 3394 2536 3286 
Q 2788 3178 2913 3003 
Q 3038 2828 3088 2588 
Q 3119 2431 3119 2041 
L 3119 0 
L 2556 0 
L 2556 2019 
Q 2556 2363 2490 2533 
Q 2425 2703 2258 2804 
Q 2091 2906 1866 2906 
Q 1506 2906 1245 2678 
Q 984 2450 984 1813 
L 984 0 
L 422 0 
z
" transform="scale(0.015625)"/>
       <path id="ArialMT-20" transform="scale(0.015625)"/>
       <path id="ArialMT-4c" d="M 469 0 
L 469 4581 
L 1075 4581 
L 1075 541 
L 3331 541 
L 3331 0 
L 469 0 
z
" transform="scale(0.015625)"/>
       <path id="ArialMT-54" d="M 1659 0 
L 1659 4041 
L 150 4041 
L 150 4581 
L 3781 4581 
L 3781 4041 
L 2266 4041 
L 2266 0 
L 1659 0 
z
" transform="scale(0.015625)"/>
       <path id="ArialMT-53" d="M 288 1472 
L 859 1522 
Q 900 1178 1048 958 
Q 1197 738 1509 602 
Q 1822 466 2213 466 
Q 2559 466 2825 569 
Q 3091 672 3220 851 
Q 3350 1031 3350 1244 
Q 3350 1459 3225 1620 
Q 3100 1781 2813 1891 
Q 2628 1963 1997 2114 
Q 1366 2266 1113 2400 
Q 784 2572 623 2826 
Q 463 3081 463 3397 
Q 463 3744 659 4045 
Q 856 4347 1234 4503 
Q 1613 4659 2075 4659 
Q 2584 4659 2973 4495 
Q 3363 4331 3572 4012 
Q 3781 3694 3797 3291 
L 3216 3247 
Q 3169 3681 2898 3903 
Q 2628 4125 2100 4125 
Q 1550 4125 1298 3923 
Q 1047 3722 1047 3438 
Q 1047 3191 1225 3031 
Q 1400 2872 2139 2705 
Q 2878 2538 3153 2413 
Q 3553 2228 3743 1945 
Q 3934 1663 3934 1294 
Q 3934 928 3725 604 
Q 3516 281 3123 101 
Q 2731 -78 2241 -78 
Q 1619 -78 1198 103 
Q 778 284 539 648 
Q 300 1013 288 1472 
z
" transform="scale(0.015625)"/>
       <path id="ArialMT-28" d="M 1497 -1347 
Q 1031 -759 709 28 
Q 388 816 388 1659 
Q 388 2403 628 3084 
Q 909 3875 1497 4659 
L 1900 4659 
Q 1522 4009 1400 3731 
Q 1209 3300 1100 2831 
Q 966 2247 966 1656 
Q 966 153 1900 -1347 
L 1497 -1347 
z
" transform="scale(0.015625)"/>
       <path id="ArialMT-30" d="M 266 2259 
Q 266 3072 433 3567 
Q 600 4063 929 4331 
Q 1259 4600 1759 4600 
Q 2128 4600 2406 4451 
Q 2684 4303 2865 4023 
Q 3047 3744 3150 3342 
Q 3253 2941 3253 2259 
Q 3253 1453 3087 958 
Q 2922 463 2592 192 
Q 2263 -78 1759 -78 
Q 1097 -78 719 397 
Q 266 969 266 2259 
z
M 844 2259 
Q 844 1131 1108 757 
Q 1372 384 1759 384 
Q 2147 384 2411 759 
Q 2675 1134 2675 2259 
Q 2675 3391 2411 3762 
Q 2147 4134 1753 4134 
Q 1366 4134 1134 3806 
Q 844 3388 844 2259 
z
" transform="scale(0.015625)"/>
       <path id="ArialMT-2e" d="M 581 0 
L 581 641 
L 1222 641 
L 1222 0 
L 581 0 
z
" transform="scale(0.015625)"/>
       <path id="ArialMT-6b" d="M 425 0 
L 425 4581 
L 988 4581 
L 988 1969 
L 2319 3319 
L 3047 3319 
L 1778 2088 
L 3175 0 
L 2481 0 
L 1384 1697 
L 988 1316 
L 988 0 
L 425 0 
z
" transform="scale(0.015625)"/>
       <path id="ArialMT-29" d="M 791 -1347 
L 388 -1347 
Q 1322 153 1322 1656 
Q 1322 2244 1188 2822 
Q 1081 3291 891 3722 
Q 769 4003 388 4659 
L 791 4659 
Q 1378 3875 1659 3084 
Q 1900 2403 1900 1659 
Q 1900 816 1576 28 
Q 1253 -759 791 -1347 
z
" transform="scale(0.015625)"/>
      </defs>
      <use xlink:href="#ArialMT-42"/>
      <use xlink:href="#ArialMT-6c" transform="translate(66.699219 0)"/>
      <use xlink:href="#ArialMT-75" transform="translate(88.916016 0)"/>
      <use xlink:href="#ArialMT-65" transform="translate(144.53125 0)"/>
      <use xlink:href="#ArialMT-66" transform="translate(200.146484 0)"/>
      <use xlink:href="#ArialMT-69" transform="translate(227.929688 0)"/>
      <use xlink:href="#ArialMT-6e" transform="translate(250.146484 0)"/>
      <use xlink:href="#ArialMT-20" transform="translate(305.761719 0)"/>
      <use xlink:href="#ArialMT-4c" transform="translate(333.544922 0)"/>
      <use xlink:href="#ArialMT-54" transform="translate(381.785156 0)"/>
      <use xlink:href="#ArialMT-53" transform="translate(442.869141 0)"/>
      <use xlink:href="#ArialMT-20" transform="translate(509.568359 0)"/>
      <use xlink:href="#ArialMT-28" transform="translate(537.351562 0)"/>
      <use xlink:href="#ArialMT-30" transform="translate(570.652344 0)"/>
      <use xlink:href="#ArialMT-2e" transform="translate(626.267578 0)"/>
      <use xlink:href="#ArialMT-30" transform="translate(654.050781 0)"/>
      <use xlink:href="#ArialMT-6b" transform="translate(709.666016 0)"/>
      <use xlink:href="#ArialMT-29" transform="translate(759.666016 0)"/>
     </g>
    </g>
    <g id="line2d_38">
     <path d="M 74.64 74.7975 
L 90.64 74.7975 
L 106.64 74.7975 
" style="fill: none; stroke: #77aadd; stroke-width: 5; stroke-linecap: round"/>
    </g>
    <g id="text_22">
     <!-- Bluefin (2.0k) -->
     <g style="fill: #616161" transform="translate(119.44 80.3975) scale(0.16 -0.16)">
      <defs>
       <path id="ArialMT-32" d="M 3222 541 
L 3222 0 
L 194 0 
Q 188 203 259 391 
Q 375 700 629 1000 
Q 884 1300 1366 1694 
Q 2113 2306 2375 2664 
Q 2638 3022 2638 3341 
Q 2638 3675 2398 3904 
Q 2159 4134 1775 4134 
Q 1369 4134 1125 3890 
Q 881 3647 878 3216 
L 300 3275 
Q 359 3922 746 4261 
Q 1134 4600 1788 4600 
Q 2447 4600 2831 4234 
Q 3216 3869 3216 3328 
Q 3216 3053 3103 2787 
Q 2991 2522 2730 2228 
Q 2469 1934 1863 1422 
Q 1356 997 1212 845 
Q 1069 694 975 541 
L 3222 541 
z
" transform="scale(0.015625)"/>
      </defs>
      <use xlink:href="#ArialMT-42"/>
      <use xlink:href="#ArialMT-6c" transform="translate(66.699219 0)"/>
      <use xlink:href="#ArialMT-75" transform="translate(88.916016 0)"/>
      <use xlink:href="#ArialMT-65" transform="translate(144.53125 0)"/>
      <use xlink:href="#ArialMT-66" transform="translate(200.146484 0)"/>
      <use xlink:href="#ArialMT-69" transform="translate(227.929688 0)"/>
      <use xlink:href="#ArialMT-6e" transform="translate(250.146484 0)"/>
      <use xlink:href="#ArialMT-20" transform="translate(305.761719 0)"/>
      <use xlink:href="#ArialMT-28" transform="translate(333.544922 0)"/>
      <use xlink:href="#ArialMT-32" transform="translate(366.845703 0)"/>
      <use xlink:href="#ArialMT-2e" transform="translate(422.460938 0)"/>
      <use xlink:href="#ArialMT-30" transform="translate(450.244141 0)"/>
      <use xlink:href="#ArialMT-6b" transform="translate(505.859375 0)"/>
      <use xlink:href="#ArialMT-29" transform="translate(555.859375 0)"/>
     </g>
    </g>
   </g>
  </g>
 </g>
 <defs>
  <clipPath id="pf2d97704fa">
   <rect x="60.24" y="31.335" width="1079.377225" height="557.053597"/>
  </clipPath>
 </defs>
</svg>
