<?xml version="1.0" encoding="utf-8" standalone="no"?>
<!DOCTYPE svg PUBLIC "-//W3C//DTD SVG 1.1//EN"
  "http://www.w3.org/Graphics/SVG/1.1/DTD/svg11.dtd">
<svg xmlns:xlink="http://www.w3.org/1999/xlink" width="1152pt" height="648pt" viewBox="0 0 1152 648" xmlns="http://www.w3.org/2000/svg" version="1.1">
 <metadata>
  <rdf:RDF xmlns:dc="http://purl.org/dc/elements/1.1/" xmlns:cc="http://creativecommons.org/ns#" xmlns:rdf="http://www.w3.org/1999/02/22-rdf-syntax-ns#">
   <cc:Work>
    <dc:type rdf:resource="http://purl.org/dc/dcmitype/StillImage"/>
    <dc:date>2025-11-15T09:19:27.231109</dc:date>
    <dc:format>image/svg+xml</dc:format>
    <dc:creator>
     <cc:Agent>
      <dc:title>Matplotlib v3.10.1, https://matplotlib.org/</dc:title>
     </cc:Agent>
    </dc:creator>
   </cc:Work>
  </rdf:RDF>
 </metadata>
 <defs>
  <style type="text/css">*{stroke-linejoin: round; stroke-linecap: butt}</style>
 </defs>
 <g id="figure_1">
  <g id="patch_1">
   <path d="M 0 648 
L 1152 648 
L 1152 0 
L 0 0 
z
" style="fill: #ffffff"/>
  </g>
  <g id="axes_1">
   <g id="patch_2">
    <path d="M 58.26 585.333896 
L 1141.2 585.333896 
L 1141.2 32.64 
L 58.26 32.64 
z
" style="fill: #ffffff"/>
   </g>
   <g id="matplotlib.axis_1">
    <g id="xtick_1">
     <g id="line2d_1">
      <path d="M 112.254273 585.333896 
L 112.254273 32.64 
" clip-path="url(#p762641ff0e)" style="fill: none; stroke: #cccccc; stroke-width: 0.8; stroke-linecap: round"/>
     </g>
     <g id="line2d_2"/>
     <g id="text_1">
      <!-- 03/2025 -->
      <g style="fill: #616161" transform="translate(95.829619 634.348371) rotate(-45) scale(0.14 -0.14)">
       <defs>
        <path id="OpenSans-Bold-30" d="M 3425 2284 
Q 3425 1088 3033 512 
Q 2641 -63 1825 -63 
Q 1034 -63 632 531 
Q 231 1125 231 2284 
Q 231 3494 622 4067 
Q 1013 4641 1825 4641 
Q 2616 4641 3020 4041 
Q 3425 3441 3425 2284 
z
M 1191 2284 
Q 1191 1444 1336 1080 
Q 1481 716 1825 716 
Q 2163 716 2313 1084 
Q 2463 1453 2463 2284 
Q 2463 3125 2311 3492 
Q 2159 3859 1825 3859 
Q 1484 3859 1337 3492 
Q 1191 3125 1191 2284 
z
" transform="scale(0.015625)"/>
        <path id="OpenSans-Bold-33" d="M 3272 3547 
Q 3272 3119 3012 2819 
Q 2753 2519 2284 2406 
L 2284 2388 
Q 2838 2319 3122 2051 
Q 3406 1784 3406 1331 
Q 3406 672 2928 304 
Q 2450 -63 1563 -63 
Q 819 -63 244 184 
L 244 1006 
Q 509 872 828 787 
Q 1147 703 1459 703 
Q 1938 703 2166 865 
Q 2394 1028 2394 1388 
Q 2394 1709 2131 1843 
Q 1869 1978 1294 1978 
L 947 1978 
L 947 2719 
L 1300 2719 
Q 1831 2719 2076 2858 
Q 2322 2997 2322 3334 
Q 2322 3853 1672 3853 
Q 1447 3853 1214 3778 
Q 981 3703 697 3519 
L 250 4184 
Q 875 4634 1741 4634 
Q 2450 4634 2861 4346 
Q 3272 4059 3272 3547 
z
" transform="scale(0.015625)"/>
        <path id="OpenSans-Bold-2f" d="M 2613 4569 
L 909 0 
L 44 0 
L 1747 4569 
L 2613 4569 
z
" transform="scale(0.015625)"/>
        <path id="OpenSans-Bold-32" d="M 3450 0 
L 256 0 
L 256 672 
L 1403 1831 
Q 1913 2353 2069 2554 
Q 2225 2756 2294 2928 
Q 2363 3100 2363 3284 
Q 2363 3559 2211 3693 
Q 2059 3828 1806 3828 
Q 1541 3828 1291 3706 
Q 1041 3584 769 3359 
L 244 3981 
Q 581 4269 803 4387 
Q 1025 4506 1287 4570 
Q 1550 4634 1875 4634 
Q 2303 4634 2631 4478 
Q 2959 4322 3140 4040 
Q 3322 3759 3322 3397 
Q 3322 3081 3211 2804 
Q 3100 2528 2867 2237 
Q 2634 1947 2047 1409 
L 1459 856 
L 1459 813 
L 3450 813 
L 3450 0 
z
" transform="scale(0.015625)"/>
        <path id="OpenSans-Bold-35" d="M 1919 2919 
Q 2581 2919 2973 2547 
Q 3366 2175 3366 1528 
Q 3366 763 2894 350 
Q 2422 -63 1544 -63 
Q 781 -63 313 184 
L 313 1019 
Q 559 888 887 805 
Q 1216 722 1509 722 
Q 2394 722 2394 1447 
Q 2394 2138 1478 2138 
Q 1313 2138 1113 2105 
Q 913 2072 788 2034 
L 403 2241 
L 575 4569 
L 3053 4569 
L 3053 3750 
L 1422 3750 
L 1338 2853 
L 1447 2875 
Q 1638 2919 1919 2919 
z
" transform="scale(0.015625)"/>
       </defs>
       <use xlink:href="#OpenSans-Bold-30"/>
       <use xlink:href="#OpenSans-Bold-33" transform="translate(57.080078 0)"/>
       <use xlink:href="#OpenSans-Bold-2f" transform="translate(114.160156 0)"/>
       <use xlink:href="#OpenSans-Bold-32" transform="translate(155.46875 0)"/>
       <use xlink:href="#OpenSans-Bold-30" transform="translate(212.548828 0)"/>
       <use xlink:href="#OpenSans-Bold-32" transform="translate(269.628906 0)"/>
       <use xlink:href="#OpenSans-Bold-35" transform="translate(326.708984 0)"/>
      </g>
     </g>
    </g>
    <g id="xtick_2">
     <g id="line2d_3">
      <path d="M 235.225482 585.333896 
L 235.225482 32.64 
" clip-path="url(#p762641ff0e)" style="fill: none; stroke: #cccccc; stroke-width: 0.8; stroke-linecap: round"/>
     </g>
     <g id="line2d_4"/>
     <g id="text_2">
      <!-- 04/2025 -->
      <g style="fill: #616161" transform="translate(218.800828 634.348371) rotate(-45) scale(0.14 -0.14)">
       <defs>
        <path id="OpenSans-Bold-34" d="M 3553 947 
L 3003 947 
L 3003 0 
L 2059 0 
L 2059 947 
L 109 947 
L 109 1619 
L 2113 4569 
L 3003 4569 
L 3003 1697 
L 3553 1697 
L 3553 947 
z
M 2059 1697 
L 2059 2472 
Q 2059 2666 2075 3034 
Q 2091 3403 2100 3463 
L 2075 3463 
Q 1959 3206 1797 2963 
L 959 1697 
L 2059 1697 
z
" transform="scale(0.015625)"/>
       </defs>
       <use xlink:href="#OpenSans-Bold-30"/>
       <use xlink:href="#OpenSans-Bold-34" transform="translate(57.080078 0)"/>
       <use xlink:href="#OpenSans-Bold-2f" transform="translate(114.160156 0)"/>
       <use xlink:href="#OpenSans-Bold-32" transform="translate(155.46875 0)"/>
       <use xlink:href="#OpenSans-Bold-30" transform="translate(212.548828 0)"/>
       <use xlink:href="#OpenSans-Bold-32" transform="translate(269.628906 0)"/>
       <use xlink:href="#OpenSans-Bold-35" transform="translate(326.708984 0)"/>
      </g>
     </g>
    </g>
    <g id="xtick_3">
     <g id="line2d_5">
      <path d="M 354.229878 585.333896 
L 354.229878 32.64 
" clip-path="url(#p762641ff0e)" style="fill: none; stroke: #cccccc; stroke-width: 0.8; stroke-linecap: round"/>
     </g>
     <g id="line2d_6"/>
     <g id="text_3">
      <!-- 05/2025 -->
      <g style="fill: #616161" transform="translate(337.805223 634.348371) rotate(-45) scale(0.14 -0.14)">
       <use xlink:href="#OpenSans-Bold-30"/>
       <use xlink:href="#OpenSans-Bold-35" transform="translate(57.080078 0)"/>
       <use xlink:href="#OpenSans-Bold-2f" transform="translate(114.160156 0)"/>
       <use xlink:href="#OpenSans-Bold-32" transform="translate(155.46875 0)"/>
       <use xlink:href="#OpenSans-Bold-30" transform="translate(212.548828 0)"/>
       <use xlink:href="#OpenSans-Bold-32" transform="translate(269.628906 0)"/>
       <use xlink:href="#OpenSans-Bold-35" transform="translate(326.708984 0)"/>
      </g>
     </g>
    </g>
    <g id="xtick_4">
     <g id="line2d_7">
      <path d="M 477.201086 585.333896 
L 477.201086 32.64 
" clip-path="url(#p762641ff0e)" style="fill: none; stroke: #cccccc; stroke-width: 0.8; stroke-linecap: round"/>
     </g>
     <g id="line2d_8"/>
     <g id="text_4">
      <!-- 06/2025 -->
      <g style="fill: #616161" transform="translate(460.776432 634.348371) rotate(-45) scale(0.14 -0.14)">
       <defs>
        <path id="OpenSans-Bold-36" d="M 225 1941 
Q 225 3297 798 3959 
Q 1372 4622 2516 4622 
Q 2906 4622 3128 4575 
L 3128 3803 
Q 2850 3866 2578 3866 
Q 2081 3866 1767 3716 
Q 1453 3566 1297 3272 
Q 1141 2978 1113 2438 
L 1153 2438 
Q 1463 2969 2144 2969 
Q 2756 2969 3103 2584 
Q 3450 2200 3450 1522 
Q 3450 791 3037 364 
Q 2625 -63 1894 -63 
Q 1388 -63 1011 171 
Q 634 406 429 856 
Q 225 1306 225 1941 
z
M 1875 709 
Q 2184 709 2350 917 
Q 2516 1125 2516 1509 
Q 2516 1844 2361 2036 
Q 2206 2228 1894 2228 
Q 1600 2228 1392 2037 
Q 1184 1847 1184 1594 
Q 1184 1222 1379 965 
Q 1575 709 1875 709 
z
" transform="scale(0.015625)"/>
       </defs>
       <use xlink:href="#OpenSans-Bold-30"/>
       <use xlink:href="#OpenSans-Bold-36" transform="translate(57.080078 0)"/>
       <use xlink:href="#OpenSans-Bold-2f" transform="translate(114.160156 0)"/>
       <use xlink:href="#OpenSans-Bold-32" transform="translate(155.46875 0)"/>
       <use xlink:href="#OpenSans-Bold-30" transform="translate(212.548828 0)"/>
       <use xlink:href="#OpenSans-Bold-32" transform="translate(269.628906 0)"/>
       <use xlink:href="#OpenSans-Bold-35" transform="translate(326.708984 0)"/>
      </g>
     </g>
    </g>
    <g id="xtick_5">
     <g id="line2d_9">
      <path d="M 596.205482 585.333896 
L 596.205482 32.64 
" clip-path="url(#p762641ff0e)" style="fill: none; stroke: #cccccc; stroke-width: 0.8; stroke-linecap: round"/>
     </g>
     <g id="line2d_10"/>
     <g id="text_5">
      <!-- 07/2025 -->
      <g style="fill: #616161" transform="translate(579.780828 634.348371) rotate(-45) scale(0.14 -0.14)">
       <defs>
        <path id="OpenSans-Bold-37" d="M 709 0 
L 2425 3750 
L 172 3750 
L 172 4563 
L 3450 4563 
L 3450 3956 
L 1722 0 
L 709 0 
z
" transform="scale(0.015625)"/>
       </defs>
       <use xlink:href="#OpenSans-Bold-30"/>
       <use xlink:href="#OpenSans-Bold-37" transform="translate(57.080078 0)"/>
       <use xlink:href="#OpenSans-Bold-2f" transform="translate(114.160156 0)"/>
       <use xlink:href="#OpenSans-Bold-32" transform="translate(155.46875 0)"/>
       <use xlink:href="#OpenSans-Bold-30" transform="translate(212.548828 0)"/>
       <use xlink:href="#OpenSans-Bold-32" transform="translate(269.628906 0)"/>
       <use xlink:href="#OpenSans-Bold-35" transform="translate(326.708984 0)"/>
      </g>
     </g>
    </g>
    <g id="xtick_6">
     <g id="line2d_11">
      <path d="M 719.176691 585.333896 
L 719.176691 32.64 
" clip-path="url(#p762641ff0e)" style="fill: none; stroke: #cccccc; stroke-width: 0.8; stroke-linecap: round"/>
     </g>
     <g id="line2d_12"/>
     <g id="text_6">
      <!-- 08/2025 -->
      <g style="fill: #616161" transform="translate(702.752037 634.348371) rotate(-45) scale(0.14 -0.14)">
       <defs>
        <path id="OpenSans-Bold-38" d="M 1831 4628 
Q 2488 4628 2889 4329 
Q 3291 4031 3291 3525 
Q 3291 3175 3097 2901 
Q 2903 2628 2472 2413 
Q 2984 2138 3207 1839 
Q 3431 1541 3431 1184 
Q 3431 622 2990 279 
Q 2550 -63 1831 -63 
Q 1081 -63 653 256 
Q 225 575 225 1159 
Q 225 1550 433 1853 
Q 641 2156 1100 2388 
Q 709 2634 537 2915 
Q 366 3197 366 3531 
Q 366 4022 772 4325 
Q 1178 4628 1831 4628 
z
M 1119 1216 
Q 1119 947 1306 797 
Q 1494 647 1819 647 
Q 2178 647 2356 801 
Q 2534 956 2534 1209 
Q 2534 1419 2357 1601 
Q 2181 1784 1784 1991 
Q 1119 1684 1119 1216 
z
M 1825 3922 
Q 1578 3922 1426 3795 
Q 1275 3669 1275 3456 
Q 1275 3269 1395 3120 
Q 1516 2972 1831 2816 
Q 2138 2959 2259 3109 
Q 2381 3259 2381 3456 
Q 2381 3672 2225 3797 
Q 2069 3922 1825 3922 
z
" transform="scale(0.015625)"/>
       </defs>
       <use xlink:href="#OpenSans-Bold-30"/>
       <use xlink:href="#OpenSans-Bold-38" transform="translate(57.080078 0)"/>
       <use xlink:href="#OpenSans-Bold-2f" transform="translate(114.160156 0)"/>
       <use xlink:href="#OpenSans-Bold-32" transform="translate(155.46875 0)"/>
       <use xlink:href="#OpenSans-Bold-30" transform="translate(212.548828 0)"/>
       <use xlink:href="#OpenSans-Bold-32" transform="translate(269.628906 0)"/>
       <use xlink:href="#OpenSans-Bold-35" transform="translate(326.708984 0)"/>
      </g>
     </g>
    </g>
    <g id="xtick_7">
     <g id="line2d_13">
      <path d="M 842.1479 585.333896 
L 842.1479 32.64 
" clip-path="url(#p762641ff0e)" style="fill: none; stroke: #cccccc; stroke-width: 0.8; stroke-linecap: round"/>
     </g>
     <g id="line2d_14"/>
     <g id="text_7">
      <!-- 09/2025 -->
      <g style="fill: #616161" transform="translate(825.723245 634.348371) rotate(-45) scale(0.14 -0.14)">
       <defs>
        <path id="OpenSans-Bold-39" d="M 3431 2619 
Q 3431 1269 2862 603 
Q 2294 -63 1141 -63 
Q 734 -63 525 -19 
L 525 756 
Q 788 691 1075 691 
Q 1559 691 1871 833 
Q 2184 975 2350 1279 
Q 2516 1584 2541 2119 
L 2503 2119 
Q 2322 1825 2084 1706 
Q 1847 1588 1491 1588 
Q 894 1588 550 1970 
Q 206 2353 206 3034 
Q 206 3769 623 4195 
Q 1041 4622 1759 4622 
Q 2266 4622 2645 4384 
Q 3025 4147 3228 3695 
Q 3431 3244 3431 2619 
z
M 1778 3847 
Q 1478 3847 1309 3640 
Q 1141 3434 1141 3047 
Q 1141 2716 1294 2522 
Q 1447 2328 1759 2328 
Q 2053 2328 2262 2520 
Q 2472 2713 2472 2963 
Q 2472 3334 2276 3590 
Q 2081 3847 1778 3847 
z
" transform="scale(0.015625)"/>
       </defs>
       <use xlink:href="#OpenSans-Bold-30"/>
       <use xlink:href="#OpenSans-Bold-39" transform="translate(57.080078 0)"/>
       <use xlink:href="#OpenSans-Bold-2f" transform="translate(114.160156 0)"/>
       <use xlink:href="#OpenSans-Bold-32" transform="translate(155.46875 0)"/>
       <use xlink:href="#OpenSans-Bold-30" transform="translate(212.548828 0)"/>
       <use xlink:href="#OpenSans-Bold-32" transform="translate(269.628906 0)"/>
       <use xlink:href="#OpenSans-Bold-35" transform="translate(326.708984 0)"/>
      </g>
     </g>
    </g>
    <g id="xtick_8">
     <g id="line2d_15">
      <path d="M 961.152295 585.333896 
L 961.152295 32.64 
" clip-path="url(#p762641ff0e)" style="fill: none; stroke: #cccccc; stroke-width: 0.8; stroke-linecap: round"/>
     </g>
     <g id="line2d_16"/>
     <g id="text_8">
      <!-- 10/2025 -->
      <g style="fill: #616161" transform="translate(944.727641 634.348371) rotate(-45) scale(0.14 -0.14)">
       <defs>
        <path id="OpenSans-Bold-31" d="M 2644 0 
L 1678 0 
L 1678 2644 
L 1688 3078 
L 1703 3553 
Q 1463 3313 1369 3238 
L 844 2816 
L 378 3397 
L 1850 4569 
L 2644 4569 
L 2644 0 
z
" transform="scale(0.015625)"/>
       </defs>
       <use xlink:href="#OpenSans-Bold-31"/>
       <use xlink:href="#OpenSans-Bold-30" transform="translate(57.080078 0)"/>
       <use xlink:href="#OpenSans-Bold-2f" transform="translate(114.160156 0)"/>
       <use xlink:href="#OpenSans-Bold-32" transform="translate(155.46875 0)"/>
       <use xlink:href="#OpenSans-Bold-30" transform="translate(212.548828 0)"/>
       <use xlink:href="#OpenSans-Bold-32" transform="translate(269.628906 0)"/>
       <use xlink:href="#OpenSans-Bold-35" transform="translate(326.708984 0)"/>
      </g>
     </g>
    </g>
    <g id="xtick_9">
     <g id="line2d_17">
      <path d="M 1084.123504 585.333896 
L 1084.123504 32.64 
" clip-path="url(#p762641ff0e)" style="fill: none; stroke: #cccccc; stroke-width: 0.8; stroke-linecap: round"/>
     </g>
     <g id="line2d_18"/>
     <g id="text_9">
      <!-- 11/2025 -->
      <g style="fill: #616161" transform="translate(1067.69885 634.348371) rotate(-45) scale(0.14 -0.14)">
       <use xlink:href="#OpenSans-Bold-31"/>
       <use xlink:href="#OpenSans-Bold-31" transform="translate(57.080078 0)"/>
       <use xlink:href="#OpenSans-Bold-2f" transform="translate(114.160156 0)"/>
       <use xlink:href="#OpenSans-Bold-32" transform="translate(155.46875 0)"/>
       <use xlink:href="#OpenSans-Bold-30" transform="translate(212.548828 0)"/>
       <use xlink:href="#OpenSans-Bold-32" transform="translate(269.628906 0)"/>
       <use xlink:href="#OpenSans-Bold-35" transform="translate(326.708984 0)"/>
      </g>
     </g>
    </g>
   </g>
   <g id="matplotlib.axis_2">
    <g id="ytick_1">
     <g id="line2d_19">
      <path d="M 58.26 585.333896 
L 1141.2 585.333896 
" clip-path="url(#p762641ff0e)" style="fill: none; stroke: #cccccc; stroke-width: 0.8; stroke-linecap: round"/>
     </g>
     <g id="line2d_20"/>
     <g id="text_10">
      <!-- 0k -->
      <g style="fill: #616161" transform="translate(38.086875 590.652802) scale(0.14 -0.14)">
       <defs>
        <path id="OpenSans-Bold-6b" d="M 1416 1900 
L 1831 2431 
L 2809 3494 
L 3884 3494 
L 2497 1978 
L 3969 0 
L 2869 0 
L 1863 1416 
L 1453 1088 
L 1453 0 
L 500 0 
L 500 4863 
L 1453 4863 
L 1453 2694 
L 1403 1900 
L 1416 1900 
z
" transform="scale(0.015625)"/>
       </defs>
       <use xlink:href="#OpenSans-Bold-30"/>
       <use xlink:href="#OpenSans-Bold-6b" transform="translate(57.080078 0)"/>
      </g>
     </g>
    </g>
    <g id="ytick_2">
     <g id="line2d_21">
      <path d="M 58.26 514.978833 
L 1141.2 514.978833 
" clip-path="url(#p762641ff0e)" style="fill: none; stroke: #cccccc; stroke-width: 0.8; stroke-linecap: round"/>
     </g>
     <g id="line2d_22"/>
     <g id="text_11">
      <!-- 5k -->
      <g style="fill: #616161" transform="translate(38.086875 520.297739) scale(0.14 -0.14)">
       <use xlink:href="#OpenSans-Bold-35"/>
       <use xlink:href="#OpenSans-Bold-6b" transform="translate(57.080078 0)"/>
      </g>
     </g>
    </g>
    <g id="ytick_3">
     <g id="line2d_23">
      <path d="M 58.26 444.62377 
L 1141.2 444.62377 
" clip-path="url(#p762641ff0e)" style="fill: none; stroke: #cccccc; stroke-width: 0.8; stroke-linecap: round"/>
     </g>
     <g id="line2d_24"/>
     <g id="text_12">
      <!-- 10k -->
      <g style="fill: #616161" transform="translate(30.095937 449.942677) scale(0.14 -0.14)">
       <use xlink:href="#OpenSans-Bold-31"/>
       <use xlink:href="#OpenSans-Bold-30" transform="translate(57.080078 0)"/>
       <use xlink:href="#OpenSans-Bold-6b" transform="translate(114.160156 0)"/>
      </g>
     </g>
    </g>
    <g id="ytick_4">
     <g id="line2d_25">
      <path d="M 58.26 374.268707 
L 1141.2 374.268707 
" clip-path="url(#p762641ff0e)" style="fill: none; stroke: #cccccc; stroke-width: 0.8; stroke-linecap: round"/>
     </g>
     <g id="line2d_26"/>
     <g id="text_13">
      <!-- 15k -->
      <g style="fill: #616161" transform="translate(30.095937 379.587614) scale(0.14 -0.14)">
       <use xlink:href="#OpenSans-Bold-31"/>
       <use xlink:href="#OpenSans-Bold-35" transform="translate(57.080078 0)"/>
       <use xlink:href="#OpenSans-Bold-6b" transform="translate(114.160156 0)"/>
      </g>
     </g>
    </g>
    <g id="ytick_5">
     <g id="line2d_27">
      <path d="M 58.26 303.913644 
L 1141.2 303.913644 
" clip-path="url(#p762641ff0e)" style="fill: none; stroke: #cccccc; stroke-width: 0.8; stroke-linecap: round"/>
     </g>
     <g id="line2d_28"/>
     <g id="text_14">
      <!-- 20k -->
      <g style="fill: #616161" transform="translate(30.095937 309.232551) scale(0.14 -0.14)">
       <use xlink:href="#OpenSans-Bold-32"/>
       <use xlink:href="#OpenSans-Bold-30" transform="translate(57.080078 0)"/>
       <use xlink:href="#OpenSans-Bold-6b" transform="translate(114.160156 0)"/>
      </g>
     </g>
    </g>
    <g id="ytick_6">
     <g id="line2d_29">
      <path d="M 58.26 233.558582 
L 1141.2 233.558582 
" clip-path="url(#p762641ff0e)" style="fill: none; stroke: #cccccc; stroke-width: 0.8; stroke-linecap: round"/>
     </g>
     <g id="line2d_30"/>
     <g id="text_15">
      <!-- 25k -->
      <g style="fill: #616161" transform="translate(30.095937 238.877488) scale(0.14 -0.14)">
       <use xlink:href="#OpenSans-Bold-32"/>
       <use xlink:href="#OpenSans-Bold-35" transform="translate(57.080078 0)"/>
       <use xlink:href="#OpenSans-Bold-6b" transform="translate(114.160156 0)"/>
      </g>
     </g>
    </g>
    <g id="ytick_7">
     <g id="line2d_31">
      <path d="M 58.26 163.203519 
L 1141.2 163.203519 
" clip-path="url(#p762641ff0e)" style="fill: none; stroke: #cccccc; stroke-width: 0.8; stroke-linecap: round"/>
     </g>
     <g id="line2d_32"/>
     <g id="text_16">
      <!-- 30k -->
      <g style="fill: #616161" transform="translate(30.095937 168.522425) scale(0.14 -0.14)">
       <use xlink:href="#OpenSans-Bold-33"/>
       <use xlink:href="#OpenSans-Bold-30" transform="translate(57.080078 0)"/>
       <use xlink:href="#OpenSans-Bold-6b" transform="translate(114.160156 0)"/>
      </g>
     </g>
    </g>
    <g id="ytick_8">
     <g id="line2d_33">
      <path d="M 58.26 92.848456 
L 1141.2 92.848456 
" clip-path="url(#p762641ff0e)" style="fill: none; stroke: #cccccc; stroke-width: 0.8; stroke-linecap: round"/>
     </g>
     <g id="line2d_34"/>
     <g id="text_17">
      <!-- 35k -->
      <g style="fill: #616161" transform="translate(30.095937 98.167362) scale(0.14 -0.14)">
       <use xlink:href="#OpenSans-Bold-33"/>
       <use xlink:href="#OpenSans-Bold-35" transform="translate(57.080078 0)"/>
       <use xlink:href="#OpenSans-Bold-6b" transform="translate(114.160156 0)"/>
      </g>
     </g>
    </g>
    <g id="text_18">
     <!-- Devices -->
     <g style="fill: #616161" transform="translate(22.250937 339.284448) rotate(-90) scale(0.16 -0.16)">
      <defs>
       <path id="OpenSans-Bold-44" d="M 4366 2328 
Q 4366 1200 3723 600 
Q 3081 0 1869 0 
L 575 0 
L 575 4569 
L 2009 4569 
Q 3128 4569 3747 3978 
Q 4366 3388 4366 2328 
z
M 3359 2303 
Q 3359 3775 2059 3775 
L 1544 3775 
L 1544 800 
L 1959 800 
Q 3359 800 3359 2303 
z
" transform="scale(0.015625)"/>
       <path id="OpenSans-Bold-65" d="M 1947 2881 
Q 1644 2881 1472 2689 
Q 1300 2497 1275 2144 
L 2613 2144 
Q 2606 2497 2428 2689 
Q 2250 2881 1947 2881 
z
M 2081 -63 
Q 1238 -63 763 403 
Q 288 869 288 1722 
Q 288 2600 727 3079 
Q 1166 3559 1941 3559 
Q 2681 3559 3093 3137 
Q 3506 2716 3506 1972 
L 3506 1509 
L 1253 1509 
Q 1269 1103 1494 875 
Q 1719 647 2125 647 
Q 2441 647 2722 712 
Q 3003 778 3309 922 
L 3309 184 
Q 3059 59 2775 -2 
Q 2491 -63 2081 -63 
z
" transform="scale(0.015625)"/>
       <path id="OpenSans-Bold-76" d="M 1331 0 
L 0 3494 
L 997 3494 
L 1672 1503 
Q 1784 1125 1813 788 
L 1831 788 
Q 1847 1088 1972 1503 
L 2644 3494 
L 3641 3494 
L 2309 0 
L 1331 0 
z
" transform="scale(0.015625)"/>
       <path id="OpenSans-Bold-69" d="M 459 4397 
Q 459 4863 978 4863 
Q 1497 4863 1497 4397 
Q 1497 4175 1367 4051 
Q 1238 3928 978 3928 
Q 459 3928 459 4397 
z
M 1453 0 
L 500 0 
L 500 3494 
L 1453 3494 
L 1453 0 
z
" transform="scale(0.015625)"/>
       <path id="OpenSans-Bold-63" d="M 1919 -63 
Q 288 -63 288 1728 
Q 288 2619 731 3089 
Q 1175 3559 2003 3559 
Q 2609 3559 3091 3322 
L 2809 2584 
Q 2584 2675 2390 2733 
Q 2197 2791 2003 2791 
Q 1259 2791 1259 1734 
Q 1259 709 2003 709 
Q 2278 709 2512 782 
Q 2747 856 2981 1013 
L 2981 197 
Q 2750 50 2514 -6 
Q 2278 -63 1919 -63 
z
" transform="scale(0.015625)"/>
       <path id="OpenSans-Bold-73" d="M 2938 1038 
Q 2938 500 2564 218 
Q 2191 -63 1447 -63 
Q 1066 -63 797 -11 
Q 528 41 294 141 
L 294 928 
Q 559 803 892 718 
Q 1225 634 1478 634 
Q 1997 634 1997 934 
Q 1997 1047 1928 1117 
Q 1859 1188 1690 1277 
Q 1522 1366 1241 1484 
Q 838 1653 648 1797 
Q 459 1941 373 2127 
Q 288 2313 288 2584 
Q 288 3050 648 3304 
Q 1009 3559 1672 3559 
Q 2303 3559 2900 3284 
L 2613 2597 
Q 2350 2709 2122 2781 
Q 1894 2853 1656 2853 
Q 1234 2853 1234 2625 
Q 1234 2497 1370 2403 
Q 1506 2309 1966 2125 
Q 2375 1959 2565 1815 
Q 2756 1672 2847 1484 
Q 2938 1297 2938 1038 
z
" transform="scale(0.015625)"/>
      </defs>
      <use xlink:href="#OpenSans-Bold-44"/>
      <use xlink:href="#OpenSans-Bold-65" transform="translate(74.023438 0)"/>
      <use xlink:href="#OpenSans-Bold-76" transform="translate(131.105469 0)"/>
      <use xlink:href="#OpenSans-Bold-69" transform="translate(187.990234 0)"/>
      <use xlink:href="#OpenSans-Bold-63" transform="translate(218.507812 0)"/>
      <use xlink:href="#OpenSans-Bold-65" transform="translate(269.923828 0)"/>
      <use xlink:href="#OpenSans-Bold-73" transform="translate(329.005859 0)"/>
     </g>
    </g>
   </g>
   <g id="line2d_35">
    <path d="M 60.685702 360.380618 
L 88.453394 387.312536 
L 116.221086 389.859389 
L 143.988779 388.972916 
L 171.756471 383.921422 
L 199.524163 379.390556 
L 227.291856 384.793825 
L 255.059548 370.159972 
L 282.82724 366.797 
L 310.594933 347.561926 
L 338.362625 344.353735 
L 366.130317 346.520671 
L 393.898009 338.570548 
L 421.665702 330.310864 
L 449.433394 322.135606 
L 477.201086 298.834009 
L 504.968779 286.90179 
L 532.736471 293.965439 
L 560.504163 275.940471 
L 588.271856 276.995797 
L 643.80724 264.782159 
L 671.574933 208.652889 
L 699.342625 210.200701 
L 727.110317 199.239382 
L 754.878009 201.926945 
L 782.645702 196.537747 
L 810.413394 189.108253 
L 838.181086 180.918924 
L 865.948779 169.816895 
L 893.716471 164.568407 
L 921.484163 160.839589 
L 949.251856 159.657623 
L 977.019548 136.665589 
L 1004.78724 122.130233 
L 1032.554933 97.871807 
L 1060.322625 67.872408 
L 1088.090317 49.650447 
" clip-path="url(#p762641ff0e)" style="fill: none; stroke: #6c3fc4; stroke-width: 5; stroke-linecap: round"/>
   </g>
   <g id="patch_3">
    <path d="M 58.26 585.333896 
L 58.26 32.64 
" style="fill: none"/>
   </g>
   <g id="patch_4">
    <path d="M 1141.2 585.333896 
L 1141.2 32.64 
" style="fill: none"/>
   </g>
   <g id="patch_5">
    <path d="M 58.26 585.333896 
L 1141.2 585.333896 
" style="fill: none"/>
   </g>
   <g id="patch_6">
    <path d="M 58.26 32.64 
L 1141.2 32.64 
" style="fill: none"/>
   </g>
   <g id="text_19">
    <!-- Active Users (Weekly) -->
    <g transform="translate(492.54875 26.64) scale(0.2 -0.2)">
     <defs>
      <path id="OpenSans-Bold-41" d="M 3372 0 
L 3041 1088 
L 1375 1088 
L 1044 0 
L 0 0 
L 1613 4588 
L 2797 4588 
L 4416 0 
L 3372 0 
z
M 2809 1900 
Q 2350 3378 2292 3572 
Q 2234 3766 2209 3878 
Q 2106 3478 1619 1900 
L 2809 1900 
z
" transform="scale(0.015625)"/>
      <path id="OpenSans-Bold-74" d="M 1972 697 
Q 2222 697 2572 806 
L 2572 97 
Q 2216 -63 1697 -63 
Q 1125 -63 864 226 
Q 603 516 603 1094 
L 603 2778 
L 147 2778 
L 147 3181 
L 672 3500 
L 947 4238 
L 1556 4238 
L 1556 3494 
L 2534 3494 
L 2534 2778 
L 1556 2778 
L 1556 1094 
Q 1556 891 1670 794 
Q 1784 697 1972 697 
z
" transform="scale(0.015625)"/>
      <path id="OpenSans-Bold-20" transform="scale(0.015625)"/>
      <path id="OpenSans-Bold-55" d="M 4294 4569 
L 4294 1613 
Q 4294 1106 4067 725 
Q 3841 344 3412 140 
Q 2984 -63 2400 -63 
Q 1519 -63 1031 389 
Q 544 841 544 1625 
L 544 4569 
L 1509 4569 
L 1509 1772 
Q 1509 1244 1721 997 
Q 1934 750 2425 750 
Q 2900 750 3114 998 
Q 3328 1247 3328 1778 
L 3328 4569 
L 4294 4569 
z
" transform="scale(0.015625)"/>
      <path id="OpenSans-Bold-72" d="M 2450 3559 
Q 2644 3559 2772 3531 
L 2700 2638 
Q 2584 2669 2419 2669 
Q 1963 2669 1708 2434 
Q 1453 2200 1453 1778 
L 1453 0 
L 500 0 
L 500 3494 
L 1222 3494 
L 1363 2906 
L 1409 2906 
Q 1572 3200 1848 3379 
Q 2125 3559 2450 3559 
z
" transform="scale(0.015625)"/>
      <path id="OpenSans-Bold-28" d="M 256 1753 
Q 256 2581 498 3303 
Q 741 4025 1197 4569 
L 1978 4569 
Q 1538 3966 1313 3244 
Q 1088 2522 1088 1759 
Q 1088 994 1317 280 
Q 1547 -434 1972 -1013 
L 1197 -1013 
Q 738 -481 497 228 
Q 256 938 256 1753 
z
" transform="scale(0.015625)"/>
      <path id="OpenSans-Bold-57" d="M 5025 0 
L 3922 0 
L 3303 2400 
Q 3269 2528 3186 2929 
Q 3103 3331 3091 3469 
Q 3072 3300 2997 2926 
Q 2922 2553 2881 2394 
L 2266 0 
L 1166 0 
L 0 4569 
L 953 4569 
L 1538 2075 
Q 1691 1384 1759 878 
Q 1778 1056 1845 1429 
Q 1913 1803 1972 2009 
L 2638 4569 
L 3553 4569 
L 4219 2009 
Q 4263 1838 4328 1484 
Q 4394 1131 4428 878 
Q 4459 1122 4528 1486 
Q 4597 1850 4653 2075 
L 5234 4569 
L 6188 4569 
L 5025 0 
z
" transform="scale(0.015625)"/>
      <path id="OpenSans-Bold-6c" d="M 1453 0 
L 500 0 
L 500 4863 
L 1453 4863 
L 1453 0 
z
" transform="scale(0.015625)"/>
      <path id="OpenSans-Bold-79" d="M 0 3494 
L 1044 3494 
L 1703 1528 
Q 1788 1272 1819 922 
L 1838 922 
Q 1872 1244 1972 1528 
L 2619 3494 
L 3641 3494 
L 2163 -447 
Q 1959 -994 1582 -1266 
Q 1206 -1538 703 -1538 
Q 456 -1538 219 -1484 
L 219 -728 
Q 391 -769 594 -769 
Q 847 -769 1036 -614 
Q 1225 -459 1331 -147 
L 1388 25 
L 0 3494 
z
" transform="scale(0.015625)"/>
      <path id="OpenSans-Bold-29" d="M 1913 1753 
Q 1913 931 1670 221 
Q 1428 -488 972 -1013 
L 197 -1013 
Q 619 -438 850 276 
Q 1081 991 1081 1759 
Q 1081 2522 856 3244 
Q 631 3966 191 4569 
L 972 4569 
Q 1431 4022 1672 3298 
Q 1913 2575 1913 1753 
z
" transform="scale(0.015625)"/>
     </defs>
     <use xlink:href="#OpenSans-Bold-41"/>
     <use xlink:href="#OpenSans-Bold-63" transform="translate(68.994141 0)"/>
     <use xlink:href="#OpenSans-Bold-74" transform="translate(120.410156 0)"/>
     <use xlink:href="#OpenSans-Bold-69" transform="translate(163.818359 0)"/>
     <use xlink:href="#OpenSans-Bold-76" transform="translate(194.335938 0)"/>
     <use xlink:href="#OpenSans-Bold-65" transform="translate(251.220703 0)"/>
     <use xlink:href="#OpenSans-Bold-20" transform="translate(310.302734 0)"/>
     <use xlink:href="#OpenSans-Bold-55" transform="translate(336.279297 0)"/>
     <use xlink:href="#OpenSans-Bold-73" transform="translate(411.865234 0)"/>
     <use xlink:href="#OpenSans-Bold-65" transform="translate(461.572266 0)"/>
     <use xlink:href="#OpenSans-Bold-72" transform="translate(520.654297 0)"/>
     <use xlink:href="#OpenSans-Bold-73" transform="translate(566.064453 0)"/>
     <use xlink:href="#OpenSans-Bold-20" transform="translate(615.771484 0)"/>
     <use xlink:href="#OpenSans-Bold-28" transform="translate(641.748047 0)"/>
     <use xlink:href="#OpenSans-Bold-57" transform="translate(675.634766 0)"/>
     <use xlink:href="#OpenSans-Bold-65" transform="translate(770.314453 0)"/>
     <use xlink:href="#OpenSans-Bold-65" transform="translate(829.396484 0)"/>
     <use xlink:href="#OpenSans-Bold-6b" transform="translate(888.478516 0)"/>
     <use xlink:href="#OpenSans-Bold-6c" transform="translate(950.490234 0)"/>
     <use xlink:href="#OpenSans-Bold-79" transform="translate(981.007812 0)"/>
     <use xlink:href="#OpenSans-Bold-29" transform="translate(1037.892578 0)"/>
    </g>
   </g>
   <g id="legend_1">
    <g id="line2d_36">
     <path d="M 72.66 53.5975 
L 88.66 53.5975 
L 104.66 53.5975 
" style="fill: none; stroke: #6c3fc4; stroke-width: 5; stroke-linecap: round"/>
    </g>
    <g id="text_20">
     <!-- Bazzite (38.1k) -->
     <g style="fill: #616161" transform="translate(117.46 59.1975) scale(0.16 -0.16)">
      <defs>
       <path id="OpenSans-42" d="M 628 4569 
L 1919 4569 
Q 2828 4569 3234 4297 
Q 3641 4025 3641 3438 
Q 3641 3031 3414 2767 
Q 3188 2503 2753 2425 
L 2753 2394 
Q 3794 2216 3794 1300 
Q 3794 688 3380 344 
Q 2966 0 2222 0 
L 628 0 
L 628 4569 
z
M 1159 2613 
L 2034 2613 
Q 2597 2613 2844 2789 
Q 3091 2966 3091 3384 
Q 3091 3769 2816 3939 
Q 2541 4109 1941 4109 
L 1159 4109 
L 1159 2613 
z
M 1159 2163 
L 1159 453 
L 2113 453 
Q 2666 453 2945 667 
Q 3225 881 3225 1338 
Q 3225 1763 2939 1963 
Q 2653 2163 2069 2163 
L 1159 2163 
z
" transform="scale(0.015625)"/>
       <path id="OpenSans-61" d="M 2656 0 
L 2553 488 
L 2528 488 
Q 2272 166 2017 51 
Q 1763 -63 1381 -63 
Q 872 -63 583 200 
Q 294 463 294 947 
Q 294 1984 1953 2034 
L 2534 2053 
L 2534 2266 
Q 2534 2669 2361 2861 
Q 2188 3053 1806 3053 
Q 1378 3053 838 2791 
L 678 3188 
Q 931 3325 1232 3403 
Q 1534 3481 1838 3481 
Q 2450 3481 2745 3209 
Q 3041 2938 3041 2338 
L 3041 0 
L 2656 0 
z
M 1484 366 
Q 1969 366 2245 631 
Q 2522 897 2522 1375 
L 2522 1684 
L 2003 1663 
Q 1384 1641 1111 1470 
Q 838 1300 838 941 
Q 838 659 1008 512 
Q 1178 366 1484 366 
z
" transform="scale(0.015625)"/>
       <path id="OpenSans-7a" d="M 2741 0 
L 256 0 
L 256 353 
L 2125 3022 
L 372 3022 
L 372 3425 
L 2694 3425 
L 2694 3022 
L 850 403 
L 2741 403 
L 2741 0 
z
" transform="scale(0.015625)"/>
       <path id="OpenSans-69" d="M 1069 0 
L 550 0 
L 550 3425 
L 1069 3425 
L 1069 0 
z
M 506 4353 
Q 506 4531 593 4614 
Q 681 4697 813 4697 
Q 938 4697 1028 4612 
Q 1119 4528 1119 4353 
Q 1119 4178 1028 4092 
Q 938 4006 813 4006 
Q 681 4006 593 4092 
Q 506 4178 506 4353 
z
" transform="scale(0.015625)"/>
       <path id="OpenSans-74" d="M 1656 366 
Q 1794 366 1922 386 
Q 2050 406 2125 428 
L 2125 31 
Q 2041 -9 1877 -36 
Q 1713 -63 1581 -63 
Q 588 -63 588 984 
L 588 3022 
L 97 3022 
L 97 3272 
L 588 3488 
L 806 4219 
L 1106 4219 
L 1106 3425 
L 2100 3425 
L 2100 3022 
L 1106 3022 
L 1106 1006 
Q 1106 697 1253 531 
Q 1400 366 1656 366 
z
" transform="scale(0.015625)"/>
       <path id="OpenSans-65" d="M 1997 -63 
Q 1238 -63 798 400 
Q 359 863 359 1684 
Q 359 2513 767 3000 
Q 1175 3488 1863 3488 
Q 2506 3488 2881 3064 
Q 3256 2641 3256 1947 
L 3256 1619 
L 897 1619 
Q 913 1016 1202 703 
Q 1491 391 2016 391 
Q 2569 391 3109 622 
L 3109 159 
Q 2834 41 2589 -11 
Q 2344 -63 1997 -63 
z
M 1856 3053 
Q 1444 3053 1198 2784 
Q 953 2516 909 2041 
L 2700 2041 
Q 2700 2531 2481 2792 
Q 2263 3053 1856 3053 
z
" transform="scale(0.015625)"/>
       <path id="OpenSans-20" transform="scale(0.015625)"/>
       <path id="OpenSans-28" d="M 256 1753 
Q 256 2581 498 3303 
Q 741 4025 1197 4569 
L 1703 4569 
Q 1253 3966 1026 3244 
Q 800 2522 800 1759 
Q 800 1009 1031 293 
Q 1263 -422 1697 -1013 
L 1197 -1013 
Q 738 -481 497 228 
Q 256 938 256 1753 
z
" transform="scale(0.015625)"/>
       <path id="OpenSans-33" d="M 3144 3494 
Q 3144 3056 2898 2778 
Q 2653 2500 2203 2406 
L 2203 2381 
Q 2753 2313 3018 2031 
Q 3284 1750 3284 1294 
Q 3284 641 2831 289 
Q 2378 -63 1544 -63 
Q 1181 -63 879 -8 
Q 578 47 294 184 
L 294 678 
Q 591 531 927 454 
Q 1263 378 1563 378 
Q 2747 378 2747 1306 
Q 2747 2138 1441 2138 
L 991 2138 
L 991 2584 
L 1447 2584 
Q 1981 2584 2293 2820 
Q 2606 3056 2606 3475 
Q 2606 3809 2376 4000 
Q 2147 4191 1753 4191 
Q 1453 4191 1187 4109 
Q 922 4028 581 3809 
L 319 4159 
Q 600 4381 967 4507 
Q 1334 4634 1741 4634 
Q 2406 4634 2775 4329 
Q 3144 4025 3144 3494 
z
" transform="scale(0.015625)"/>
       <path id="OpenSans-38" d="M 1825 4634 
Q 2450 4634 2815 4343 
Q 3181 4053 3181 3541 
Q 3181 3203 2972 2925 
Q 2763 2647 2303 2419 
Q 2859 2153 3093 1861 
Q 3328 1569 3328 1184 
Q 3328 616 2931 276 
Q 2534 -63 1844 -63 
Q 1113 -63 719 257 
Q 325 578 325 1166 
Q 325 1950 1281 2388 
Q 850 2631 662 2914 
Q 475 3197 475 3547 
Q 475 4044 842 4339 
Q 1209 4634 1825 4634 
z
M 838 1153 
Q 838 778 1098 568 
Q 1359 359 1831 359 
Q 2297 359 2556 578 
Q 2816 797 2816 1178 
Q 2816 1481 2572 1717 
Q 2328 1953 1722 2175 
Q 1256 1975 1047 1733 
Q 838 1491 838 1153 
z
M 1819 4213 
Q 1428 4213 1206 4025 
Q 984 3838 984 3525 
Q 984 3238 1168 3031 
Q 1353 2825 1850 2619 
Q 2297 2806 2483 3022 
Q 2669 3238 2669 3525 
Q 2669 3841 2442 4027 
Q 2216 4213 1819 4213 
z
" transform="scale(0.015625)"/>
       <path id="OpenSans-2e" d="M 475 331 
Q 475 541 570 648 
Q 666 756 844 756 
Q 1025 756 1126 648 
Q 1228 541 1228 331 
Q 1228 128 1125 18 
Q 1022 -91 844 -91 
Q 684 -91 579 7 
Q 475 106 475 331 
z
" transform="scale(0.015625)"/>
       <path id="OpenSans-31" d="M 2234 0 
L 1728 0 
L 1728 3256 
Q 1728 3663 1753 4025 
Q 1688 3959 1606 3887 
Q 1525 3816 863 3278 
L 588 3634 
L 1797 4569 
L 2234 4569 
L 2234 0 
z
" transform="scale(0.015625)"/>
       <path id="OpenSans-6b" d="M 1063 1753 
Q 1197 1944 1472 2253 
L 2578 3425 
L 3194 3425 
L 1806 1966 
L 3291 0 
L 2663 0 
L 1453 1619 
L 1063 1281 
L 1063 0 
L 550 0 
L 550 4863 
L 1063 4863 
L 1063 2284 
Q 1063 2113 1038 1753 
L 1063 1753 
z
" transform="scale(0.015625)"/>
       <path id="OpenSans-29" d="M 1638 1753 
Q 1638 931 1395 221 
Q 1153 -488 697 -1013 
L 197 -1013 
Q 631 -425 862 292 
Q 1094 1009 1094 1759 
Q 1094 2522 867 3244 
Q 641 3966 191 4569 
L 697 4569 
Q 1156 4022 1397 3298 
Q 1638 2575 1638 1753 
z
" transform="scale(0.015625)"/>
      </defs>
      <use xlink:href="#OpenSans-42"/>
      <use xlink:href="#OpenSans-61" transform="translate(64.794922 0)"/>
      <use xlink:href="#OpenSans-7a" transform="translate(120.410156 0)"/>
      <use xlink:href="#OpenSans-7a" transform="translate(167.1875 0)"/>
      <use xlink:href="#OpenSans-69" transform="translate(213.964844 0)"/>
      <use xlink:href="#OpenSans-74" transform="translate(239.257812 0)"/>
      <use xlink:href="#OpenSans-65" transform="translate(274.560547 0)"/>
      <use xlink:href="#OpenSans-20" transform="translate(330.664062 0)"/>
      <use xlink:href="#OpenSans-28" transform="translate(356.640625 0)"/>
      <use xlink:href="#OpenSans-33" transform="translate(386.230469 0)"/>
      <use xlink:href="#OpenSans-38" transform="translate(443.408203 0)"/>
      <use xlink:href="#OpenSans-2e" transform="translate(500.585938 0)"/>
      <use xlink:href="#OpenSans-31" transform="translate(527.197266 0)"/>
      <use xlink:href="#OpenSans-6b" transform="translate(584.375 0)"/>
      <use xlink:href="#OpenSans-29" transform="translate(636.865234 0)"/>
     </g>
    </g>
   </g>
  </g>
 </g>
 <defs>
  <clipPath id="p762641ff0e">
   <rect x="58.26" y="32.64" width="1082.94" height="552.693896"/>
  </clipPath>
 </defs>
</svg>
