<?xml version="1.0" encoding="utf-8" standalone="no"?>
<!DOCTYPE svg PUBLIC "-//W3C//DTD SVG 1.1//EN"
  "http://www.w3.org/Graphics/SVG/1.1/DTD/svg11.dtd">
<svg xmlns:xlink="http://www.w3.org/1999/xlink" width="1152pt" height="648pt" viewBox="0 0 1152 648" xmlns="http://www.w3.org/2000/svg" version="1.1">
 <metadata>
  <rdf:RDF xmlns:dc="http://purl.org/dc/elements/1.1/" xmlns:cc="http://creativecommons.org/ns#" xmlns:rdf="http://www.w3.org/1999/02/22-rdf-syntax-ns#">
   <cc:Work>
    <dc:type rdf:resource="http://purl.org/dc/dcmitype/StillImage"/>
    <dc:date>2025-11-15T09:34:54.782700</dc:date>
    <dc:format>image/svg+xml</dc:format>
    <dc:creator>
     <cc:Agent>
      <dc:title>Matplotlib v3.10.1, https://matplotlib.org/</dc:title>
     </cc:Agent>
    </dc:creator>
   </cc:Work>
  </rdf:RDF>
 </metadata>
 <defs>
  <style type="text/css">*{stroke-linejoin: round; stroke-linecap: butt}</style>
 </defs>
 <g id="figure_1">
  <g id="patch_1">
   <path d="M 0 648 
L 1152 648 
L 1152 0 
L 0 0 
z
" style="fill: #ffffff"/>
  </g>
  <g id="axes_1">
   <g id="patch_2">
    <path d="M 66.36 585.333896 
L 1141.2 585.333896 
L 1141.2 32.64 
L 66.36 32.64 
z
" style="fill: #ffffff"/>
   </g>
   <g id="matplotlib.axis_1">
    <g id="xtick_1">
     <g id="line2d_1">
      <path d="M 119.908164 585.333896 
L 119.908164 32.64 
" clip-path="url(#pada1e889cd)" style="fill: none; stroke: #cccccc; stroke-width: 0.8; stroke-linecap: round"/>
     </g>
     <g id="line2d_2"/>
     <g id="text_1">
      <!-- 03/2025 -->
      <g style="fill: #616161" transform="translate(103.48351 634.348371) rotate(-45) scale(0.14 -0.14)">
       <defs>
        <path id="OpenSans-Bold-30" d="M 3425 2284 
Q 3425 1088 3033 512 
Q 2641 -63 1825 -63 
Q 1034 -63 632 531 
Q 231 1125 231 2284 
Q 231 3494 622 4067 
Q 1013 4641 1825 4641 
Q 2616 4641 3020 4041 
Q 3425 3441 3425 2284 
z
M 1191 2284 
Q 1191 1444 1336 1080 
Q 1481 716 1825 716 
Q 2163 716 2313 1084 
Q 2463 1453 2463 2284 
Q 2463 3125 2311 3492 
Q 2159 3859 1825 3859 
Q 1484 3859 1337 3492 
Q 1191 3125 1191 2284 
z
" transform="scale(0.015625)"/>
        <path id="OpenSans-Bold-33" d="M 3272 3547 
Q 3272 3119 3012 2819 
Q 2753 2519 2284 2406 
L 2284 2388 
Q 2838 2319 3122 2051 
Q 3406 1784 3406 1331 
Q 3406 672 2928 304 
Q 2450 -63 1563 -63 
Q 819 -63 244 184 
L 244 1006 
Q 509 872 828 787 
Q 1147 703 1459 703 
Q 1938 703 2166 865 
Q 2394 1028 2394 1388 
Q 2394 1709 2131 1843 
Q 1869 1978 1294 1978 
L 947 1978 
L 947 2719 
L 1300 2719 
Q 1831 2719 2076 2858 
Q 2322 2997 2322 3334 
Q 2322 3853 1672 3853 
Q 1447 3853 1214 3778 
Q 981 3703 697 3519 
L 250 4184 
Q 875 4634 1741 4634 
Q 2450 4634 2861 4346 
Q 3272 4059 3272 3547 
z
" transform="scale(0.015625)"/>
        <path id="OpenSans-Bold-2f" d="M 2613 4569 
L 909 0 
L 44 0 
L 1747 4569 
L 2613 4569 
z
" transform="scale(0.015625)"/>
        <path id="OpenSans-Bold-32" d="M 3450 0 
L 256 0 
L 256 672 
L 1403 1831 
Q 1913 2353 2069 2554 
Q 2225 2756 2294 2928 
Q 2363 3100 2363 3284 
Q 2363 3559 2211 3693 
Q 2059 3828 1806 3828 
Q 1541 3828 1291 3706 
Q 1041 3584 769 3359 
L 244 3981 
Q 581 4269 803 4387 
Q 1025 4506 1287 4570 
Q 1550 4634 1875 4634 
Q 2303 4634 2631 4478 
Q 2959 4322 3140 4040 
Q 3322 3759 3322 3397 
Q 3322 3081 3211 2804 
Q 3100 2528 2867 2237 
Q 2634 1947 2047 1409 
L 1459 856 
L 1459 813 
L 3450 813 
L 3450 0 
z
" transform="scale(0.015625)"/>
        <path id="OpenSans-Bold-35" d="M 1919 2919 
Q 2581 2919 2973 2547 
Q 3366 2175 3366 1528 
Q 3366 763 2894 350 
Q 2422 -63 1544 -63 
Q 781 -63 313 184 
L 313 1019 
Q 559 888 887 805 
Q 1216 722 1509 722 
Q 2394 722 2394 1447 
Q 2394 2138 1478 2138 
Q 1313 2138 1113 2105 
Q 913 2072 788 2034 
L 403 2241 
L 575 4569 
L 3053 4569 
L 3053 3750 
L 1422 3750 
L 1338 2853 
L 1447 2875 
Q 1638 2919 1919 2919 
z
" transform="scale(0.015625)"/>
       </defs>
       <use xlink:href="#OpenSans-Bold-30"/>
       <use xlink:href="#OpenSans-Bold-33" transform="translate(57.080078 0)"/>
       <use xlink:href="#OpenSans-Bold-2f" transform="translate(114.160156 0)"/>
       <use xlink:href="#OpenSans-Bold-32" transform="translate(155.46875 0)"/>
       <use xlink:href="#OpenSans-Bold-30" transform="translate(212.548828 0)"/>
       <use xlink:href="#OpenSans-Bold-32" transform="translate(269.628906 0)"/>
       <use xlink:href="#OpenSans-Bold-35" transform="translate(326.708984 0)"/>
      </g>
     </g>
    </g>
    <g id="xtick_2">
     <g id="line2d_3">
      <path d="M 241.959593 585.333896 
L 241.959593 32.64 
" clip-path="url(#pada1e889cd)" style="fill: none; stroke: #cccccc; stroke-width: 0.8; stroke-linecap: round"/>
     </g>
     <g id="line2d_4"/>
     <g id="text_2">
      <!-- 04/2025 -->
      <g style="fill: #616161" transform="translate(225.534938 634.348371) rotate(-45) scale(0.14 -0.14)">
       <defs>
        <path id="OpenSans-Bold-34" d="M 3553 947 
L 3003 947 
L 3003 0 
L 2059 0 
L 2059 947 
L 109 947 
L 109 1619 
L 2113 4569 
L 3003 4569 
L 3003 1697 
L 3553 1697 
L 3553 947 
z
M 2059 1697 
L 2059 2472 
Q 2059 2666 2075 3034 
Q 2091 3403 2100 3463 
L 2075 3463 
Q 1959 3206 1797 2963 
L 959 1697 
L 2059 1697 
z
" transform="scale(0.015625)"/>
       </defs>
       <use xlink:href="#OpenSans-Bold-30"/>
       <use xlink:href="#OpenSans-Bold-34" transform="translate(57.080078 0)"/>
       <use xlink:href="#OpenSans-Bold-2f" transform="translate(114.160156 0)"/>
       <use xlink:href="#OpenSans-Bold-32" transform="translate(155.46875 0)"/>
       <use xlink:href="#OpenSans-Bold-30" transform="translate(212.548828 0)"/>
       <use xlink:href="#OpenSans-Bold-32" transform="translate(269.628906 0)"/>
       <use xlink:href="#OpenSans-Bold-35" transform="translate(326.708984 0)"/>
      </g>
     </g>
    </g>
    <g id="xtick_3">
     <g id="line2d_5">
      <path d="M 360.073878 585.333896 
L 360.073878 32.64 
" clip-path="url(#pada1e889cd)" style="fill: none; stroke: #cccccc; stroke-width: 0.8; stroke-linecap: round"/>
     </g>
     <g id="line2d_6"/>
     <g id="text_3">
      <!-- 05/2025 -->
      <g style="fill: #616161" transform="translate(343.649224 634.348371) rotate(-45) scale(0.14 -0.14)">
       <use xlink:href="#OpenSans-Bold-30"/>
       <use xlink:href="#OpenSans-Bold-35" transform="translate(57.080078 0)"/>
       <use xlink:href="#OpenSans-Bold-2f" transform="translate(114.160156 0)"/>
       <use xlink:href="#OpenSans-Bold-32" transform="translate(155.46875 0)"/>
       <use xlink:href="#OpenSans-Bold-30" transform="translate(212.548828 0)"/>
       <use xlink:href="#OpenSans-Bold-32" transform="translate(269.628906 0)"/>
       <use xlink:href="#OpenSans-Bold-35" transform="translate(326.708984 0)"/>
      </g>
     </g>
    </g>
    <g id="xtick_4">
     <g id="line2d_7">
      <path d="M 482.125307 585.333896 
L 482.125307 32.64 
" clip-path="url(#pada1e889cd)" style="fill: none; stroke: #cccccc; stroke-width: 0.8; stroke-linecap: round"/>
     </g>
     <g id="line2d_8"/>
     <g id="text_4">
      <!-- 06/2025 -->
      <g style="fill: #616161" transform="translate(465.700653 634.348371) rotate(-45) scale(0.14 -0.14)">
       <defs>
        <path id="OpenSans-Bold-36" d="M 225 1941 
Q 225 3297 798 3959 
Q 1372 4622 2516 4622 
Q 2906 4622 3128 4575 
L 3128 3803 
Q 2850 3866 2578 3866 
Q 2081 3866 1767 3716 
Q 1453 3566 1297 3272 
Q 1141 2978 1113 2438 
L 1153 2438 
Q 1463 2969 2144 2969 
Q 2756 2969 3103 2584 
Q 3450 2200 3450 1522 
Q 3450 791 3037 364 
Q 2625 -63 1894 -63 
Q 1388 -63 1011 171 
Q 634 406 429 856 
Q 225 1306 225 1941 
z
M 1875 709 
Q 2184 709 2350 917 
Q 2516 1125 2516 1509 
Q 2516 1844 2361 2036 
Q 2206 2228 1894 2228 
Q 1600 2228 1392 2037 
Q 1184 1847 1184 1594 
Q 1184 1222 1379 965 
Q 1575 709 1875 709 
z
" transform="scale(0.015625)"/>
       </defs>
       <use xlink:href="#OpenSans-Bold-30"/>
       <use xlink:href="#OpenSans-Bold-36" transform="translate(57.080078 0)"/>
       <use xlink:href="#OpenSans-Bold-2f" transform="translate(114.160156 0)"/>
       <use xlink:href="#OpenSans-Bold-32" transform="translate(155.46875 0)"/>
       <use xlink:href="#OpenSans-Bold-30" transform="translate(212.548828 0)"/>
       <use xlink:href="#OpenSans-Bold-32" transform="translate(269.628906 0)"/>
       <use xlink:href="#OpenSans-Bold-35" transform="translate(326.708984 0)"/>
      </g>
     </g>
    </g>
    <g id="xtick_5">
     <g id="line2d_9">
      <path d="M 600.239593 585.333896 
L 600.239593 32.64 
" clip-path="url(#pada1e889cd)" style="fill: none; stroke: #cccccc; stroke-width: 0.8; stroke-linecap: round"/>
     </g>
     <g id="line2d_10"/>
     <g id="text_5">
      <!-- 07/2025 -->
      <g style="fill: #616161" transform="translate(583.814938 634.348371) rotate(-45) scale(0.14 -0.14)">
       <defs>
        <path id="OpenSans-Bold-37" d="M 709 0 
L 2425 3750 
L 172 3750 
L 172 4563 
L 3450 4563 
L 3450 3956 
L 1722 0 
L 709 0 
z
" transform="scale(0.015625)"/>
       </defs>
       <use xlink:href="#OpenSans-Bold-30"/>
       <use xlink:href="#OpenSans-Bold-37" transform="translate(57.080078 0)"/>
       <use xlink:href="#OpenSans-Bold-2f" transform="translate(114.160156 0)"/>
       <use xlink:href="#OpenSans-Bold-32" transform="translate(155.46875 0)"/>
       <use xlink:href="#OpenSans-Bold-30" transform="translate(212.548828 0)"/>
       <use xlink:href="#OpenSans-Bold-32" transform="translate(269.628906 0)"/>
       <use xlink:href="#OpenSans-Bold-35" transform="translate(326.708984 0)"/>
      </g>
     </g>
    </g>
    <g id="xtick_6">
     <g id="line2d_11">
      <path d="M 722.291021 585.333896 
L 722.291021 32.64 
" clip-path="url(#pada1e889cd)" style="fill: none; stroke: #cccccc; stroke-width: 0.8; stroke-linecap: round"/>
     </g>
     <g id="line2d_12"/>
     <g id="text_6">
      <!-- 08/2025 -->
      <g style="fill: #616161" transform="translate(705.866367 634.348371) rotate(-45) scale(0.14 -0.14)">
       <defs>
        <path id="OpenSans-Bold-38" d="M 1831 4628 
Q 2488 4628 2889 4329 
Q 3291 4031 3291 3525 
Q 3291 3175 3097 2901 
Q 2903 2628 2472 2413 
Q 2984 2138 3207 1839 
Q 3431 1541 3431 1184 
Q 3431 622 2990 279 
Q 2550 -63 1831 -63 
Q 1081 -63 653 256 
Q 225 575 225 1159 
Q 225 1550 433 1853 
Q 641 2156 1100 2388 
Q 709 2634 537 2915 
Q 366 3197 366 3531 
Q 366 4022 772 4325 
Q 1178 4628 1831 4628 
z
M 1119 1216 
Q 1119 947 1306 797 
Q 1494 647 1819 647 
Q 2178 647 2356 801 
Q 2534 956 2534 1209 
Q 2534 1419 2357 1601 
Q 2181 1784 1784 1991 
Q 1119 1684 1119 1216 
z
M 1825 3922 
Q 1578 3922 1426 3795 
Q 1275 3669 1275 3456 
Q 1275 3269 1395 3120 
Q 1516 2972 1831 2816 
Q 2138 2959 2259 3109 
Q 2381 3259 2381 3456 
Q 2381 3672 2225 3797 
Q 2069 3922 1825 3922 
z
" transform="scale(0.015625)"/>
       </defs>
       <use xlink:href="#OpenSans-Bold-30"/>
       <use xlink:href="#OpenSans-Bold-38" transform="translate(57.080078 0)"/>
       <use xlink:href="#OpenSans-Bold-2f" transform="translate(114.160156 0)"/>
       <use xlink:href="#OpenSans-Bold-32" transform="translate(155.46875 0)"/>
       <use xlink:href="#OpenSans-Bold-30" transform="translate(212.548828 0)"/>
       <use xlink:href="#OpenSans-Bold-32" transform="translate(269.628906 0)"/>
       <use xlink:href="#OpenSans-Bold-35" transform="translate(326.708984 0)"/>
      </g>
     </g>
    </g>
    <g id="xtick_7">
     <g id="line2d_13">
      <path d="M 844.34245 585.333896 
L 844.34245 32.64 
" clip-path="url(#pada1e889cd)" style="fill: none; stroke: #cccccc; stroke-width: 0.8; stroke-linecap: round"/>
     </g>
     <g id="line2d_14"/>
     <g id="text_7">
      <!-- 09/2025 -->
      <g style="fill: #616161" transform="translate(827.917796 634.348371) rotate(-45) scale(0.14 -0.14)">
       <defs>
        <path id="OpenSans-Bold-39" d="M 3431 2619 
Q 3431 1269 2862 603 
Q 2294 -63 1141 -63 
Q 734 -63 525 -19 
L 525 756 
Q 788 691 1075 691 
Q 1559 691 1871 833 
Q 2184 975 2350 1279 
Q 2516 1584 2541 2119 
L 2503 2119 
Q 2322 1825 2084 1706 
Q 1847 1588 1491 1588 
Q 894 1588 550 1970 
Q 206 2353 206 3034 
Q 206 3769 623 4195 
Q 1041 4622 1759 4622 
Q 2266 4622 2645 4384 
Q 3025 4147 3228 3695 
Q 3431 3244 3431 2619 
z
M 1778 3847 
Q 1478 3847 1309 3640 
Q 1141 3434 1141 3047 
Q 1141 2716 1294 2522 
Q 1447 2328 1759 2328 
Q 2053 2328 2262 2520 
Q 2472 2713 2472 2963 
Q 2472 3334 2276 3590 
Q 2081 3847 1778 3847 
z
" transform="scale(0.015625)"/>
       </defs>
       <use xlink:href="#OpenSans-Bold-30"/>
       <use xlink:href="#OpenSans-Bold-39" transform="translate(57.080078 0)"/>
       <use xlink:href="#OpenSans-Bold-2f" transform="translate(114.160156 0)"/>
       <use xlink:href="#OpenSans-Bold-32" transform="translate(155.46875 0)"/>
       <use xlink:href="#OpenSans-Bold-30" transform="translate(212.548828 0)"/>
       <use xlink:href="#OpenSans-Bold-32" transform="translate(269.628906 0)"/>
       <use xlink:href="#OpenSans-Bold-35" transform="translate(326.708984 0)"/>
      </g>
     </g>
    </g>
    <g id="xtick_8">
     <g id="line2d_15">
      <path d="M 962.456736 585.333896 
L 962.456736 32.64 
" clip-path="url(#pada1e889cd)" style="fill: none; stroke: #cccccc; stroke-width: 0.8; stroke-linecap: round"/>
     </g>
     <g id="line2d_16"/>
     <g id="text_8">
      <!-- 10/2025 -->
      <g style="fill: #616161" transform="translate(946.032081 634.348371) rotate(-45) scale(0.14 -0.14)">
       <defs>
        <path id="OpenSans-Bold-31" d="M 2644 0 
L 1678 0 
L 1678 2644 
L 1688 3078 
L 1703 3553 
Q 1463 3313 1369 3238 
L 844 2816 
L 378 3397 
L 1850 4569 
L 2644 4569 
L 2644 0 
z
" transform="scale(0.015625)"/>
       </defs>
       <use xlink:href="#OpenSans-Bold-31"/>
       <use xlink:href="#OpenSans-Bold-30" transform="translate(57.080078 0)"/>
       <use xlink:href="#OpenSans-Bold-2f" transform="translate(114.160156 0)"/>
       <use xlink:href="#OpenSans-Bold-32" transform="translate(155.46875 0)"/>
       <use xlink:href="#OpenSans-Bold-30" transform="translate(212.548828 0)"/>
       <use xlink:href="#OpenSans-Bold-32" transform="translate(269.628906 0)"/>
       <use xlink:href="#OpenSans-Bold-35" transform="translate(326.708984 0)"/>
      </g>
     </g>
    </g>
    <g id="xtick_9">
     <g id="line2d_17">
      <path d="M 1084.508164 585.333896 
L 1084.508164 32.64 
" clip-path="url(#pada1e889cd)" style="fill: none; stroke: #cccccc; stroke-width: 0.8; stroke-linecap: round"/>
     </g>
     <g id="line2d_18"/>
     <g id="text_9">
      <!-- 11/2025 -->
      <g style="fill: #616161" transform="translate(1068.08351 634.348371) rotate(-45) scale(0.14 -0.14)">
       <use xlink:href="#OpenSans-Bold-31"/>
       <use xlink:href="#OpenSans-Bold-31" transform="translate(57.080078 0)"/>
       <use xlink:href="#OpenSans-Bold-2f" transform="translate(114.160156 0)"/>
       <use xlink:href="#OpenSans-Bold-32" transform="translate(155.46875 0)"/>
       <use xlink:href="#OpenSans-Bold-30" transform="translate(212.548828 0)"/>
       <use xlink:href="#OpenSans-Bold-32" transform="translate(269.628906 0)"/>
       <use xlink:href="#OpenSans-Bold-35" transform="translate(326.708984 0)"/>
      </g>
     </g>
    </g>
   </g>
   <g id="matplotlib.axis_2">
    <g id="ytick_1">
     <g id="line2d_19">
      <path d="M 66.36 585.333896 
L 1141.2 585.333896 
" clip-path="url(#pada1e889cd)" style="fill: none; stroke: #cccccc; stroke-width: 0.8; stroke-linecap: round"/>
     </g>
     <g id="line2d_20"/>
     <g id="text_10">
      <!-- 0k -->
      <g style="fill: #616161" transform="translate(46.186875 590.652802) scale(0.14 -0.14)">
       <defs>
        <path id="OpenSans-Bold-6b" d="M 1416 1900 
L 1831 2431 
L 2809 3494 
L 3884 3494 
L 2497 1978 
L 3969 0 
L 2869 0 
L 1863 1416 
L 1453 1088 
L 1453 0 
L 500 0 
L 500 4863 
L 1453 4863 
L 1453 2694 
L 1403 1900 
L 1416 1900 
z
" transform="scale(0.015625)"/>
       </defs>
       <use xlink:href="#OpenSans-Bold-30"/>
       <use xlink:href="#OpenSans-Bold-6b" transform="translate(57.080078 0)"/>
      </g>
     </g>
    </g>
    <g id="ytick_2">
     <g id="line2d_21">
      <path d="M 66.36 502.597221 
L 1141.2 502.597221 
" clip-path="url(#pada1e889cd)" style="fill: none; stroke: #cccccc; stroke-width: 0.8; stroke-linecap: round"/>
     </g>
     <g id="line2d_22"/>
     <g id="text_11">
      <!-- 50k -->
      <g style="fill: #616161" transform="translate(38.195937 507.916127) scale(0.14 -0.14)">
       <use xlink:href="#OpenSans-Bold-35"/>
       <use xlink:href="#OpenSans-Bold-30" transform="translate(57.080078 0)"/>
       <use xlink:href="#OpenSans-Bold-6b" transform="translate(114.160156 0)"/>
      </g>
     </g>
    </g>
    <g id="ytick_3">
     <g id="line2d_23">
      <path d="M 66.36 419.860546 
L 1141.2 419.860546 
" clip-path="url(#pada1e889cd)" style="fill: none; stroke: #cccccc; stroke-width: 0.8; stroke-linecap: round"/>
     </g>
     <g id="line2d_24"/>
     <g id="text_12">
      <!-- 100k -->
      <g style="fill: #616161" transform="translate(30.205 425.179452) scale(0.14 -0.14)">
       <use xlink:href="#OpenSans-Bold-31"/>
       <use xlink:href="#OpenSans-Bold-30" transform="translate(57.080078 0)"/>
       <use xlink:href="#OpenSans-Bold-30" transform="translate(114.160156 0)"/>
       <use xlink:href="#OpenSans-Bold-6b" transform="translate(171.240234 0)"/>
      </g>
     </g>
    </g>
    <g id="ytick_4">
     <g id="line2d_25">
      <path d="M 66.36 337.123871 
L 1141.2 337.123871 
" clip-path="url(#pada1e889cd)" style="fill: none; stroke: #cccccc; stroke-width: 0.8; stroke-linecap: round"/>
     </g>
     <g id="line2d_26"/>
     <g id="text_13">
      <!-- 150k -->
      <g style="fill: #616161" transform="translate(30.205 342.442777) scale(0.14 -0.14)">
       <use xlink:href="#OpenSans-Bold-31"/>
       <use xlink:href="#OpenSans-Bold-35" transform="translate(57.080078 0)"/>
       <use xlink:href="#OpenSans-Bold-30" transform="translate(114.160156 0)"/>
       <use xlink:href="#OpenSans-Bold-6b" transform="translate(171.240234 0)"/>
      </g>
     </g>
    </g>
    <g id="ytick_5">
     <g id="line2d_27">
      <path d="M 66.36 254.387196 
L 1141.2 254.387196 
" clip-path="url(#pada1e889cd)" style="fill: none; stroke: #cccccc; stroke-width: 0.8; stroke-linecap: round"/>
     </g>
     <g id="line2d_28"/>
     <g id="text_14">
      <!-- 200k -->
      <g style="fill: #616161" transform="translate(30.205 259.706102) scale(0.14 -0.14)">
       <use xlink:href="#OpenSans-Bold-32"/>
       <use xlink:href="#OpenSans-Bold-30" transform="translate(57.080078 0)"/>
       <use xlink:href="#OpenSans-Bold-30" transform="translate(114.160156 0)"/>
       <use xlink:href="#OpenSans-Bold-6b" transform="translate(171.240234 0)"/>
      </g>
     </g>
    </g>
    <g id="ytick_6">
     <g id="line2d_29">
      <path d="M 66.36 171.650521 
L 1141.2 171.650521 
" clip-path="url(#pada1e889cd)" style="fill: none; stroke: #cccccc; stroke-width: 0.8; stroke-linecap: round"/>
     </g>
     <g id="line2d_30"/>
     <g id="text_15">
      <!-- 250k -->
      <g style="fill: #616161" transform="translate(30.205 176.969427) scale(0.14 -0.14)">
       <use xlink:href="#OpenSans-Bold-32"/>
       <use xlink:href="#OpenSans-Bold-35" transform="translate(57.080078 0)"/>
       <use xlink:href="#OpenSans-Bold-30" transform="translate(114.160156 0)"/>
       <use xlink:href="#OpenSans-Bold-6b" transform="translate(171.240234 0)"/>
      </g>
     </g>
    </g>
    <g id="ytick_7">
     <g id="line2d_31">
      <path d="M 66.36 88.913846 
L 1141.2 88.913846 
" clip-path="url(#pada1e889cd)" style="fill: none; stroke: #cccccc; stroke-width: 0.8; stroke-linecap: round"/>
     </g>
     <g id="line2d_32"/>
     <g id="text_16">
      <!-- 300k -->
      <g style="fill: #616161" transform="translate(30.205 94.232752) scale(0.14 -0.14)">
       <use xlink:href="#OpenSans-Bold-33"/>
       <use xlink:href="#OpenSans-Bold-30" transform="translate(57.080078 0)"/>
       <use xlink:href="#OpenSans-Bold-30" transform="translate(114.160156 0)"/>
       <use xlink:href="#OpenSans-Bold-6b" transform="translate(171.240234 0)"/>
      </g>
     </g>
    </g>
    <g id="text_17">
     <!-- Devices -->
     <g style="fill: #616161" transform="translate(22.36 339.284448) rotate(-90) scale(0.16 -0.16)">
      <defs>
       <path id="OpenSans-Bold-44" d="M 4366 2328 
Q 4366 1200 3723 600 
Q 3081 0 1869 0 
L 575 0 
L 575 4569 
L 2009 4569 
Q 3128 4569 3747 3978 
Q 4366 3388 4366 2328 
z
M 3359 2303 
Q 3359 3775 2059 3775 
L 1544 3775 
L 1544 800 
L 1959 800 
Q 3359 800 3359 2303 
z
" transform="scale(0.015625)"/>
       <path id="OpenSans-Bold-65" d="M 1947 2881 
Q 1644 2881 1472 2689 
Q 1300 2497 1275 2144 
L 2613 2144 
Q 2606 2497 2428 2689 
Q 2250 2881 1947 2881 
z
M 2081 -63 
Q 1238 -63 763 403 
Q 288 869 288 1722 
Q 288 2600 727 3079 
Q 1166 3559 1941 3559 
Q 2681 3559 3093 3137 
Q 3506 2716 3506 1972 
L 3506 1509 
L 1253 1509 
Q 1269 1103 1494 875 
Q 1719 647 2125 647 
Q 2441 647 2722 712 
Q 3003 778 3309 922 
L 3309 184 
Q 3059 59 2775 -2 
Q 2491 -63 2081 -63 
z
" transform="scale(0.015625)"/>
       <path id="OpenSans-Bold-76" d="M 1331 0 
L 0 3494 
L 997 3494 
L 1672 1503 
Q 1784 1125 1813 788 
L 1831 788 
Q 1847 1088 1972 1503 
L 2644 3494 
L 3641 3494 
L 2309 0 
L 1331 0 
z
" transform="scale(0.015625)"/>
       <path id="OpenSans-Bold-69" d="M 459 4397 
Q 459 4863 978 4863 
Q 1497 4863 1497 4397 
Q 1497 4175 1367 4051 
Q 1238 3928 978 3928 
Q 459 3928 459 4397 
z
M 1453 0 
L 500 0 
L 500 3494 
L 1453 3494 
L 1453 0 
z
" transform="scale(0.015625)"/>
       <path id="OpenSans-Bold-63" d="M 1919 -63 
Q 288 -63 288 1728 
Q 288 2619 731 3089 
Q 1175 3559 2003 3559 
Q 2609 3559 3091 3322 
L 2809 2584 
Q 2584 2675 2390 2733 
Q 2197 2791 2003 2791 
Q 1259 2791 1259 1734 
Q 1259 709 2003 709 
Q 2278 709 2512 782 
Q 2747 856 2981 1013 
L 2981 197 
Q 2750 50 2514 -6 
Q 2278 -63 1919 -63 
z
" transform="scale(0.015625)"/>
       <path id="OpenSans-Bold-73" d="M 2938 1038 
Q 2938 500 2564 218 
Q 2191 -63 1447 -63 
Q 1066 -63 797 -11 
Q 528 41 294 141 
L 294 928 
Q 559 803 892 718 
Q 1225 634 1478 634 
Q 1997 634 1997 934 
Q 1997 1047 1928 1117 
Q 1859 1188 1690 1277 
Q 1522 1366 1241 1484 
Q 838 1653 648 1797 
Q 459 1941 373 2127 
Q 288 2313 288 2584 
Q 288 3050 648 3304 
Q 1009 3559 1672 3559 
Q 2303 3559 2900 3284 
L 2613 2597 
Q 2350 2709 2122 2781 
Q 1894 2853 1656 2853 
Q 1234 2853 1234 2625 
Q 1234 2497 1370 2403 
Q 1506 2309 1966 2125 
Q 2375 1959 2565 1815 
Q 2756 1672 2847 1484 
Q 2938 1297 2938 1038 
z
" transform="scale(0.015625)"/>
      </defs>
      <use xlink:href="#OpenSans-Bold-44"/>
      <use xlink:href="#OpenSans-Bold-65" transform="translate(74.023438 0)"/>
      <use xlink:href="#OpenSans-Bold-76" transform="translate(131.105469 0)"/>
      <use xlink:href="#OpenSans-Bold-69" transform="translate(187.990234 0)"/>
      <use xlink:href="#OpenSans-Bold-63" transform="translate(218.507812 0)"/>
      <use xlink:href="#OpenSans-Bold-65" transform="translate(269.923828 0)"/>
      <use xlink:href="#OpenSans-Bold-73" transform="translate(329.005859 0)"/>
     </g>
    </g>
   </g>
   <g id="line2d_33">
    <path d="M 68.725307 253.827896 
L 96.285307 255.289026 
L 123.845307 258.378413 
L 151.405307 260.036456 
L 178.965307 261.497586 
L 206.525307 253.134563 
L 234.085307 263.398875 
L 261.645307 260.046385 
L 289.205307 261.631619 
L 316.765307 111.047561 
L 344.325307 230.98761 
L 371.885307 279.903187 
L 399.445307 274.490553 
L 427.005307 232.294849 
L 454.565307 214.010044 
L 482.125307 224.759193 
L 509.685307 235.342868 
L 537.245307 256.480434 
L 564.805307 251.85049 
L 592.365307 257.129089 
L 647.485307 312.769503 
L 675.045307 269.395629 
L 702.605307 271.320084 
L 730.165307 272.417172 
L 757.725307 281.03006 
L 785.285307 273.194897 
L 812.845307 272.006798 
L 840.405307 271.192669 
L 867.965307 264.934467 
L 895.525307 262.200848 
L 923.085307 249.656313 
L 950.645307 257.542773 
L 978.205307 256.818 
L 1005.765307 257.033115 
L 1033.325307 257.213481 
L 1060.885307 255.990633 
L 1088.445307 58.751364 
L 1116.005307 191.760497 
" clip-path="url(#pada1e889cd)" style="fill: none; stroke: #0000ff; stroke-width: 5; stroke-linecap: round"/>
   </g>
   <g id="line2d_34">
    <path d="M 68.725307 401.737905 
L 96.285307 400.313179 
L 123.845307 398.190156 
L 151.405307 399.980578 
L 178.965307 395.636902 
L 206.525307 395.779209 
L 234.085307 400.597793 
L 261.645307 397.334659 
L 289.205307 394.241962 
L 316.765307 398.938096 
L 344.325307 394.088072 
L 371.885307 405.657968 
L 399.445307 398.10411 
L 427.005307 396.269011 
L 454.565307 394.367722 
L 482.125307 395.330777 
L 509.685307 398.082598 
L 537.245307 417.287435 
L 564.805307 407.780992 
L 592.365307 407.253132 
L 647.485307 444.959544 
L 675.045307 407.737968 
L 702.605307 406.036902 
L 730.165307 406.528358 
L 757.725307 409.293418 
L 785.285307 409.847754 
L 812.845307 404.908374 
L 840.405307 404.370586 
L 867.965307 403.905606 
L 895.525307 399.982233 
L 923.085307 395.486322 
L 950.645307 396.838239 
L 978.205307 398.823919 
L 1005.765307 396.475852 
L 1033.325307 399.823378 
L 1060.885307 393.10847 
L 1088.445307 390.826592 
L 1116.005307 388.369313 
" clip-path="url(#pada1e889cd)" style="fill: none; stroke: #ffc0cb; stroke-width: 5; stroke-linecap: round"/>
   </g>
   <g id="line2d_35">
    <path d="M 68.725307 507.935391 
L 96.285307 509.717539 
L 123.845307 510.761676 
L 151.405307 510.11633 
L 178.965307 510.007118 
L 206.525307 508.747866 
L 234.085307 509.792002 
L 261.645307 508.474835 
L 289.205307 508.375551 
L 316.765307 477.05641 
L 344.325307 491.781883 
L 371.885307 503.178033 
L 399.445307 501.414087 
L 427.005307 488.996966 
L 454.565307 475.155121 
L 482.125307 476.553371 
L 509.685307 479.967086 
L 537.245307 484.651636 
L 564.805307 478.601931 
L 592.365307 479.260515 
L 647.485307 495.463665 
L 675.045307 479.637794 
L 702.605307 480.892082 
L 730.165307 479.344906 
L 757.725307 481.484476 
L 785.285307 475.62341 
L 812.845307 477.149075 
L 840.405307 475.850109 
L 867.965307 475.227929 
L 895.525307 474.10271 
L 923.085307 464.985129 
L 950.645307 468.230061 
L 978.205307 467.968613 
L 1005.765307 466.497555 
L 1033.325307 462.751238 
L 1060.885307 458.726927 
L 1088.445307 417.656441 
L 1116.005307 440.983219 
" clip-path="url(#pada1e889cd)" style="fill: none; stroke: #008000; stroke-width: 5; stroke-linecap: round"/>
   </g>
   <g id="line2d_36">
    <path d="M 68.725307 499.494596 
L 96.285307 504.238717 
L 123.845307 505.721358 
L 151.405307 505.615455 
L 178.965307 505.090905 
L 206.525307 506.462679 
L 234.085307 507.432352 
L 261.645307 506.45606 
L 289.205307 509.247595 
L 316.765307 504.968454 
L 344.325307 505.249759 
L 371.885307 516.025383 
L 399.445307 514.076107 
L 427.005307 510.788152 
L 454.565307 510.705415 
L 482.125307 512.639799 
L 509.685307 513.103124 
L 537.245307 516.683967 
L 564.805307 515.523999 
L 592.365307 516.051859 
L 647.485307 530.830284 
L 675.045307 518.633243 
L 702.605307 518.949298 
L 730.165307 518.588566 
L 757.725307 522.133005 
L 785.285307 514.584111 
L 812.845307 519.081676 
L 840.405307 519.377874 
L 867.965307 519.303411 
L 895.525307 517.428597 
L 923.085307 513.261979 
L 950.645307 518.284095 
L 978.205307 517.574214 
L 1005.765307 519.291827 
L 1033.325307 520.23999 
L 1060.885307 518.067325 
L 1088.445307 514.643681 
L 1116.005307 518.285749 
" clip-path="url(#pada1e889cd)" style="fill: none; stroke: #ffa500; stroke-width: 5; stroke-linecap: round"/>
   </g>
   <g id="line2d_37">
    <path d="M 68.725307 575.205272 
L 96.285307 575.021597 
L 123.845307 575.296283 
L 151.405307 575.223474 
L 178.965307 575.192035 
L 206.525307 574.842886 
L 234.085307 575.382329 
L 261.645307 575.352544 
L 289.205307 575.069584 
L 316.765307 573.932782 
L 344.325307 574.94217 
L 371.885307 574.323299 
L 399.445307 574.511939 
L 427.005307 574.250491 
L 454.565307 574.372941 
L 482.125307 574.584747 
L 509.685307 573.530682 
L 537.245307 574.624461 
L 564.805307 574.073435 
L 592.365307 574.584747 
L 647.485307 575.776155 
L 675.045307 573.793785 
L 702.605307 574.295169 
L 730.165307 574.556617 
L 757.725307 574.113148 
L 785.285307 574.278622 
L 812.845307 573.653132 
L 840.405307 573.656442 
L 867.965307 573.904652 
L 895.525307 573.611764 
L 923.085307 573.502552 
L 950.645307 574.399417 
L 978.205307 574.361358 
L 1005.765307 573.626657 
L 1033.325307 573.813642 
L 1060.885307 573.629966 
L 1088.445307 572.529568 
L 1116.005307 573.211319 
" clip-path="url(#pada1e889cd)" style="fill: none; stroke: #99ddff; stroke-width: 5; stroke-linecap: round"/>
   </g>
   <g id="line2d_38">
    <path d="M 68.725307 580.978638 
L 96.285307 580.553371 
L 123.845307 580.267102 
L 151.405307 579.65816 
L 178.965307 579.491032 
L 206.525307 579.365272 
L 234.085307 579.514198 
L 261.645307 579.320595 
L 289.205307 579.252751 
L 316.765307 579.327214 
L 344.325307 579.305702 
L 371.885307 579.72435 
L 399.445307 579.188216 
L 427.005307 579.131955 
L 454.565307 579.173323 
L 482.125307 579.153467 
L 509.685307 579.093896 
L 537.245307 579.322249 
L 564.805307 579.075694 
L 592.365307 578.966482 
L 647.485307 580.263793 
L 675.045307 578.971446 
L 702.605307 579.418224 
L 730.165307 579.423188 
L 757.725307 579.529091 
L 785.285307 579.300738 
L 812.845307 579.486068 
L 840.405307 579.345416 
L 867.965307 579.512544 
L 895.525307 579.327214 
L 923.085307 579.386784 
L 950.645307 579.333832 
L 978.205307 579.44139 
L 1005.765307 579.355344 
L 1033.325307 579.325559 
L 1060.885307 579.262679 
L 1088.445307 579.219656 
L 1116.005307 579.160085 
" clip-path="url(#pada1e889cd)" style="fill: none; stroke: #ff0000; stroke-width: 5; stroke-linecap: round"/>
   </g>
   <g id="line2d_39">
    <path d="M 68.725307 580.142997 
L 96.285307 580.088391 
L 123.845307 580.665893 
L 151.405307 580.611287 
L 178.965307 580.275376 
L 206.525307 580.401136 
L 234.085307 580.626179 
L 261.645307 580.642727 
L 289.205307 580.487182 
L 316.765307 579.678017 
L 344.325307 580.411064 
L 371.885307 580.265447 
L 399.445307 580.419338 
L 427.005307 580.038749 
L 454.565307 580.369696 
L 482.125307 580.43423 
L 509.685307 579.505925 
L 537.245307 580.047023 
L 564.805307 579.317285 
L 592.365307 579.959322 
L 647.485307 580.358113 
L 675.045307 579.269298 
L 702.605307 579.565495 
L 730.165307 580.099974 
L 757.725307 579.782265 
L 785.285307 579.717731 
L 812.845307 579.390093 
L 840.405307 579.365272 
L 867.965307 579.588661 
L 895.525307 579.31894 
L 923.085307 579.47614 
L 950.645307 580.058606 
L 978.205307 580.222424 
L 1005.765307 579.912989 
L 1033.325307 579.659815 
L 1060.885307 579.285845 
L 1088.445307 578.847341 
L 1116.005307 579.443045 
" clip-path="url(#pada1e889cd)" style="fill: none; stroke: #eedd88; stroke-width: 5; stroke-linecap: round"/>
   </g>
   <g id="patch_3">
    <path d="M 66.36 585.333896 
L 66.36 32.64 
" style="fill: none"/>
   </g>
   <g id="patch_4">
    <path d="M 1141.2 585.333896 
L 1141.2 32.64 
" style="fill: none"/>
   </g>
   <g id="patch_5">
    <path d="M 66.36 585.333896 
L 1141.2 585.333896 
" style="fill: none"/>
   </g>
   <g id="patch_6">
    <path d="M 66.36 32.64 
L 1141.2 32.64 
" style="fill: none"/>
   </g>
   <g id="text_18">
    <!-- Active Users (Weekly) -->
    <g transform="translate(496.59875 26.64) scale(0.2 -0.2)">
     <defs>
      <path id="OpenSans-Bold-41" d="M 3372 0 
L 3041 1088 
L 1375 1088 
L 1044 0 
L 0 0 
L 1613 4588 
L 2797 4588 
L 4416 0 
L 3372 0 
z
M 2809 1900 
Q 2350 3378 2292 3572 
Q 2234 3766 2209 3878 
Q 2106 3478 1619 1900 
L 2809 1900 
z
" transform="scale(0.015625)"/>
      <path id="OpenSans-Bold-74" d="M 1972 697 
Q 2222 697 2572 806 
L 2572 97 
Q 2216 -63 1697 -63 
Q 1125 -63 864 226 
Q 603 516 603 1094 
L 603 2778 
L 147 2778 
L 147 3181 
L 672 3500 
L 947 4238 
L 1556 4238 
L 1556 3494 
L 2534 3494 
L 2534 2778 
L 1556 2778 
L 1556 1094 
Q 1556 891 1670 794 
Q 1784 697 1972 697 
z
" transform="scale(0.015625)"/>
      <path id="OpenSans-Bold-20" transform="scale(0.015625)"/>
      <path id="OpenSans-Bold-55" d="M 4294 4569 
L 4294 1613 
Q 4294 1106 4067 725 
Q 3841 344 3412 140 
Q 2984 -63 2400 -63 
Q 1519 -63 1031 389 
Q 544 841 544 1625 
L 544 4569 
L 1509 4569 
L 1509 1772 
Q 1509 1244 1721 997 
Q 1934 750 2425 750 
Q 2900 750 3114 998 
Q 3328 1247 3328 1778 
L 3328 4569 
L 4294 4569 
z
" transform="scale(0.015625)"/>
      <path id="OpenSans-Bold-72" d="M 2450 3559 
Q 2644 3559 2772 3531 
L 2700 2638 
Q 2584 2669 2419 2669 
Q 1963 2669 1708 2434 
Q 1453 2200 1453 1778 
L 1453 0 
L 500 0 
L 500 3494 
L 1222 3494 
L 1363 2906 
L 1409 2906 
Q 1572 3200 1848 3379 
Q 2125 3559 2450 3559 
z
" transform="scale(0.015625)"/>
      <path id="OpenSans-Bold-28" d="M 256 1753 
Q 256 2581 498 3303 
Q 741 4025 1197 4569 
L 1978 4569 
Q 1538 3966 1313 3244 
Q 1088 2522 1088 1759 
Q 1088 994 1317 280 
Q 1547 -434 1972 -1013 
L 1197 -1013 
Q 738 -481 497 228 
Q 256 938 256 1753 
z
" transform="scale(0.015625)"/>
      <path id="OpenSans-Bold-57" d="M 5025 0 
L 3922 0 
L 3303 2400 
Q 3269 2528 3186 2929 
Q 3103 3331 3091 3469 
Q 3072 3300 2997 2926 
Q 2922 2553 2881 2394 
L 2266 0 
L 1166 0 
L 0 4569 
L 953 4569 
L 1538 2075 
Q 1691 1384 1759 878 
Q 1778 1056 1845 1429 
Q 1913 1803 1972 2009 
L 2638 4569 
L 3553 4569 
L 4219 2009 
Q 4263 1838 4328 1484 
Q 4394 1131 4428 878 
Q 4459 1122 4528 1486 
Q 4597 1850 4653 2075 
L 5234 4569 
L 6188 4569 
L 5025 0 
z
" transform="scale(0.015625)"/>
      <path id="OpenSans-Bold-6c" d="M 1453 0 
L 500 0 
L 500 4863 
L 1453 4863 
L 1453 0 
z
" transform="scale(0.015625)"/>
      <path id="OpenSans-Bold-79" d="M 0 3494 
L 1044 3494 
L 1703 1528 
Q 1788 1272 1819 922 
L 1838 922 
Q 1872 1244 1972 1528 
L 2619 3494 
L 3641 3494 
L 2163 -447 
Q 1959 -994 1582 -1266 
Q 1206 -1538 703 -1538 
Q 456 -1538 219 -1484 
L 219 -728 
Q 391 -769 594 -769 
Q 847 -769 1036 -614 
Q 1225 -459 1331 -147 
L 1388 25 
L 0 3494 
z
" transform="scale(0.015625)"/>
      <path id="OpenSans-Bold-29" d="M 1913 1753 
Q 1913 931 1670 221 
Q 1428 -488 972 -1013 
L 197 -1013 
Q 619 -438 850 276 
Q 1081 991 1081 1759 
Q 1081 2522 856 3244 
Q 631 3966 191 4569 
L 972 4569 
Q 1431 4022 1672 3298 
Q 1913 2575 1913 1753 
z
" transform="scale(0.015625)"/>
     </defs>
     <use xlink:href="#OpenSans-Bold-41"/>
     <use xlink:href="#OpenSans-Bold-63" transform="translate(68.994141 0)"/>
     <use xlink:href="#OpenSans-Bold-74" transform="translate(120.410156 0)"/>
     <use xlink:href="#OpenSans-Bold-69" transform="translate(163.818359 0)"/>
     <use xlink:href="#OpenSans-Bold-76" transform="translate(194.335938 0)"/>
     <use xlink:href="#OpenSans-Bold-65" transform="translate(251.220703 0)"/>
     <use xlink:href="#OpenSans-Bold-20" transform="translate(310.302734 0)"/>
     <use xlink:href="#OpenSans-Bold-55" transform="translate(336.279297 0)"/>
     <use xlink:href="#OpenSans-Bold-73" transform="translate(411.865234 0)"/>
     <use xlink:href="#OpenSans-Bold-65" transform="translate(461.572266 0)"/>
     <use xlink:href="#OpenSans-Bold-72" transform="translate(520.654297 0)"/>
     <use xlink:href="#OpenSans-Bold-73" transform="translate(566.064453 0)"/>
     <use xlink:href="#OpenSans-Bold-20" transform="translate(615.771484 0)"/>
     <use xlink:href="#OpenSans-Bold-28" transform="translate(641.748047 0)"/>
     <use xlink:href="#OpenSans-Bold-57" transform="translate(675.634766 0)"/>
     <use xlink:href="#OpenSans-Bold-65" transform="translate(770.314453 0)"/>
     <use xlink:href="#OpenSans-Bold-65" transform="translate(829.396484 0)"/>
     <use xlink:href="#OpenSans-Bold-6b" transform="translate(888.478516 0)"/>
     <use xlink:href="#OpenSans-Bold-6c" transform="translate(950.490234 0)"/>
     <use xlink:href="#OpenSans-Bold-79" transform="translate(981.007812 0)"/>
     <use xlink:href="#OpenSans-Bold-29" transform="translate(1037.892578 0)"/>
    </g>
   </g>
   <g id="legend_1">
    <g id="line2d_40">
     <path d="M 80.76 53.5975 
L 96.76 53.5975 
L 112.76 53.5975 
" style="fill: none; stroke: #0000ff; stroke-width: 5; stroke-linecap: round"/>
    </g>
    <g id="text_19">
     <!-- Workstation (237.8k) -->
     <g style="fill: #616161" transform="translate(125.56 59.1975) scale(0.16 -0.16)">
      <defs>
       <path id="OpenSans-57" d="M 4616 0 
L 4091 0 
L 3169 3059 
Q 3103 3263 3022 3572 
Q 2941 3881 2938 3944 
Q 2869 3531 2719 3041 
L 1825 0 
L 1300 0 
L 84 4569 
L 647 4569 
L 1369 1747 
Q 1519 1153 1588 672 
Q 1672 1244 1838 1791 
L 2656 4569 
L 3219 4569 
L 4078 1766 
Q 4228 1281 4331 672 
Q 4391 1116 4556 1753 
L 5275 4569 
L 5838 4569 
L 4616 0 
z
" transform="scale(0.015625)"/>
       <path id="OpenSans-6f" d="M 3506 1716 
Q 3506 878 3084 407 
Q 2663 -63 1919 -63 
Q 1459 -63 1103 153 
Q 747 369 553 772 
Q 359 1175 359 1716 
Q 359 2553 778 3020 
Q 1197 3488 1941 3488 
Q 2659 3488 3082 3009 
Q 3506 2531 3506 1716 
z
M 897 1716 
Q 897 1059 1159 715 
Q 1422 372 1931 372 
Q 2441 372 2705 714 
Q 2969 1056 2969 1716 
Q 2969 2369 2705 2708 
Q 2441 3047 1925 3047 
Q 1416 3047 1156 2712 
Q 897 2378 897 1716 
z
" transform="scale(0.015625)"/>
       <path id="OpenSans-72" d="M 2113 3488 
Q 2341 3488 2522 3450 
L 2450 2969 
Q 2238 3016 2075 3016 
Q 1659 3016 1364 2678 
Q 1069 2341 1069 1838 
L 1069 0 
L 550 0 
L 550 3425 
L 978 3425 
L 1038 2791 
L 1063 2791 
Q 1253 3125 1522 3306 
Q 1791 3488 2113 3488 
z
" transform="scale(0.015625)"/>
       <path id="OpenSans-6b" d="M 1063 1753 
Q 1197 1944 1472 2253 
L 2578 3425 
L 3194 3425 
L 1806 1966 
L 3291 0 
L 2663 0 
L 1453 1619 
L 1063 1281 
L 1063 0 
L 550 0 
L 550 4863 
L 1063 4863 
L 1063 2284 
Q 1063 2113 1038 1753 
L 1063 1753 
z
" transform="scale(0.015625)"/>
       <path id="OpenSans-73" d="M 2759 934 
Q 2759 456 2403 196 
Q 2047 -63 1403 -63 
Q 722 -63 341 153 
L 341 634 
Q 588 509 870 437 
Q 1153 366 1416 366 
Q 1822 366 2040 495 
Q 2259 625 2259 891 
Q 2259 1091 2086 1233 
Q 1913 1375 1409 1569 
Q 931 1747 729 1880 
Q 528 2013 429 2181 
Q 331 2350 331 2584 
Q 331 3003 672 3245 
Q 1013 3488 1606 3488 
Q 2159 3488 2688 3263 
L 2503 2841 
Q 1988 3053 1569 3053 
Q 1200 3053 1012 2937 
Q 825 2822 825 2619 
Q 825 2481 895 2384 
Q 966 2288 1122 2200 
Q 1278 2113 1722 1947 
Q 2331 1725 2545 1500 
Q 2759 1275 2759 934 
z
" transform="scale(0.015625)"/>
       <path id="OpenSans-74" d="M 1656 366 
Q 1794 366 1922 386 
Q 2050 406 2125 428 
L 2125 31 
Q 2041 -9 1877 -36 
Q 1713 -63 1581 -63 
Q 588 -63 588 984 
L 588 3022 
L 97 3022 
L 97 3272 
L 588 3488 
L 806 4219 
L 1106 4219 
L 1106 3425 
L 2100 3425 
L 2100 3022 
L 1106 3022 
L 1106 1006 
Q 1106 697 1253 531 
Q 1400 366 1656 366 
z
" transform="scale(0.015625)"/>
       <path id="OpenSans-61" d="M 2656 0 
L 2553 488 
L 2528 488 
Q 2272 166 2017 51 
Q 1763 -63 1381 -63 
Q 872 -63 583 200 
Q 294 463 294 947 
Q 294 1984 1953 2034 
L 2534 2053 
L 2534 2266 
Q 2534 2669 2361 2861 
Q 2188 3053 1806 3053 
Q 1378 3053 838 2791 
L 678 3188 
Q 931 3325 1232 3403 
Q 1534 3481 1838 3481 
Q 2450 3481 2745 3209 
Q 3041 2938 3041 2338 
L 3041 0 
L 2656 0 
z
M 1484 366 
Q 1969 366 2245 631 
Q 2522 897 2522 1375 
L 2522 1684 
L 2003 1663 
Q 1384 1641 1111 1470 
Q 838 1300 838 941 
Q 838 659 1008 512 
Q 1178 366 1484 366 
z
" transform="scale(0.015625)"/>
       <path id="OpenSans-69" d="M 1069 0 
L 550 0 
L 550 3425 
L 1069 3425 
L 1069 0 
z
M 506 4353 
Q 506 4531 593 4614 
Q 681 4697 813 4697 
Q 938 4697 1028 4612 
Q 1119 4528 1119 4353 
Q 1119 4178 1028 4092 
Q 938 4006 813 4006 
Q 681 4006 593 4092 
Q 506 4178 506 4353 
z
" transform="scale(0.015625)"/>
       <path id="OpenSans-6e" d="M 2894 0 
L 2894 2216 
Q 2894 2634 2703 2840 
Q 2513 3047 2106 3047 
Q 1569 3047 1319 2756 
Q 1069 2466 1069 1797 
L 1069 0 
L 550 0 
L 550 3425 
L 972 3425 
L 1056 2956 
L 1081 2956 
Q 1241 3209 1528 3348 
Q 1816 3488 2169 3488 
Q 2788 3488 3100 3189 
Q 3413 2891 3413 2234 
L 3413 0 
L 2894 0 
z
" transform="scale(0.015625)"/>
       <path id="OpenSans-20" transform="scale(0.015625)"/>
       <path id="OpenSans-28" d="M 256 1753 
Q 256 2581 498 3303 
Q 741 4025 1197 4569 
L 1703 4569 
Q 1253 3966 1026 3244 
Q 800 2522 800 1759 
Q 800 1009 1031 293 
Q 1263 -422 1697 -1013 
L 1197 -1013 
Q 738 -481 497 228 
Q 256 938 256 1753 
z
" transform="scale(0.015625)"/>
       <path id="OpenSans-32" d="M 3316 0 
L 313 0 
L 313 447 
L 1516 1656 
Q 2066 2213 2241 2450 
Q 2416 2688 2503 2913 
Q 2591 3138 2591 3397 
Q 2591 3763 2369 3977 
Q 2147 4191 1753 4191 
Q 1469 4191 1214 4097 
Q 959 4003 647 3756 
L 372 4109 
Q 1003 4634 1747 4634 
Q 2391 4634 2756 4304 
Q 3122 3975 3122 3419 
Q 3122 2984 2878 2559 
Q 2634 2134 1966 1484 
L 966 506 
L 966 481 
L 3316 481 
L 3316 0 
z
" transform="scale(0.015625)"/>
       <path id="OpenSans-33" d="M 3144 3494 
Q 3144 3056 2898 2778 
Q 2653 2500 2203 2406 
L 2203 2381 
Q 2753 2313 3018 2031 
Q 3284 1750 3284 1294 
Q 3284 641 2831 289 
Q 2378 -63 1544 -63 
Q 1181 -63 879 -8 
Q 578 47 294 184 
L 294 678 
Q 591 531 927 454 
Q 1263 378 1563 378 
Q 2747 378 2747 1306 
Q 2747 2138 1441 2138 
L 991 2138 
L 991 2584 
L 1447 2584 
Q 1981 2584 2293 2820 
Q 2606 3056 2606 3475 
Q 2606 3809 2376 4000 
Q 2147 4191 1753 4191 
Q 1453 4191 1187 4109 
Q 922 4028 581 3809 
L 319 4159 
Q 600 4381 967 4507 
Q 1334 4634 1741 4634 
Q 2406 4634 2775 4329 
Q 3144 4025 3144 3494 
z
" transform="scale(0.015625)"/>
       <path id="OpenSans-37" d="M 891 0 
L 2784 4091 
L 294 4091 
L 294 4569 
L 3334 4569 
L 3334 4153 
L 1466 0 
L 891 0 
z
" transform="scale(0.015625)"/>
       <path id="OpenSans-2e" d="M 475 331 
Q 475 541 570 648 
Q 666 756 844 756 
Q 1025 756 1126 648 
Q 1228 541 1228 331 
Q 1228 128 1125 18 
Q 1022 -91 844 -91 
Q 684 -91 579 7 
Q 475 106 475 331 
z
" transform="scale(0.015625)"/>
       <path id="OpenSans-38" d="M 1825 4634 
Q 2450 4634 2815 4343 
Q 3181 4053 3181 3541 
Q 3181 3203 2972 2925 
Q 2763 2647 2303 2419 
Q 2859 2153 3093 1861 
Q 3328 1569 3328 1184 
Q 3328 616 2931 276 
Q 2534 -63 1844 -63 
Q 1113 -63 719 257 
Q 325 578 325 1166 
Q 325 1950 1281 2388 
Q 850 2631 662 2914 
Q 475 3197 475 3547 
Q 475 4044 842 4339 
Q 1209 4634 1825 4634 
z
M 838 1153 
Q 838 778 1098 568 
Q 1359 359 1831 359 
Q 2297 359 2556 578 
Q 2816 797 2816 1178 
Q 2816 1481 2572 1717 
Q 2328 1953 1722 2175 
Q 1256 1975 1047 1733 
Q 838 1491 838 1153 
z
M 1819 4213 
Q 1428 4213 1206 4025 
Q 984 3838 984 3525 
Q 984 3238 1168 3031 
Q 1353 2825 1850 2619 
Q 2297 2806 2483 3022 
Q 2669 3238 2669 3525 
Q 2669 3841 2442 4027 
Q 2216 4213 1819 4213 
z
" transform="scale(0.015625)"/>
       <path id="OpenSans-29" d="M 1638 1753 
Q 1638 931 1395 221 
Q 1153 -488 697 -1013 
L 197 -1013 
Q 631 -425 862 292 
Q 1094 1009 1094 1759 
Q 1094 2522 867 3244 
Q 641 3966 191 4569 
L 697 4569 
Q 1156 4022 1397 3298 
Q 1638 2575 1638 1753 
z
" transform="scale(0.015625)"/>
      </defs>
      <use xlink:href="#OpenSans-57"/>
      <use xlink:href="#OpenSans-6f" transform="translate(90.578125 0)"/>
      <use xlink:href="#OpenSans-72" transform="translate(150.978516 0)"/>
      <use xlink:href="#OpenSans-6b" transform="translate(191.798828 0)"/>
      <use xlink:href="#OpenSans-73" transform="translate(244.289062 0)"/>
      <use xlink:href="#OpenSans-74" transform="translate(291.994141 0)"/>
      <use xlink:href="#OpenSans-61" transform="translate(327.296875 0)"/>
      <use xlink:href="#OpenSans-74" transform="translate(382.912109 0)"/>
      <use xlink:href="#OpenSans-69" transform="translate(418.214844 0)"/>
      <use xlink:href="#OpenSans-6f" transform="translate(443.507812 0)"/>
      <use xlink:href="#OpenSans-6e" transform="translate(503.908203 0)"/>
      <use xlink:href="#OpenSans-20" transform="translate(565.285156 0)"/>
      <use xlink:href="#OpenSans-28" transform="translate(591.261719 0)"/>
      <use xlink:href="#OpenSans-32" transform="translate(620.851562 0)"/>
      <use xlink:href="#OpenSans-33" transform="translate(678.029297 0)"/>
      <use xlink:href="#OpenSans-37" transform="translate(735.207031 0)"/>
      <use xlink:href="#OpenSans-2e" transform="translate(792.384766 0)"/>
      <use xlink:href="#OpenSans-38" transform="translate(818.996094 0)"/>
      <use xlink:href="#OpenSans-6b" transform="translate(876.173828 0)"/>
      <use xlink:href="#OpenSans-29" transform="translate(928.664062 0)"/>
     </g>
    </g>
    <g id="line2d_41">
     <path d="M 80.76 77.6 
L 96.76 77.6 
L 112.76 77.6 
" style="fill: none; stroke: #ffc0cb; stroke-width: 5; stroke-linecap: round"/>
    </g>
    <g id="text_20">
     <!-- CoreOS (119.0k) -->
     <g style="fill: #616161" transform="translate(125.56 83.2) scale(0.16 -0.16)">
      <defs>
       <path id="OpenSans-43" d="M 2584 4159 
Q 1831 4159 1395 3657 
Q 959 3156 959 2284 
Q 959 1388 1379 898 
Q 1800 409 2578 409 
Q 3056 409 3669 581 
L 3669 116 
Q 3194 -63 2497 -63 
Q 1488 -63 939 550 
Q 391 1163 391 2291 
Q 391 2997 655 3528 
Q 919 4059 1417 4346 
Q 1916 4634 2591 4634 
Q 3309 4634 3847 4372 
L 3622 3916 
Q 3103 4159 2584 4159 
z
" transform="scale(0.015625)"/>
       <path id="OpenSans-65" d="M 1997 -63 
Q 1238 -63 798 400 
Q 359 863 359 1684 
Q 359 2513 767 3000 
Q 1175 3488 1863 3488 
Q 2506 3488 2881 3064 
Q 3256 2641 3256 1947 
L 3256 1619 
L 897 1619 
Q 913 1016 1202 703 
Q 1491 391 2016 391 
Q 2569 391 3109 622 
L 3109 159 
Q 2834 41 2589 -11 
Q 2344 -63 1997 -63 
z
M 1856 3053 
Q 1444 3053 1198 2784 
Q 953 2516 909 2041 
L 2700 2041 
Q 2700 2531 2481 2792 
Q 2263 3053 1856 3053 
z
" transform="scale(0.015625)"/>
       <path id="OpenSans-4f" d="M 4594 2291 
Q 4594 1194 4039 565 
Q 3484 -63 2497 -63 
Q 1488 -63 939 554 
Q 391 1172 391 2297 
Q 391 3413 941 4027 
Q 1491 4641 2503 4641 
Q 3488 4641 4041 4016 
Q 4594 3391 4594 2291 
z
M 953 2291 
Q 953 1363 1348 883 
Q 1744 403 2497 403 
Q 3256 403 3643 881 
Q 4031 1359 4031 2291 
Q 4031 3213 3645 3689 
Q 3259 4166 2503 4166 
Q 1744 4166 1348 3686 
Q 953 3206 953 2291 
z
" transform="scale(0.015625)"/>
       <path id="OpenSans-53" d="M 3206 1216 
Q 3206 613 2768 275 
Q 2331 -63 1581 -63 
Q 769 -63 331 147 
L 331 659 
Q 613 541 944 472 
Q 1275 403 1600 403 
Q 2131 403 2400 604 
Q 2669 806 2669 1166 
Q 2669 1403 2573 1554 
Q 2478 1706 2254 1834 
Q 2031 1963 1575 2125 
Q 938 2353 664 2665 
Q 391 2978 391 3481 
Q 391 4009 787 4321 
Q 1184 4634 1838 4634 
Q 2519 4634 3091 4384 
L 2925 3922 
Q 2359 4159 1825 4159 
Q 1403 4159 1165 3978 
Q 928 3797 928 3475 
Q 928 3238 1015 3086 
Q 1103 2934 1311 2807 
Q 1519 2681 1947 2528 
Q 2666 2272 2936 1978 
Q 3206 1684 3206 1216 
z
" transform="scale(0.015625)"/>
       <path id="OpenSans-31" d="M 2234 0 
L 1728 0 
L 1728 3256 
Q 1728 3663 1753 4025 
Q 1688 3959 1606 3887 
Q 1525 3816 863 3278 
L 588 3634 
L 1797 4569 
L 2234 4569 
L 2234 0 
z
" transform="scale(0.015625)"/>
       <path id="OpenSans-39" d="M 3316 2619 
Q 3316 -63 1241 -63 
Q 878 -63 666 0 
L 666 447 
Q 916 366 1234 366 
Q 1984 366 2367 830 
Q 2750 1294 2784 2253 
L 2747 2253 
Q 2575 1994 2290 1858 
Q 2006 1722 1650 1722 
Q 1044 1722 687 2084 
Q 331 2447 331 3097 
Q 331 3809 729 4221 
Q 1128 4634 1778 4634 
Q 2244 4634 2592 4395 
Q 2941 4156 3128 3698 
Q 3316 3241 3316 2619 
z
M 1778 4191 
Q 1331 4191 1087 3903 
Q 844 3616 844 3103 
Q 844 2653 1069 2395 
Q 1294 2138 1753 2138 
Q 2038 2138 2277 2253 
Q 2516 2369 2653 2569 
Q 2791 2769 2791 2988 
Q 2791 3316 2662 3594 
Q 2534 3872 2304 4031 
Q 2075 4191 1778 4191 
z
" transform="scale(0.015625)"/>
       <path id="OpenSans-30" d="M 3341 2291 
Q 3341 1106 2967 521 
Q 2594 -63 1825 -63 
Q 1088 -63 703 535 
Q 319 1134 319 2291 
Q 319 3484 691 4062 
Q 1063 4641 1825 4641 
Q 2569 4641 2955 4037 
Q 3341 3434 3341 2291 
z
M 844 2291 
Q 844 1294 1078 839 
Q 1313 384 1825 384 
Q 2344 384 2576 845 
Q 2809 1306 2809 2291 
Q 2809 3275 2576 3733 
Q 2344 4191 1825 4191 
Q 1313 4191 1078 3739 
Q 844 3288 844 2291 
z
" transform="scale(0.015625)"/>
      </defs>
      <use xlink:href="#OpenSans-43"/>
      <use xlink:href="#OpenSans-6f" transform="translate(63.085938 0)"/>
      <use xlink:href="#OpenSans-72" transform="translate(123.486328 0)"/>
      <use xlink:href="#OpenSans-65" transform="translate(162.306641 0)"/>
      <use xlink:href="#OpenSans-4f" transform="translate(218.410156 0)"/>
      <use xlink:href="#OpenSans-53" transform="translate(296.291016 0)"/>
      <use xlink:href="#OpenSans-20" transform="translate(351.173828 0)"/>
      <use xlink:href="#OpenSans-28" transform="translate(377.150391 0)"/>
      <use xlink:href="#OpenSans-31" transform="translate(406.740234 0)"/>
      <use xlink:href="#OpenSans-31" transform="translate(463.917969 0)"/>
      <use xlink:href="#OpenSans-39" transform="translate(521.095703 0)"/>
      <use xlink:href="#OpenSans-2e" transform="translate(578.273438 0)"/>
      <use xlink:href="#OpenSans-30" transform="translate(604.884766 0)"/>
      <use xlink:href="#OpenSans-6b" transform="translate(662.0625 0)"/>
      <use xlink:href="#OpenSans-29" transform="translate(714.552734 0)"/>
     </g>
    </g>
    <g id="line2d_42">
     <path d="M 80.76 101.6025 
L 96.76 101.6025 
L 112.76 101.6025 
" style="fill: none; stroke: #008000; stroke-width: 5; stroke-linecap: round"/>
    </g>
    <g id="text_21">
     <!-- KDE (87.2k) -->
     <g style="fill: #616161" transform="translate(125.56 107.2025) scale(0.16 -0.16)">
      <defs>
       <path id="OpenSans-4b" d="M 3928 0 
L 3303 0 
L 1638 2216 
L 1159 1791 
L 1159 0 
L 628 0 
L 628 4569 
L 1159 4569 
L 1159 2303 
L 3231 4569 
L 3859 4569 
L 2022 2584 
L 3928 0 
z
" transform="scale(0.015625)"/>
       <path id="OpenSans-44" d="M 4275 2328 
Q 4275 1197 3661 598 
Q 3047 0 1894 0 
L 628 0 
L 628 4569 
L 2028 4569 
Q 3094 4569 3684 3978 
Q 4275 3388 4275 2328 
z
M 3713 2309 
Q 3713 3203 3264 3656 
Q 2816 4109 1931 4109 
L 1159 4109 
L 1159 459 
L 1806 459 
Q 2756 459 3234 926 
Q 3713 1394 3713 2309 
z
" transform="scale(0.015625)"/>
       <path id="OpenSans-45" d="M 3175 0 
L 628 0 
L 628 4569 
L 3175 4569 
L 3175 4097 
L 1159 4097 
L 1159 2625 
L 3053 2625 
L 3053 2156 
L 1159 2156 
L 1159 475 
L 3175 475 
L 3175 0 
z
" transform="scale(0.015625)"/>
      </defs>
      <use xlink:href="#OpenSans-4b"/>
      <use xlink:href="#OpenSans-44" transform="translate(61.376953 0)"/>
      <use xlink:href="#OpenSans-45" transform="translate(134.277344 0)"/>
      <use xlink:href="#OpenSans-20" transform="translate(189.892578 0)"/>
      <use xlink:href="#OpenSans-28" transform="translate(215.869141 0)"/>
      <use xlink:href="#OpenSans-38" transform="translate(245.458984 0)"/>
      <use xlink:href="#OpenSans-37" transform="translate(302.636719 0)"/>
      <use xlink:href="#OpenSans-2e" transform="translate(359.814453 0)"/>
      <use xlink:href="#OpenSans-32" transform="translate(386.425781 0)"/>
      <use xlink:href="#OpenSans-6b" transform="translate(443.603516 0)"/>
      <use xlink:href="#OpenSans-29" transform="translate(496.09375 0)"/>
     </g>
    </g>
    <g id="line2d_43">
     <path d="M 80.76 125.605 
L 96.76 125.605 
L 112.76 125.605 
" style="fill: none; stroke: #ffa500; stroke-width: 5; stroke-linecap: round"/>
    </g>
    <g id="text_22">
     <!-- Server (40.5k) -->
     <g style="fill: #616161" transform="translate(125.56 131.205) scale(0.16 -0.16)">
      <defs>
       <path id="OpenSans-76" d="M 1300 0 
L 0 3425 
L 556 3425 
L 1294 1394 
Q 1544 681 1588 469 
L 1613 469 
Q 1647 634 1830 1154 
Q 2013 1675 2650 3425 
L 3206 3425 
L 1906 0 
L 1300 0 
z
" transform="scale(0.015625)"/>
       <path id="OpenSans-34" d="M 3531 1050 
L 2853 1050 
L 2853 0 
L 2356 0 
L 2356 1050 
L 134 1050 
L 134 1503 
L 2303 4594 
L 2853 4594 
L 2853 1522 
L 3531 1522 
L 3531 1050 
z
M 2356 1522 
L 2356 3041 
Q 2356 3488 2388 4050 
L 2363 4050 
Q 2213 3750 2081 3553 
L 653 1522 
L 2356 1522 
z
" transform="scale(0.015625)"/>
       <path id="OpenSans-35" d="M 1741 2791 
Q 2463 2791 2877 2433 
Q 3291 2075 3291 1453 
Q 3291 744 2839 340 
Q 2388 -63 1594 -63 
Q 822 -63 416 184 
L 416 684 
Q 634 544 959 464 
Q 1284 384 1600 384 
Q 2150 384 2454 643 
Q 2759 903 2759 1394 
Q 2759 2350 1588 2350 
Q 1291 2350 794 2259 
L 525 2431 
L 697 4569 
L 2969 4569 
L 2969 4091 
L 1141 4091 
L 1025 2719 
Q 1384 2791 1741 2791 
z
" transform="scale(0.015625)"/>
      </defs>
      <use xlink:href="#OpenSans-53"/>
      <use xlink:href="#OpenSans-65" transform="translate(54.882812 0)"/>
      <use xlink:href="#OpenSans-72" transform="translate(110.986328 0)"/>
      <use xlink:href="#OpenSans-76" transform="translate(151.806641 0)"/>
      <use xlink:href="#OpenSans-65" transform="translate(201.904297 0)"/>
      <use xlink:href="#OpenSans-72" transform="translate(258.007812 0)"/>
      <use xlink:href="#OpenSans-20" transform="translate(298.828125 0)"/>
      <use xlink:href="#OpenSans-28" transform="translate(324.804688 0)"/>
      <use xlink:href="#OpenSans-34" transform="translate(354.394531 0)"/>
      <use xlink:href="#OpenSans-30" transform="translate(411.572266 0)"/>
      <use xlink:href="#OpenSans-2e" transform="translate(468.75 0)"/>
      <use xlink:href="#OpenSans-35" transform="translate(495.361328 0)"/>
      <use xlink:href="#OpenSans-6b" transform="translate(552.539062 0)"/>
      <use xlink:href="#OpenSans-29" transform="translate(605.029297 0)"/>
     </g>
    </g>
    <g id="line2d_44">
     <path d="M 80.76 149.6075 
L 96.76 149.6075 
L 112.76 149.6075 
" style="fill: none; stroke: #99ddff; stroke-width: 5; stroke-linecap: round"/>
    </g>
    <g id="text_23">
     <!-- Silverblue (7.3k) -->
     <g style="fill: #616161" transform="translate(125.56 155.2075) scale(0.16 -0.16)">
      <defs>
       <path id="OpenSans-6c" d="M 1069 0 
L 550 0 
L 550 4863 
L 1069 4863 
L 1069 0 
z
" transform="scale(0.015625)"/>
       <path id="OpenSans-62" d="M 2144 3481 
Q 2819 3481 3192 3020 
Q 3566 2559 3566 1716 
Q 3566 872 3189 404 
Q 2813 -63 2144 -63 
Q 1809 -63 1532 60 
Q 1256 184 1069 441 
L 1031 441 
L 922 0 
L 550 0 
L 550 4863 
L 1069 4863 
L 1069 3681 
Q 1069 3284 1044 2969 
L 1069 2969 
Q 1431 3481 2144 3481 
z
M 2069 3047 
Q 1538 3047 1303 2742 
Q 1069 2438 1069 1716 
Q 1069 994 1309 683 
Q 1550 372 2081 372 
Q 2559 372 2793 720 
Q 3028 1069 3028 1722 
Q 3028 2391 2793 2719 
Q 2559 3047 2069 3047 
z
" transform="scale(0.015625)"/>
       <path id="OpenSans-75" d="M 1038 3425 
L 1038 1203 
Q 1038 784 1228 578 
Q 1419 372 1825 372 
Q 2363 372 2611 665 
Q 2859 959 2859 1625 
L 2859 3425 
L 3378 3425 
L 3378 0 
L 2950 0 
L 2875 459 
L 2847 459 
Q 2688 206 2405 71 
Q 2122 -63 1759 -63 
Q 1134 -63 823 234 
Q 513 531 513 1184 
L 513 3425 
L 1038 3425 
z
" transform="scale(0.015625)"/>
      </defs>
      <use xlink:href="#OpenSans-53"/>
      <use xlink:href="#OpenSans-69" transform="translate(54.882812 0)"/>
      <use xlink:href="#OpenSans-6c" transform="translate(80.175781 0)"/>
      <use xlink:href="#OpenSans-76" transform="translate(105.46875 0)"/>
      <use xlink:href="#OpenSans-65" transform="translate(155.566406 0)"/>
      <use xlink:href="#OpenSans-72" transform="translate(211.669922 0)"/>
      <use xlink:href="#OpenSans-62" transform="translate(252.490234 0)"/>
      <use xlink:href="#OpenSans-6c" transform="translate(313.769531 0)"/>
      <use xlink:href="#OpenSans-75" transform="translate(339.0625 0)"/>
      <use xlink:href="#OpenSans-65" transform="translate(400.439453 0)"/>
      <use xlink:href="#OpenSans-20" transform="translate(456.542969 0)"/>
      <use xlink:href="#OpenSans-28" transform="translate(482.519531 0)"/>
      <use xlink:href="#OpenSans-37" transform="translate(512.109375 0)"/>
      <use xlink:href="#OpenSans-2e" transform="translate(569.287109 0)"/>
      <use xlink:href="#OpenSans-33" transform="translate(595.898438 0)"/>
      <use xlink:href="#OpenSans-6b" transform="translate(653.076172 0)"/>
      <use xlink:href="#OpenSans-29" transform="translate(705.566406 0)"/>
     </g>
    </g>
    <g id="line2d_45">
     <path d="M 80.76 173.61 
L 96.76 173.61 
L 112.76 173.61 
" style="fill: none; stroke: #ff0000; stroke-width: 5; stroke-linecap: round"/>
    </g>
    <g id="text_24">
     <!-- IoT (3.7k) -->
     <g style="fill: #616161" transform="translate(125.56 179.21) scale(0.16 -0.16)">
      <defs>
       <path id="OpenSans-49" d="M 628 0 
L 628 4569 
L 1159 4569 
L 1159 0 
L 628 0 
z
" transform="scale(0.015625)"/>
       <path id="OpenSans-54" d="M 2034 0 
L 1503 0 
L 1503 4097 
L 56 4097 
L 56 4569 
L 3481 4569 
L 3481 4097 
L 2034 4097 
L 2034 0 
z
" transform="scale(0.015625)"/>
      </defs>
      <use xlink:href="#OpenSans-49"/>
      <use xlink:href="#OpenSans-6f" transform="translate(27.880859 0)"/>
      <use xlink:href="#OpenSans-54" transform="translate(88.28125 0)"/>
      <use xlink:href="#OpenSans-20" transform="translate(143.603516 0)"/>
      <use xlink:href="#OpenSans-28" transform="translate(169.580078 0)"/>
      <use xlink:href="#OpenSans-33" transform="translate(199.169922 0)"/>
      <use xlink:href="#OpenSans-2e" transform="translate(256.347656 0)"/>
      <use xlink:href="#OpenSans-37" transform="translate(282.958984 0)"/>
      <use xlink:href="#OpenSans-6b" transform="translate(340.136719 0)"/>
      <use xlink:href="#OpenSans-29" transform="translate(392.626953 0)"/>
     </g>
    </g>
    <g id="line2d_46">
     <path d="M 80.76 197.6125 
L 96.76 197.6125 
L 112.76 197.6125 
" style="fill: none; stroke: #eedd88; stroke-width: 5; stroke-linecap: round"/>
    </g>
    <g id="text_25">
     <!-- Kinoite (3.6k) -->
     <g style="fill: #616161" transform="translate(125.56 203.2125) scale(0.16 -0.16)">
      <defs>
       <path id="OpenSans-36" d="M 366 1953 
Q 366 3300 889 3967 
Q 1413 4634 2438 4634 
Q 2791 4634 2994 4575 
L 2994 4128 
Q 2753 4206 2444 4206 
Q 1709 4206 1321 3748 
Q 934 3291 897 2309 
L 934 2309 
Q 1278 2847 2022 2847 
Q 2638 2847 2992 2475 
Q 3347 2103 3347 1466 
Q 3347 753 2958 345 
Q 2569 -63 1906 -63 
Q 1197 -63 781 470 
Q 366 1003 366 1953 
z
M 1900 378 
Q 2344 378 2589 658 
Q 2834 938 2834 1466 
Q 2834 1919 2606 2178 
Q 2378 2438 1925 2438 
Q 1644 2438 1409 2322 
Q 1175 2206 1036 2003 
Q 897 1800 897 1581 
Q 897 1259 1022 981 
Q 1147 703 1376 540 
Q 1606 378 1900 378 
z
" transform="scale(0.015625)"/>
      </defs>
      <use xlink:href="#OpenSans-4b"/>
      <use xlink:href="#OpenSans-69" transform="translate(61.376953 0)"/>
      <use xlink:href="#OpenSans-6e" transform="translate(86.669922 0)"/>
      <use xlink:href="#OpenSans-6f" transform="translate(148.046875 0)"/>
      <use xlink:href="#OpenSans-69" transform="translate(208.447266 0)"/>
      <use xlink:href="#OpenSans-74" transform="translate(233.740234 0)"/>
      <use xlink:href="#OpenSans-65" transform="translate(269.042969 0)"/>
      <use xlink:href="#OpenSans-20" transform="translate(325.146484 0)"/>
      <use xlink:href="#OpenSans-28" transform="translate(351.123047 0)"/>
      <use xlink:href="#OpenSans-33" transform="translate(380.712891 0)"/>
      <use xlink:href="#OpenSans-2e" transform="translate(437.890625 0)"/>
      <use xlink:href="#OpenSans-36" transform="translate(464.501953 0)"/>
      <use xlink:href="#OpenSans-6b" transform="translate(521.679688 0)"/>
      <use xlink:href="#OpenSans-29" transform="translate(574.169922 0)"/>
     </g>
    </g>
   </g>
  </g>
 </g>
 <defs>
  <clipPath id="pada1e889cd">
   <rect x="66.36" y="32.64" width="1074.84" height="552.693896"/>
  </clipPath>
 </defs>
</svg>
