<?xml version="1.0" encoding="utf-8" standalone="no"?>
<!DOCTYPE svg PUBLIC "-//W3C//DTD SVG 1.1//EN"
  "http://www.w3.org/Graphics/SVG/1.1/DTD/svg11.dtd">
<svg xmlns:xlink="http://www.w3.org/1999/xlink" width="1152pt" height="648pt" viewBox="0 0 1152 648" xmlns="http://www.w3.org/2000/svg" version="1.1">
 <metadata>
  <rdf:RDF xmlns:dc="http://purl.org/dc/elements/1.1/" xmlns:cc="http://creativecommons.org/ns#" xmlns:rdf="http://www.w3.org/1999/02/22-rdf-syntax-ns#">
   <cc:Work>
    <dc:type rdf:resource="http://purl.org/dc/dcmitype/StillImage"/>
    <dc:date>2025-07-19T00:14:40.166402</dc:date>
    <dc:format>image/svg+xml</dc:format>
    <dc:creator>
     <cc:Agent>
      <dc:title>Matplotlib v3.10.1, https://matplotlib.org/</dc:title>
     </cc:Agent>
    </dc:creator>
   </cc:Work>
  </rdf:RDF>
 </metadata>
 <defs>
  <style type="text/css">*{stroke-linejoin: round; stroke-linecap: butt}</style>
 </defs>
 <g id="figure_1">
  <g id="patch_1">
   <path d="M 0 648 
L 1152 648 
L 1152 0 
L 0 0 
z
" style="fill: #ffffff"/>
  </g>
  <g id="axes_1">
   <g id="patch_2">
    <path d="M 56.82 589.343192 
L 1141.2 589.343192 
L 1141.2 31.2 
L 56.82 31.2 
z
" style="fill: #ffffff"/>
   </g>
   <g id="matplotlib.axis_1">
    <g id="xtick_1">
     <g id="line2d_1">
      <path d="M 108.41672 589.343192 
L 108.41672 31.2 
" clip-path="url(#pe9f58be670)" style="fill: none; stroke: #cccccc; stroke-width: 0.8; stroke-linecap: round"/>
     </g>
     <g id="line2d_2"/>
     <g id="text_1">
      <!-- 11/2024 -->
      <g style="fill: #616161" transform="translate(93.358661 635.253247) rotate(-45) scale(0.14 -0.14)">
       <defs>
        <path id="LiberationSans-Bold-31" d="M 403 0 
L 403 653 
L 1494 653 
L 1494 3656 
L 438 2997 
L 438 3688 
L 1541 4403 
L 2372 4403 
L 2372 653 
L 3381 653 
L 3381 0 
L 403 0 
z
" transform="scale(0.015625)"/>
        <path id="LiberationSans-Bold-2f" d="M 63 -128 
L 972 4638 
L 1716 4638 
L 822 -128 
L 63 -128 
z
" transform="scale(0.015625)"/>
        <path id="LiberationSans-Bold-32" d="M 222 0 
L 222 609 
Q 394 988 711 1347 
Q 1028 1706 1509 2097 
Q 1972 2472 2158 2715 
Q 2344 2959 2344 3194 
Q 2344 3769 1766 3769 
Q 1484 3769 1336 3617 
Q 1188 3466 1144 3163 
L 259 3213 
Q 334 3825 717 4147 
Q 1100 4469 1759 4469 
Q 2472 4469 2853 4144 
Q 3234 3819 3234 3231 
Q 3234 2922 3112 2672 
Q 2991 2422 2800 2211 
Q 2609 2000 2376 1815 
Q 2144 1631 1925 1456 
Q 1706 1281 1526 1103 
Q 1347 925 1259 722 
L 3303 722 
L 3303 0 
L 222 0 
z
" transform="scale(0.015625)"/>
        <path id="LiberationSans-Bold-30" d="M 3297 2203 
Q 3297 1088 2914 512 
Q 2531 -63 1766 -63 
Q 253 -63 253 2203 
Q 253 2994 418 3494 
Q 584 3994 915 4231 
Q 1247 4469 1791 4469 
Q 2572 4469 2934 3903 
Q 3297 3338 3297 2203 
z
M 2416 2203 
Q 2416 2813 2356 3150 
Q 2297 3488 2165 3634 
Q 2034 3781 1784 3781 
Q 1519 3781 1383 3632 
Q 1247 3484 1189 3148 
Q 1131 2813 1131 2203 
Q 1131 1600 1192 1261 
Q 1253 922 1386 775 
Q 1519 628 1772 628 
Q 2022 628 2158 783 
Q 2294 938 2355 1278 
Q 2416 1619 2416 2203 
z
" transform="scale(0.015625)"/>
        <path id="LiberationSans-Bold-34" d="M 2938 897 
L 2938 0 
L 2100 0 
L 2100 897 
L 97 897 
L 97 1556 
L 1956 4403 
L 2938 4403 
L 2938 1550 
L 3525 1550 
L 3525 897 
L 2938 897 
z
M 2100 2991 
Q 2100 3159 2111 3356 
Q 2122 3553 2128 3609 
Q 2047 3434 1834 3103 
L 813 1550 
L 2100 1550 
L 2100 2991 
z
" transform="scale(0.015625)"/>
       </defs>
       <use xlink:href="#LiberationSans-Bold-31"/>
       <use xlink:href="#LiberationSans-Bold-31" transform="translate(50.115234 0)"/>
       <use xlink:href="#LiberationSans-Bold-2f" transform="translate(105.730469 0)"/>
       <use xlink:href="#LiberationSans-Bold-32" transform="translate(133.513672 0)"/>
       <use xlink:href="#LiberationSans-Bold-30" transform="translate(189.128906 0)"/>
       <use xlink:href="#LiberationSans-Bold-32" transform="translate(244.744141 0)"/>
       <use xlink:href="#LiberationSans-Bold-34" transform="translate(300.359375 0)"/>
      </g>
     </g>
    </g>
    <g id="xtick_2">
     <g id="line2d_3">
      <path d="M 227.579358 589.343192 
L 227.579358 31.2 
" clip-path="url(#pe9f58be670)" style="fill: none; stroke: #cccccc; stroke-width: 0.8; stroke-linecap: round"/>
     </g>
     <g id="line2d_4"/>
     <g id="text_2">
      <!-- 12/2024 -->
      <g style="fill: #616161" transform="translate(212.249062 635.797719) rotate(-45) scale(0.14 -0.14)">
       <use xlink:href="#LiberationSans-Bold-31"/>
       <use xlink:href="#LiberationSans-Bold-32" transform="translate(55.615234 0)"/>
       <use xlink:href="#LiberationSans-Bold-2f" transform="translate(111.230469 0)"/>
       <use xlink:href="#LiberationSans-Bold-32" transform="translate(139.013672 0)"/>
       <use xlink:href="#LiberationSans-Bold-30" transform="translate(194.628906 0)"/>
       <use xlink:href="#LiberationSans-Bold-32" transform="translate(250.244141 0)"/>
       <use xlink:href="#LiberationSans-Bold-34" transform="translate(305.859375 0)"/>
      </g>
     </g>
    </g>
    <g id="xtick_3">
     <g id="line2d_5">
      <path d="M 350.714083 589.343192 
L 350.714083 31.2 
" clip-path="url(#pe9f58be670)" style="fill: none; stroke: #cccccc; stroke-width: 0.8; stroke-linecap: round"/>
     </g>
     <g id="line2d_6"/>
     <g id="text_3">
      <!-- 01/2025 -->
      <g style="fill: #616161" transform="translate(335.383787 635.797719) rotate(-45) scale(0.14 -0.14)">
       <defs>
        <path id="LiberationSans-Bold-35" d="M 3381 1466 
Q 3381 766 2945 351 
Q 2509 -63 1750 -63 
Q 1088 -63 689 235 
Q 291 534 197 1100 
L 1075 1172 
Q 1144 891 1319 762 
Q 1494 634 1759 634 
Q 2088 634 2283 843 
Q 2478 1053 2478 1447 
Q 2478 1794 2293 2001 
Q 2109 2209 1778 2209 
Q 1413 2209 1181 1925 
L 325 1925 
L 478 4403 
L 3125 4403 
L 3125 3750 
L 1275 3750 
L 1203 2638 
Q 1522 2919 2000 2919 
Q 2628 2919 3004 2528 
Q 3381 2138 3381 1466 
z
" transform="scale(0.015625)"/>
       </defs>
       <use xlink:href="#LiberationSans-Bold-30"/>
       <use xlink:href="#LiberationSans-Bold-31" transform="translate(55.615234 0)"/>
       <use xlink:href="#LiberationSans-Bold-2f" transform="translate(111.230469 0)"/>
       <use xlink:href="#LiberationSans-Bold-32" transform="translate(139.013672 0)"/>
       <use xlink:href="#LiberationSans-Bold-30" transform="translate(194.628906 0)"/>
       <use xlink:href="#LiberationSans-Bold-32" transform="translate(250.244141 0)"/>
       <use xlink:href="#LiberationSans-Bold-35" transform="translate(305.859375 0)"/>
      </g>
     </g>
    </g>
    <g id="xtick_4">
     <g id="line2d_7">
      <path d="M 473.848808 589.343192 
L 473.848808 31.2 
" clip-path="url(#pe9f58be670)" style="fill: none; stroke: #cccccc; stroke-width: 0.8; stroke-linecap: round"/>
     </g>
     <g id="line2d_8"/>
     <g id="text_4">
      <!-- 02/2025 -->
      <g style="fill: #616161" transform="translate(458.518512 635.797719) rotate(-45) scale(0.14 -0.14)">
       <use xlink:href="#LiberationSans-Bold-30"/>
       <use xlink:href="#LiberationSans-Bold-32" transform="translate(55.615234 0)"/>
       <use xlink:href="#LiberationSans-Bold-2f" transform="translate(111.230469 0)"/>
       <use xlink:href="#LiberationSans-Bold-32" transform="translate(139.013672 0)"/>
       <use xlink:href="#LiberationSans-Bold-30" transform="translate(194.628906 0)"/>
       <use xlink:href="#LiberationSans-Bold-32" transform="translate(250.244141 0)"/>
       <use xlink:href="#LiberationSans-Bold-35" transform="translate(305.859375 0)"/>
      </g>
     </g>
    </g>
    <g id="xtick_5">
     <g id="line2d_9">
      <path d="M 585.06727 589.343192 
L 585.06727 31.2 
" clip-path="url(#pe9f58be670)" style="fill: none; stroke: #cccccc; stroke-width: 0.8; stroke-linecap: round"/>
     </g>
     <g id="line2d_10"/>
     <g id="text_5">
      <!-- 03/2025 -->
      <g style="fill: #616161" transform="translate(569.736974 635.797719) rotate(-45) scale(0.14 -0.14)">
       <defs>
        <path id="LiberationSans-Bold-33" d="M 3328 1222 
Q 3328 603 2922 265 
Q 2516 -72 1766 -72 
Q 1056 -72 637 254 
Q 219 581 147 1197 
L 1041 1275 
Q 1125 641 1763 641 
Q 2078 641 2253 797 
Q 2428 953 2428 1275 
Q 2428 1569 2215 1725 
Q 2003 1881 1584 1881 
L 1278 1881 
L 1278 2591 
L 1566 2591 
Q 1944 2591 2134 2745 
Q 2325 2900 2325 3188 
Q 2325 3459 2173 3614 
Q 2022 3769 1731 3769 
Q 1459 3769 1292 3619 
Q 1125 3469 1100 3194 
L 222 3256 
Q 291 3825 694 4147 
Q 1097 4469 1747 4469 
Q 2438 4469 2827 4158 
Q 3216 3847 3216 3297 
Q 3216 2884 2973 2618 
Q 2731 2353 2275 2266 
L 2275 2253 
Q 2781 2194 3054 1920 
Q 3328 1647 3328 1222 
z
" transform="scale(0.015625)"/>
       </defs>
       <use xlink:href="#LiberationSans-Bold-30"/>
       <use xlink:href="#LiberationSans-Bold-33" transform="translate(55.615234 0)"/>
       <use xlink:href="#LiberationSans-Bold-2f" transform="translate(111.230469 0)"/>
       <use xlink:href="#LiberationSans-Bold-32" transform="translate(139.013672 0)"/>
       <use xlink:href="#LiberationSans-Bold-30" transform="translate(194.628906 0)"/>
       <use xlink:href="#LiberationSans-Bold-32" transform="translate(250.244141 0)"/>
       <use xlink:href="#LiberationSans-Bold-35" transform="translate(305.859375 0)"/>
      </g>
     </g>
    </g>
    <g id="xtick_6">
     <g id="line2d_11">
      <path d="M 708.201995 589.343192 
L 708.201995 31.2 
" clip-path="url(#pe9f58be670)" style="fill: none; stroke: #cccccc; stroke-width: 0.8; stroke-linecap: round"/>
     </g>
     <g id="line2d_12"/>
     <g id="text_6">
      <!-- 04/2025 -->
      <g style="fill: #616161" transform="translate(692.871699 635.797719) rotate(-45) scale(0.14 -0.14)">
       <use xlink:href="#LiberationSans-Bold-30"/>
       <use xlink:href="#LiberationSans-Bold-34" transform="translate(55.615234 0)"/>
       <use xlink:href="#LiberationSans-Bold-2f" transform="translate(111.230469 0)"/>
       <use xlink:href="#LiberationSans-Bold-32" transform="translate(139.013672 0)"/>
       <use xlink:href="#LiberationSans-Bold-30" transform="translate(194.628906 0)"/>
       <use xlink:href="#LiberationSans-Bold-32" transform="translate(250.244141 0)"/>
       <use xlink:href="#LiberationSans-Bold-35" transform="translate(305.859375 0)"/>
      </g>
     </g>
    </g>
    <g id="xtick_7">
     <g id="line2d_13">
      <path d="M 827.364633 589.343192 
L 827.364633 31.2 
" clip-path="url(#pe9f58be670)" style="fill: none; stroke: #cccccc; stroke-width: 0.8; stroke-linecap: round"/>
     </g>
     <g id="line2d_14"/>
     <g id="text_7">
      <!-- 05/2025 -->
      <g style="fill: #616161" transform="translate(812.034337 635.797719) rotate(-45) scale(0.14 -0.14)">
       <use xlink:href="#LiberationSans-Bold-30"/>
       <use xlink:href="#LiberationSans-Bold-35" transform="translate(55.615234 0)"/>
       <use xlink:href="#LiberationSans-Bold-2f" transform="translate(111.230469 0)"/>
       <use xlink:href="#LiberationSans-Bold-32" transform="translate(139.013672 0)"/>
       <use xlink:href="#LiberationSans-Bold-30" transform="translate(194.628906 0)"/>
       <use xlink:href="#LiberationSans-Bold-32" transform="translate(250.244141 0)"/>
       <use xlink:href="#LiberationSans-Bold-35" transform="translate(305.859375 0)"/>
      </g>
     </g>
    </g>
    <g id="xtick_8">
     <g id="line2d_15">
      <path d="M 950.499358 589.343192 
L 950.499358 31.2 
" clip-path="url(#pe9f58be670)" style="fill: none; stroke: #cccccc; stroke-width: 0.8; stroke-linecap: round"/>
     </g>
     <g id="line2d_16"/>
     <g id="text_8">
      <!-- 06/2025 -->
      <g style="fill: #616161" transform="translate(935.169062 635.797719) rotate(-45) scale(0.14 -0.14)">
       <defs>
        <path id="LiberationSans-Bold-36" d="M 3328 1441 
Q 3328 738 2934 337 
Q 2541 -63 1847 -63 
Q 1069 -63 651 482 
Q 234 1028 234 2100 
Q 234 3278 657 3873 
Q 1081 4469 1869 4469 
Q 2428 4469 2751 4222 
Q 3075 3975 3209 3456 
L 2381 3341 
Q 2263 3775 1850 3775 
Q 1497 3775 1295 3422 
Q 1094 3069 1094 2350 
Q 1234 2584 1484 2709 
Q 1734 2834 2050 2834 
Q 2641 2834 2984 2459 
Q 3328 2084 3328 1441 
z
M 2447 1416 
Q 2447 1791 2273 1989 
Q 2100 2188 1797 2188 
Q 1506 2188 1331 2002 
Q 1156 1816 1156 1509 
Q 1156 1125 1339 873 
Q 1522 622 1819 622 
Q 2116 622 2281 833 
Q 2447 1044 2447 1416 
z
" transform="scale(0.015625)"/>
       </defs>
       <use xlink:href="#LiberationSans-Bold-30"/>
       <use xlink:href="#LiberationSans-Bold-36" transform="translate(55.615234 0)"/>
       <use xlink:href="#LiberationSans-Bold-2f" transform="translate(111.230469 0)"/>
       <use xlink:href="#LiberationSans-Bold-32" transform="translate(139.013672 0)"/>
       <use xlink:href="#LiberationSans-Bold-30" transform="translate(194.628906 0)"/>
       <use xlink:href="#LiberationSans-Bold-32" transform="translate(250.244141 0)"/>
       <use xlink:href="#LiberationSans-Bold-35" transform="translate(305.859375 0)"/>
      </g>
     </g>
    </g>
    <g id="xtick_9">
     <g id="line2d_17">
      <path d="M 1069.661995 589.343192 
L 1069.661995 31.2 
" clip-path="url(#pe9f58be670)" style="fill: none; stroke: #cccccc; stroke-width: 0.8; stroke-linecap: round"/>
     </g>
     <g id="line2d_18"/>
     <g id="text_9">
      <!-- 07/2025 -->
      <g style="fill: #616161" transform="translate(1054.331699 635.797719) rotate(-45) scale(0.14 -0.14)">
       <defs>
        <path id="LiberationSans-Bold-37" d="M 3278 3706 
Q 2981 3238 2717 2797 
Q 2453 2356 2256 1911 
Q 2059 1466 1945 995 
Q 1831 525 1831 0 
L 916 0 
Q 916 550 1059 1064 
Q 1203 1578 1475 2111 
Q 1747 2644 2463 3681 
L 275 3681 
L 275 4403 
L 3278 4403 
L 3278 3706 
z
" transform="scale(0.015625)"/>
       </defs>
       <use xlink:href="#LiberationSans-Bold-30"/>
       <use xlink:href="#LiberationSans-Bold-37" transform="translate(55.615234 0)"/>
       <use xlink:href="#LiberationSans-Bold-2f" transform="translate(111.230469 0)"/>
       <use xlink:href="#LiberationSans-Bold-32" transform="translate(139.013672 0)"/>
       <use xlink:href="#LiberationSans-Bold-30" transform="translate(194.628906 0)"/>
       <use xlink:href="#LiberationSans-Bold-32" transform="translate(250.244141 0)"/>
       <use xlink:href="#LiberationSans-Bold-35" transform="translate(305.859375 0)"/>
      </g>
     </g>
    </g>
   </g>
   <g id="matplotlib.axis_2">
    <g id="ytick_1">
     <g id="line2d_19">
      <path d="M 56.82 589.343192 
L 1141.2 589.343192 
" clip-path="url(#pe9f58be670)" style="fill: none; stroke: #cccccc; stroke-width: 0.8; stroke-linecap: round"/>
     </g>
     <g id="line2d_20"/>
     <g id="text_10">
      <!-- 0k -->
      <g style="fill: #616161" transform="translate(37.749375 594.416004) scale(0.14 -0.14)">
       <defs>
        <path id="LiberationSans-Bold-6b" d="M 2606 0 
L 1703 1531 
L 1325 1269 
L 1325 0 
L 447 0 
L 447 4638 
L 1325 4638 
L 1325 1981 
L 2531 3381 
L 3475 3381 
L 2288 2063 
L 3566 0 
L 2606 0 
z
" transform="scale(0.015625)"/>
       </defs>
       <use xlink:href="#LiberationSans-Bold-30"/>
       <use xlink:href="#LiberationSans-Bold-6b" transform="translate(55.615234 0)"/>
      </g>
     </g>
    </g>
    <g id="ytick_2">
     <g id="line2d_21">
      <path d="M 56.82 468.848818 
L 1141.2 468.848818 
" clip-path="url(#pe9f58be670)" style="fill: none; stroke: #cccccc; stroke-width: 0.8; stroke-linecap: round"/>
     </g>
     <g id="line2d_22"/>
     <g id="text_11">
      <!-- 5k -->
      <g style="fill: #616161" transform="translate(37.749375 473.921631) scale(0.14 -0.14)">
       <use xlink:href="#LiberationSans-Bold-35"/>
       <use xlink:href="#LiberationSans-Bold-6b" transform="translate(55.615234 0)"/>
      </g>
     </g>
    </g>
    <g id="ytick_3">
     <g id="line2d_23">
      <path d="M 56.82 348.354445 
L 1141.2 348.354445 
" clip-path="url(#pe9f58be670)" style="fill: none; stroke: #cccccc; stroke-width: 0.8; stroke-linecap: round"/>
     </g>
     <g id="line2d_24"/>
     <g id="text_12">
      <!-- 10k -->
      <g style="fill: #616161" transform="translate(29.964062 353.427257) scale(0.14 -0.14)">
       <use xlink:href="#LiberationSans-Bold-31"/>
       <use xlink:href="#LiberationSans-Bold-30" transform="translate(55.615234 0)"/>
       <use xlink:href="#LiberationSans-Bold-6b" transform="translate(111.230469 0)"/>
      </g>
     </g>
    </g>
    <g id="ytick_4">
     <g id="line2d_25">
      <path d="M 56.82 227.860072 
L 1141.2 227.860072 
" clip-path="url(#pe9f58be670)" style="fill: none; stroke: #cccccc; stroke-width: 0.8; stroke-linecap: round"/>
     </g>
     <g id="line2d_26"/>
     <g id="text_13">
      <!-- 15k -->
      <g style="fill: #616161" transform="translate(29.964062 232.932884) scale(0.14 -0.14)">
       <use xlink:href="#LiberationSans-Bold-31"/>
       <use xlink:href="#LiberationSans-Bold-35" transform="translate(55.615234 0)"/>
       <use xlink:href="#LiberationSans-Bold-6b" transform="translate(111.230469 0)"/>
      </g>
     </g>
    </g>
    <g id="ytick_5">
     <g id="line2d_27">
      <path d="M 56.82 107.365698 
L 1141.2 107.365698 
" clip-path="url(#pe9f58be670)" style="fill: none; stroke: #cccccc; stroke-width: 0.8; stroke-linecap: round"/>
     </g>
     <g id="line2d_28"/>
     <g id="text_14">
      <!-- 20k -->
      <g style="fill: #616161" transform="translate(29.964062 112.438511) scale(0.14 -0.14)">
       <use xlink:href="#LiberationSans-Bold-32"/>
       <use xlink:href="#LiberationSans-Bold-30" transform="translate(55.615234 0)"/>
       <use xlink:href="#LiberationSans-Bold-6b" transform="translate(111.230469 0)"/>
      </g>
     </g>
    </g>
    <g id="text_15">
     <!-- Devices -->
     <g style="fill: #616161" transform="translate(22.644062 340.515346) rotate(-90) scale(0.16 -0.16)">
      <defs>
       <path id="LiberationSans-Bold-44" d="M 4353 2234 
Q 4353 1553 4086 1045 
Q 3819 538 3330 269 
Q 2841 0 2209 0 
L 428 0 
L 428 4403 
L 2022 4403 
Q 3134 4403 3743 3842 
Q 4353 3281 4353 2234 
z
M 3425 2234 
Q 3425 2944 3056 3317 
Q 2688 3691 2003 3691 
L 1350 3691 
L 1350 713 
L 2131 713 
Q 2725 713 3075 1122 
Q 3425 1531 3425 2234 
z
" transform="scale(0.015625)"/>
       <path id="LiberationSans-Bold-65" d="M 1831 -63 
Q 1069 -63 659 389 
Q 250 841 250 1706 
Q 250 2544 665 2994 
Q 1081 3444 1844 3444 
Q 2572 3444 2956 2961 
Q 3341 2478 3341 1547 
L 3341 1522 
L 1172 1522 
Q 1172 1028 1355 776 
Q 1538 525 1875 525 
Q 2341 525 2463 928 
L 3291 856 
Q 2931 -63 1831 -63 
z
M 1831 2891 
Q 1522 2891 1355 2675 
Q 1188 2459 1178 2072 
L 2491 2072 
Q 2466 2481 2294 2686 
Q 2122 2891 1831 2891 
z
" transform="scale(0.015625)"/>
       <path id="LiberationSans-Bold-76" d="M 2284 0 
L 1234 0 
L 25 3381 
L 953 3381 
L 1544 1491 
Q 1591 1334 1766 709 
Q 1797 838 1894 1159 
Q 1991 1481 2613 3381 
L 3531 3381 
L 2284 0 
z
" transform="scale(0.015625)"/>
       <path id="LiberationSans-Bold-69" d="M 447 3991 
L 447 4638 
L 1325 4638 
L 1325 3991 
L 447 3991 
z
M 447 0 
L 447 3381 
L 1325 3381 
L 1325 0 
L 447 0 
z
" transform="scale(0.015625)"/>
       <path id="LiberationSans-Bold-63" d="M 1856 -63 
Q 1088 -63 669 395 
Q 250 853 250 1672 
Q 250 2509 672 2976 
Q 1094 3444 1869 3444 
Q 2466 3444 2856 3144 
Q 3247 2844 3347 2316 
L 2463 2272 
Q 2425 2531 2275 2686 
Q 2125 2841 1850 2841 
Q 1172 2841 1172 1706 
Q 1172 538 1863 538 
Q 2113 538 2281 695 
Q 2450 853 2491 1166 
L 3372 1125 
Q 3325 778 3123 506 
Q 2922 234 2594 85 
Q 2266 -63 1856 -63 
z
" transform="scale(0.015625)"/>
       <path id="LiberationSans-Bold-73" d="M 3297 988 
Q 3297 497 2895 217 
Q 2494 -63 1784 -63 
Q 1088 -63 717 157 
Q 347 378 225 844 
L 997 959 
Q 1063 719 1223 619 
Q 1384 519 1784 519 
Q 2153 519 2322 612 
Q 2491 706 2491 906 
Q 2491 1069 2355 1164 
Q 2219 1259 1894 1325 
Q 1150 1472 890 1598 
Q 631 1725 495 1926 
Q 359 2128 359 2422 
Q 359 2906 732 3176 
Q 1106 3447 1791 3447 
Q 2394 3447 2761 3212 
Q 3128 2978 3219 2534 
L 2441 2453 
Q 2403 2659 2256 2761 
Q 2109 2863 1791 2863 
Q 1478 2863 1322 2783 
Q 1166 2703 1166 2516 
Q 1166 2369 1286 2283 
Q 1406 2197 1691 2141 
Q 2088 2059 2395 1973 
Q 2703 1888 2889 1769 
Q 3075 1650 3186 1464 
Q 3297 1278 3297 988 
z
" transform="scale(0.015625)"/>
      </defs>
      <use xlink:href="#LiberationSans-Bold-44"/>
      <use xlink:href="#LiberationSans-Bold-65" transform="translate(72.216797 0)"/>
      <use xlink:href="#LiberationSans-Bold-76" transform="translate(127.832031 0)"/>
      <use xlink:href="#LiberationSans-Bold-69" transform="translate(183.447266 0)"/>
      <use xlink:href="#LiberationSans-Bold-63" transform="translate(211.230469 0)"/>
      <use xlink:href="#LiberationSans-Bold-65" transform="translate(266.845703 0)"/>
      <use xlink:href="#LiberationSans-Bold-73" transform="translate(322.460938 0)"/>
     </g>
    </g>
   </g>
   <g id="line2d_29">
    <path d="M 60.751665 439.159005 
L 88.556281 434.676614 
L 116.360896 416.98804 
L 144.165512 419.470224 
L 171.970127 420.19319 
L 199.774742 418.602665 
L 227.579358 404.818108 
L 255.383973 395.588239 
L 283.188589 389.467125 
L 310.993204 373.272681 
L 366.602435 340.570508 
L 394.40705 321.122717 
L 422.211665 318.351346 
L 450.016281 307.482754 
L 477.820896 304.518592 
L 505.625512 284.661119 
L 533.430127 276.853084 
L 561.234742 283.721263 
L 589.039358 279.431663 
L 616.843973 273.238253 
L 644.648589 260.730937 
L 672.453204 253.187989 
L 700.257819 261.164716 
L 728.062435 239.041949 
L 755.86705 230.414552 
L 783.671665 201.736892 
L 811.476281 192.217836 
L 839.280896 201.495903 
L 867.085512 187.20527 
L 894.890127 174.601559 
L 922.694742 163.275088 
L 950.499358 121.367145 
L 978.303973 110.11297 
L 1006.108589 120.764673 
L 1033.913204 90.448288 
L 1061.717819 82.71255 
L 1117.32705 57.64972 
" clip-path="url(#pe9f58be670)" style="fill: none; stroke: #6c3fc4; stroke-width: 5; stroke-linecap: round"/>
   </g>
   <g id="line2d_30">
    <path d="M 60.751665 474.728944 
L 88.556281 474.439757 
L 116.360896 468.631928 
L 144.165512 470.921322 
L 171.970127 469.860971 
L 199.774742 468.848818 
L 227.579358 461.040783 
L 255.383973 464.848405 
L 283.188589 464.053142 
L 310.993204 469.427191 
L 366.602435 475.162723 
L 394.40705 462.800001 
L 422.211665 456.82348 
L 450.016281 464.31823 
L 477.820896 462.655408 
L 505.625512 438.82162 
L 533.430127 439.279499 
L 561.234742 436.604524 
L 589.039358 440.388047 
L 616.843973 438.797522 
L 644.648589 438.363742 
L 672.453204 433.375275 
L 700.257819 440.508542 
L 728.062435 440.508542 
L 755.86705 436.725018 
L 783.671665 420.048597 
L 811.476281 434.941702 
L 839.280896 425.398547 
L 867.085512 428.531401 
L 894.890127 424.964768 
L 922.694742 426.290206 
L 950.499358 429.471257 
L 978.303973 413.662395 
L 1006.108589 429.856839 
L 1033.913204 421.349936 
L 1061.717819 428.892884 
L 1117.32705 447.135732 
" clip-path="url(#pe9f58be670)" style="fill: none; stroke: #99ddff; stroke-width: 5; stroke-linecap: round"/>
   </g>
   <g id="line2d_31">
    <path d="M 60.751665 546.398997 
L 88.556281 546.374898 
L 116.360896 545.073559 
L 144.165512 541.049047 
L 171.970127 538.83195 
L 199.774742 540.54297 
L 227.579358 534.879735 
L 255.383973 539.795905 
L 283.188589 538.976544 
L 310.993204 538.518665 
L 366.602435 542.519078 
L 394.40705 538.422269 
L 422.211665 529.818971 
L 450.016281 538.952445 
L 477.820896 533.747088 
L 505.625512 511.311035 
L 533.430127 512.371386 
L 561.234742 511.503826 
L 589.039358 520.034828 
L 616.843973 519.384158 
L 644.648589 514.781273 
L 672.453204 516.371799 
L 700.257819 520.010729 
L 728.062435 520.492707 
L 755.86705 518.227412 
L 783.671665 506.226173 
L 811.476281 516.926073 
L 839.280896 514.708977 
L 867.085512 516.757381 
L 894.890127 511.383332 
L 922.694742 516.010316 
L 950.499358 516.853777 
L 978.303973 503.28611 
L 1006.108589 511.238739 
L 1033.913204 500.490641 
L 1061.717819 509.744609 
L 1117.32705 515.600635 
" clip-path="url(#pe9f58be670)" style="fill: none; stroke: #eedd88; stroke-width: 5; stroke-linecap: round"/>
   </g>
   <g id="line2d_32">
    <path d="M 60.751665 568.328973 
L 88.556281 568.087984 
L 116.360896 566.666151 
L 144.165512 566.762546 
L 171.970127 566.087778 
L 199.774742 564.810537 
L 227.579358 563.653791 
L 255.383973 561.388497 
L 283.188589 561.629486 
L 310.993204 560.207652 
L 366.602435 561.292102 
L 394.40705 559.870268 
L 422.211665 559.749774 
L 450.016281 557.653171 
L 477.820896 557.388084 
L 505.625512 556.279536 
L 533.430127 554.978196 
L 561.234742 554.279329 
L 589.039358 554.25523 
L 616.843973 554.014241 
L 644.648589 552.423716 
L 672.453204 552.712902 
L 700.257819 552.712902 
L 728.062435 551.941738 
L 755.86705 551.001882 
L 783.671665 549.435455 
L 811.476281 547.097864 
L 839.280896 550.230718 
L 867.085512 548.399204 
L 894.890127 546.639986 
L 922.694742 545.844723 
L 950.499358 546.254404 
L 978.303973 545.001262 
L 1006.108589 548.423302 
L 1033.913204 544.784372 
L 1061.717819 546.254404 
L 1117.32705 552.134529 
" clip-path="url(#pe9f58be670)" style="fill: none; stroke: #77aadd; stroke-width: 5; stroke-linecap: round"/>
   </g>
   <g id="line2d_33">
    <path d="M 60.751665 578.113116 
L 88.556281 576.787678 
L 116.360896 576.811777 
L 144.165512 575.46224 
L 171.970127 575.534536 
L 199.774742 575.438141 
L 227.579358 575.004361 
L 255.383973 573.365638 
L 283.188589 573.53433 
L 310.993204 572.955957 
L 366.602435 573.703022 
L 394.40705 572.281188 
L 422.211665 571.943804 
L 450.016281 570.907552 
L 477.820896 570.353278 
L 505.625512 569.003741 
L 533.430127 568.425368 
L 561.234742 568.353072 
L 589.039358 568.642258 
L 616.843973 568.425368 
L 644.648589 568.545863 
L 672.453204 566.617953 
L 700.257819 567.075831 
L 728.062435 566.25647 
L 755.86705 563.991175 
L 783.671665 565.413009 
L 811.476281 564.424955 
L 839.280896 565.533503 
L 867.085512 564.352659 
L 894.890127 563.436901 
L 922.694742 563.726088 
L 950.499358 561.53309 
L 978.303973 563.147715 
L 1006.108589 564.015274 
L 1033.913204 562.593441 
L 1061.717819 561.990969 
L 1117.32705 565.340712 
" clip-path="url(#pe9f58be670)" style="fill: none; stroke: #ee8866; stroke-width: 5; stroke-linecap: round"/>
   </g>
   <g id="line2d_34">
    <path d="M 950.499358 586.644118 
L 978.303973 583.077484 
L 1006.108589 581.270069 
L 1033.913204 579.800037 
L 1061.717819 578.811983 
L 1117.32705 579.775938 
" clip-path="url(#pe9f58be670)" style="fill: none; stroke: #ffaabb; stroke-width: 5; stroke-linecap: round"/>
   </g>
   <g id="patch_3">
    <path d="M 56.82 589.343192 
L 56.82 31.2 
" style="fill: none"/>
   </g>
   <g id="patch_4">
    <path d="M 1141.2 589.343192 
L 1141.2 31.2 
" style="fill: none"/>
   </g>
   <g id="patch_5">
    <path d="M 56.82 589.343192 
L 1141.2 589.343192 
" style="fill: none"/>
   </g>
   <g id="patch_6">
    <path d="M 56.82 31.2 
L 1141.2 31.2 
" style="fill: none"/>
   </g>
   <g id="text_16">
    <!-- Active Users (Weekly) -->
    <g transform="translate(494.699062 25.2) scale(0.2 -0.2)">
     <defs>
      <path id="LiberationSans-Bold-41" d="M 3541 0 
L 3150 1125 
L 1472 1125 
L 1081 0 
L 159 0 
L 1766 4403 
L 2853 4403 
L 4453 0 
L 3541 0 
z
M 2309 3725 
L 2291 3656 
Q 2259 3544 2215 3400 
Q 2172 3256 1678 1819 
L 2944 1819 
L 2509 3084 
L 2375 3509 
L 2309 3725 
z
" transform="scale(0.015625)"/>
      <path id="LiberationSans-Bold-74" d="M 1313 -56 
Q 925 -56 715 155 
Q 506 366 506 794 
L 506 2788 
L 78 2788 
L 78 3381 
L 550 3381 
L 825 4175 
L 1375 4175 
L 1375 3381 
L 2016 3381 
L 2016 2788 
L 1375 2788 
L 1375 1031 
Q 1375 784 1469 667 
Q 1563 550 1759 550 
Q 1863 550 2053 594 
L 2053 50 
Q 1728 -56 1313 -56 
z
" transform="scale(0.015625)"/>
      <path id="LiberationSans-Bold-20" transform="scale(0.015625)"/>
      <path id="LiberationSans-Bold-55" d="M 2259 -63 
Q 1350 -63 867 381 
Q 384 825 384 1650 
L 384 4403 
L 1306 4403 
L 1306 1722 
Q 1306 1200 1554 929 
Q 1803 659 2284 659 
Q 2778 659 3043 942 
Q 3309 1225 3309 1753 
L 3309 4403 
L 4231 4403 
L 4231 1697 
Q 4231 859 3714 398 
Q 3197 -63 2259 -63 
z
" transform="scale(0.015625)"/>
      <path id="LiberationSans-Bold-72" d="M 447 0 
L 447 2588 
Q 447 2866 439 3052 
Q 431 3238 422 3381 
L 1259 3381 
Q 1269 3325 1284 3039 
Q 1300 2753 1300 2659 
L 1313 2659 
Q 1441 3016 1541 3161 
Q 1641 3306 1778 3376 
Q 1916 3447 2122 3447 
Q 2291 3447 2394 3400 
L 2394 2666 
Q 2181 2713 2019 2713 
Q 1691 2713 1508 2447 
Q 1325 2181 1325 1659 
L 1325 0 
L 447 0 
z
" transform="scale(0.015625)"/>
      <path id="LiberationSans-Bold-28" d="M 1247 -1328 
Q 756 -622 537 81 
Q 319 784 319 1659 
Q 319 2531 537 3232 
Q 756 3934 1247 4638 
L 2125 4638 
Q 1631 3925 1407 3219 
Q 1184 2513 1184 1656 
Q 1184 803 1406 101 
Q 1628 -600 2125 -1328 
L 1247 -1328 
z
" transform="scale(0.015625)"/>
      <path id="LiberationSans-Bold-57" d="M 4897 0 
L 3803 0 
L 3206 2547 
Q 3097 2997 3022 3488 
Q 2947 3078 2900 2864 
Q 2853 2650 2234 0 
L 1141 0 
L 6 4403 
L 941 4403 
L 1578 1559 
L 1722 872 
Q 1809 1306 1892 1701 
Q 1975 2097 2516 4403 
L 3547 4403 
L 4103 2059 
Q 4169 1797 4325 872 
L 4403 1234 
L 4569 1953 
L 5100 4403 
L 6034 4403 
L 4897 0 
z
" transform="scale(0.015625)"/>
      <path id="LiberationSans-Bold-6c" d="M 447 0 
L 447 4638 
L 1325 4638 
L 1325 0 
L 447 0 
z
" transform="scale(0.015625)"/>
      <path id="LiberationSans-Bold-79" d="M 884 -1328 
Q 569 -1328 331 -1288 
L 331 -663 
Q 497 -688 634 -688 
Q 822 -688 945 -628 
Q 1069 -569 1167 -431 
Q 1266 -294 1388 34 
L 50 3381 
L 978 3381 
L 1509 1797 
Q 1634 1456 1825 753 
L 1903 1050 
L 2106 1784 
L 2606 3381 
L 3525 3381 
L 2188 -178 
Q 1919 -828 1630 -1078 
Q 1341 -1328 884 -1328 
z
" transform="scale(0.015625)"/>
      <path id="LiberationSans-Bold-29" d="M 6 -1328 
Q 506 -597 726 101 
Q 947 800 947 1656 
Q 947 2516 722 3223 
Q 497 3931 6 4638 
L 884 4638 
Q 1378 3928 1595 3225 
Q 1813 2522 1813 1659 
Q 1813 791 1595 87 
Q 1378 -616 884 -1328 
L 6 -1328 
z
" transform="scale(0.015625)"/>
     </defs>
     <use xlink:href="#LiberationSans-Bold-41"/>
     <use xlink:href="#LiberationSans-Bold-63" transform="translate(72.216797 0)"/>
     <use xlink:href="#LiberationSans-Bold-74" transform="translate(127.832031 0)"/>
     <use xlink:href="#LiberationSans-Bold-69" transform="translate(161.132812 0)"/>
     <use xlink:href="#LiberationSans-Bold-76" transform="translate(188.916016 0)"/>
     <use xlink:href="#LiberationSans-Bold-65" transform="translate(244.53125 0)"/>
     <use xlink:href="#LiberationSans-Bold-20" transform="translate(300.146484 0)"/>
     <use xlink:href="#LiberationSans-Bold-55" transform="translate(327.929688 0)"/>
     <use xlink:href="#LiberationSans-Bold-73" transform="translate(400.146484 0)"/>
     <use xlink:href="#LiberationSans-Bold-65" transform="translate(455.761719 0)"/>
     <use xlink:href="#LiberationSans-Bold-72" transform="translate(511.376953 0)"/>
     <use xlink:href="#LiberationSans-Bold-73" transform="translate(550.292969 0)"/>
     <use xlink:href="#LiberationSans-Bold-20" transform="translate(605.908203 0)"/>
     <use xlink:href="#LiberationSans-Bold-28" transform="translate(633.691406 0)"/>
     <use xlink:href="#LiberationSans-Bold-57" transform="translate(666.992188 0)"/>
     <use xlink:href="#LiberationSans-Bold-65" transform="translate(759.626953 0)"/>
     <use xlink:href="#LiberationSans-Bold-65" transform="translate(815.242188 0)"/>
     <use xlink:href="#LiberationSans-Bold-6b" transform="translate(870.857422 0)"/>
     <use xlink:href="#LiberationSans-Bold-6c" transform="translate(926.472656 0)"/>
     <use xlink:href="#LiberationSans-Bold-79" transform="translate(954.255859 0)"/>
     <use xlink:href="#LiberationSans-Bold-29" transform="translate(1009.871094 0)"/>
    </g>
   </g>
   <g id="legend_1">
    <g id="line2d_35">
     <path d="M 71.22 51.595 
L 87.22 51.595 
L 103.22 51.595 
" style="fill: none; stroke: #6c3fc4; stroke-width: 5; stroke-linecap: round"/>
    </g>
    <g id="text_17">
     <!-- Bazzite (22.1k) -->
     <g style="fill: #616161" transform="translate(116.02 57.195) scale(0.16 -0.16)">
      <defs>
       <path id="LiberationSans-42" d="M 3931 1241 
Q 3931 653 3503 326 
Q 3075 0 2313 0 
L 525 0 
L 525 4403 
L 2125 4403 
Q 3675 4403 3675 3334 
Q 3675 2944 3456 2678 
Q 3238 2413 2838 2322 
Q 3363 2259 3647 1970 
Q 3931 1681 3931 1241 
z
M 3075 3263 
Q 3075 3619 2831 3772 
Q 2588 3925 2125 3925 
L 1122 3925 
L 1122 2531 
L 2125 2531 
Q 2603 2531 2839 2711 
Q 3075 2891 3075 3263 
z
M 3328 1288 
Q 3328 2066 2234 2066 
L 1122 2066 
L 1122 478 
L 2281 478 
Q 2828 478 3078 681 
Q 3328 884 3328 1288 
z
" transform="scale(0.015625)"/>
       <path id="LiberationSans-61" d="M 1294 -63 
Q 784 -63 528 206 
Q 272 475 272 944 
Q 272 1469 617 1750 
Q 963 2031 1731 2050 
L 2491 2063 
L 2491 2247 
Q 2491 2659 2316 2837 
Q 2141 3016 1766 3016 
Q 1388 3016 1216 2887 
Q 1044 2759 1009 2478 
L 422 2531 
Q 566 3444 1778 3444 
Q 2416 3444 2737 3151 
Q 3059 2859 3059 2306 
L 3059 850 
Q 3059 600 3125 473 
Q 3191 347 3375 347 
Q 3456 347 3559 369 
L 3559 19 
Q 3347 -31 3125 -31 
Q 2813 -31 2670 133 
Q 2528 297 2509 647 
L 2491 647 
Q 2275 259 1989 98 
Q 1703 -63 1294 -63 
z
M 1422 359 
Q 1731 359 1972 500 
Q 2213 641 2352 886 
Q 2491 1131 2491 1391 
L 2491 1669 
L 1875 1656 
Q 1478 1650 1273 1575 
Q 1069 1500 959 1344 
Q 850 1188 850 934 
Q 850 659 998 509 
Q 1147 359 1422 359 
z
" transform="scale(0.015625)"/>
       <path id="LiberationSans-7a" d="M 259 0 
L 259 428 
L 2150 2947 
L 366 2947 
L 366 3381 
L 2816 3381 
L 2816 2953 
L 922 434 
L 2881 434 
L 2881 0 
L 259 0 
z
" transform="scale(0.015625)"/>
       <path id="LiberationSans-69" d="M 428 4100 
L 428 4638 
L 991 4638 
L 991 4100 
L 428 4100 
z
M 428 0 
L 428 3381 
L 991 3381 
L 991 0 
L 428 0 
z
" transform="scale(0.015625)"/>
       <path id="LiberationSans-74" d="M 1731 25 
Q 1453 -50 1163 -50 
Q 488 -50 488 716 
L 488 2972 
L 97 2972 
L 97 3381 
L 509 3381 
L 675 4138 
L 1050 4138 
L 1050 3381 
L 1675 3381 
L 1675 2972 
L 1050 2972 
L 1050 838 
Q 1050 594 1129 495 
Q 1209 397 1406 397 
Q 1519 397 1731 441 
L 1731 25 
z
" transform="scale(0.015625)"/>
       <path id="LiberationSans-65" d="M 863 1572 
Q 863 991 1103 675 
Q 1344 359 1806 359 
Q 2172 359 2392 506 
Q 2613 653 2691 878 
L 3184 738 
Q 2881 -63 1806 -63 
Q 1056 -63 664 384 
Q 272 831 272 1713 
Q 272 2550 664 2997 
Q 1056 3444 1784 3444 
Q 3275 3444 3275 1647 
L 3275 1572 
L 863 1572 
z
M 2694 2003 
Q 2647 2538 2422 2783 
Q 2197 3028 1775 3028 
Q 1366 3028 1127 2754 
Q 888 2481 869 2003 
L 2694 2003 
z
" transform="scale(0.015625)"/>
       <path id="LiberationSans-20" transform="scale(0.015625)"/>
       <path id="LiberationSans-28" d="M 397 1663 
Q 397 2566 680 3284 
Q 963 4003 1550 4638 
L 2094 4638 
Q 1509 3988 1236 3256 
Q 963 2525 963 1656 
Q 963 791 1233 62 
Q 1503 -666 2094 -1325 
L 1550 -1325 
Q 959 -688 678 32 
Q 397 753 397 1650 
L 397 1663 
z
" transform="scale(0.015625)"/>
       <path id="LiberationSans-32" d="M 322 0 
L 322 397 
Q 481 763 711 1042 
Q 941 1322 1194 1548 
Q 1447 1775 1695 1969 
Q 1944 2163 2144 2356 
Q 2344 2550 2467 2762 
Q 2591 2975 2591 3244 
Q 2591 3606 2378 3806 
Q 2166 4006 1788 4006 
Q 1428 4006 1195 3811 
Q 963 3616 922 3263 
L 347 3316 
Q 409 3844 795 4156 
Q 1181 4469 1788 4469 
Q 2453 4469 2811 4155 
Q 3169 3841 3169 3263 
Q 3169 3006 3051 2753 
Q 2934 2500 2703 2247 
Q 2472 1994 1819 1463 
Q 1459 1169 1246 933 
Q 1034 697 941 478 
L 3238 478 
L 3238 0 
L 322 0 
z
" transform="scale(0.015625)"/>
       <path id="LiberationSans-2e" d="M 584 0 
L 584 684 
L 1194 684 
L 1194 0 
L 584 0 
z
" transform="scale(0.015625)"/>
       <path id="LiberationSans-31" d="M 488 0 
L 488 478 
L 1609 478 
L 1609 3866 
L 616 3156 
L 616 3688 
L 1656 4403 
L 2175 4403 
L 2175 478 
L 3247 478 
L 3247 0 
L 488 0 
z
" transform="scale(0.015625)"/>
       <path id="LiberationSans-6b" d="M 2550 0 
L 1406 1544 
L 994 1203 
L 994 0 
L 431 0 
L 431 4638 
L 994 4638 
L 994 1741 
L 2478 3381 
L 3138 3381 
L 1766 1928 
L 3209 0 
L 2550 0 
z
" transform="scale(0.015625)"/>
       <path id="LiberationSans-29" d="M 1734 1650 
Q 1734 747 1451 28 
Q 1169 -691 581 -1325 
L 38 -1325 
Q 625 -669 897 57 
Q 1169 784 1169 1656 
Q 1169 2528 895 3256 
Q 622 3984 38 4638 
L 581 4638 
Q 1172 4000 1453 3279 
Q 1734 2559 1734 1663 
L 1734 1650 
z
" transform="scale(0.015625)"/>
      </defs>
      <use xlink:href="#LiberationSans-42"/>
      <use xlink:href="#LiberationSans-61" transform="translate(66.699219 0)"/>
      <use xlink:href="#LiberationSans-7a" transform="translate(122.314453 0)"/>
      <use xlink:href="#LiberationSans-7a" transform="translate(172.314453 0)"/>
      <use xlink:href="#LiberationSans-69" transform="translate(222.314453 0)"/>
      <use xlink:href="#LiberationSans-74" transform="translate(244.53125 0)"/>
      <use xlink:href="#LiberationSans-65" transform="translate(272.314453 0)"/>
      <use xlink:href="#LiberationSans-20" transform="translate(327.929688 0)"/>
      <use xlink:href="#LiberationSans-28" transform="translate(355.712891 0)"/>
      <use xlink:href="#LiberationSans-32" transform="translate(389.013672 0)"/>
      <use xlink:href="#LiberationSans-32" transform="translate(444.628906 0)"/>
      <use xlink:href="#LiberationSans-2e" transform="translate(500.244141 0)"/>
      <use xlink:href="#LiberationSans-31" transform="translate(528.027344 0)"/>
      <use xlink:href="#LiberationSans-6b" transform="translate(583.642578 0)"/>
      <use xlink:href="#LiberationSans-29" transform="translate(633.642578 0)"/>
     </g>
    </g>
    <g id="line2d_36">
     <path d="M 71.22 74.51 
L 87.22 74.51 
L 103.22 74.51 
" style="fill: none; stroke: #99ddff; stroke-width: 5; stroke-linecap: round"/>
    </g>
    <g id="text_18">
     <!-- Silverblue (5.9k) -->
     <g style="fill: #616161" transform="translate(116.02 80.11) scale(0.16 -0.16)">
      <defs>
       <path id="LiberationSans-53" d="M 3975 1216 
Q 3975 606 3498 271 
Q 3022 -63 2156 -63 
Q 547 -63 291 1056 
L 869 1172 
Q 969 775 1294 589 
Q 1619 403 2178 403 
Q 2756 403 3070 601 
Q 3384 800 3384 1184 
Q 3384 1400 3286 1534 
Q 3188 1669 3009 1756 
Q 2831 1844 2584 1903 
Q 2338 1963 2038 2031 
Q 1516 2147 1245 2262 
Q 975 2378 819 2520 
Q 663 2663 580 2853 
Q 497 3044 497 3291 
Q 497 3856 930 4162 
Q 1363 4469 2169 4469 
Q 2919 4469 3316 4239 
Q 3713 4009 3872 3456 
L 3284 3353 
Q 3188 3703 2916 3861 
Q 2644 4019 2163 4019 
Q 1634 4019 1356 3844 
Q 1078 3669 1078 3322 
Q 1078 3119 1186 2986 
Q 1294 2853 1497 2761 
Q 1700 2669 2306 2534 
Q 2509 2488 2711 2439 
Q 2913 2391 3097 2323 
Q 3281 2256 3442 2165 
Q 3603 2075 3722 1944 
Q 3841 1813 3908 1634 
Q 3975 1456 3975 1216 
z
" transform="scale(0.015625)"/>
       <path id="LiberationSans-6c" d="M 431 0 
L 431 4638 
L 994 4638 
L 994 0 
L 431 0 
z
" transform="scale(0.015625)"/>
       <path id="LiberationSans-76" d="M 1916 0 
L 1250 0 
L 22 3381 
L 622 3381 
L 1366 1181 
Q 1406 1056 1581 441 
L 1691 806 
L 1813 1175 
L 2581 3381 
L 3178 3381 
L 1916 0 
z
" transform="scale(0.015625)"/>
       <path id="LiberationSans-72" d="M 444 0 
L 444 2594 
Q 444 2950 425 3381 
L 956 3381 
Q 981 2806 981 2691 
L 994 2691 
Q 1128 3125 1303 3284 
Q 1478 3444 1797 3444 
Q 1909 3444 2025 3413 
L 2025 2897 
Q 1913 2928 1725 2928 
Q 1375 2928 1190 2626 
Q 1006 2325 1006 1763 
L 1006 0 
L 444 0 
z
" transform="scale(0.015625)"/>
       <path id="LiberationSans-62" d="M 3291 1706 
Q 3291 -63 2047 -63 
Q 1663 -63 1408 76 
Q 1153 216 994 525 
L 988 525 
Q 988 428 975 229 
Q 963 31 956 0 
L 413 0 
Q 431 169 431 697 
L 431 4638 
L 994 4638 
L 994 3316 
Q 994 3113 981 2838 
L 994 2838 
Q 1150 3163 1408 3303 
Q 1666 3444 2047 3444 
Q 2688 3444 2989 3012 
Q 3291 2581 3291 1706 
z
M 2700 1688 
Q 2700 2397 2512 2703 
Q 2325 3009 1903 3009 
Q 1428 3009 1211 2684 
Q 994 2359 994 1653 
Q 994 988 1206 670 
Q 1419 353 1897 353 
Q 2322 353 2511 667 
Q 2700 981 2700 1688 
z
" transform="scale(0.015625)"/>
       <path id="LiberationSans-75" d="M 981 3381 
L 981 1238 
Q 981 903 1047 718 
Q 1113 534 1256 453 
Q 1400 372 1678 372 
Q 2084 372 2318 650 
Q 2553 928 2553 1422 
L 2553 3381 
L 3116 3381 
L 3116 722 
Q 3116 131 3134 0 
L 2603 0 
Q 2600 16 2597 84 
Q 2594 153 2589 242 
Q 2584 331 2578 578 
L 2569 578 
Q 2375 228 2120 82 
Q 1866 -63 1488 -63 
Q 931 -63 673 214 
Q 416 491 416 1128 
L 416 3381 
L 981 3381 
z
" transform="scale(0.015625)"/>
       <path id="LiberationSans-35" d="M 3291 1434 
Q 3291 738 2877 337 
Q 2463 -63 1728 -63 
Q 1113 -63 734 206 
Q 356 475 256 984 
L 825 1050 
Q 1003 397 1741 397 
Q 2194 397 2450 670 
Q 2706 944 2706 1422 
Q 2706 1838 2448 2094 
Q 2191 2350 1753 2350 
Q 1525 2350 1328 2278 
Q 1131 2206 934 2034 
L 384 2034 
L 531 4403 
L 3034 4403 
L 3034 3925 
L 1044 3925 
L 959 2528 
Q 1325 2809 1869 2809 
Q 2519 2809 2905 2428 
Q 3291 2047 3291 1434 
z
" transform="scale(0.015625)"/>
       <path id="LiberationSans-39" d="M 3256 2291 
Q 3256 1156 2842 546 
Q 2428 -63 1663 -63 
Q 1147 -63 836 154 
Q 525 372 391 856 
L 928 941 
Q 1097 391 1672 391 
Q 2156 391 2422 841 
Q 2688 1291 2700 2125 
Q 2575 1844 2272 1673 
Q 1969 1503 1606 1503 
Q 1013 1503 656 1909 
Q 300 2316 300 2988 
Q 300 3678 687 4073 
Q 1075 4469 1766 4469 
Q 2500 4469 2878 3925 
Q 3256 3381 3256 2291 
z
M 2644 2834 
Q 2644 3366 2400 3689 
Q 2156 4013 1747 4013 
Q 1341 4013 1106 3736 
Q 872 3459 872 2988 
Q 872 2506 1106 2226 
Q 1341 1947 1741 1947 
Q 1984 1947 2193 2058 
Q 2403 2169 2523 2372 
Q 2644 2575 2644 2834 
z
" transform="scale(0.015625)"/>
      </defs>
      <use xlink:href="#LiberationSans-53"/>
      <use xlink:href="#LiberationSans-69" transform="translate(66.699219 0)"/>
      <use xlink:href="#LiberationSans-6c" transform="translate(88.916016 0)"/>
      <use xlink:href="#LiberationSans-76" transform="translate(111.132812 0)"/>
      <use xlink:href="#LiberationSans-65" transform="translate(161.132812 0)"/>
      <use xlink:href="#LiberationSans-72" transform="translate(216.748047 0)"/>
      <use xlink:href="#LiberationSans-62" transform="translate(250.048828 0)"/>
      <use xlink:href="#LiberationSans-6c" transform="translate(305.664062 0)"/>
      <use xlink:href="#LiberationSans-75" transform="translate(327.880859 0)"/>
      <use xlink:href="#LiberationSans-65" transform="translate(383.496094 0)"/>
      <use xlink:href="#LiberationSans-20" transform="translate(439.111328 0)"/>
      <use xlink:href="#LiberationSans-28" transform="translate(466.894531 0)"/>
      <use xlink:href="#LiberationSans-35" transform="translate(500.195312 0)"/>
      <use xlink:href="#LiberationSans-2e" transform="translate(555.810547 0)"/>
      <use xlink:href="#LiberationSans-39" transform="translate(583.59375 0)"/>
      <use xlink:href="#LiberationSans-6b" transform="translate(639.208984 0)"/>
      <use xlink:href="#LiberationSans-29" transform="translate(689.208984 0)"/>
     </g>
    </g>
    <g id="line2d_37">
     <path d="M 71.22 97.425 
L 87.22 97.425 
L 103.22 97.425 
" style="fill: none; stroke: #eedd88; stroke-width: 5; stroke-linecap: round"/>
    </g>
    <g id="text_19">
     <!-- Kinoite (3.1k) -->
     <g style="fill: #616161" transform="translate(116.02 103.025) scale(0.16 -0.16)">
      <defs>
       <path id="LiberationSans-4b" d="M 3456 0 
L 1697 2125 
L 1122 1688 
L 1122 0 
L 525 0 
L 525 4403 
L 1122 4403 
L 1122 2197 
L 3244 4403 
L 3947 4403 
L 2072 2491 
L 4197 0 
L 3456 0 
z
" transform="scale(0.015625)"/>
       <path id="LiberationSans-6e" d="M 2578 0 
L 2578 2144 
Q 2578 2478 2512 2662 
Q 2447 2847 2303 2928 
Q 2159 3009 1881 3009 
Q 1475 3009 1240 2731 
Q 1006 2453 1006 1959 
L 1006 0 
L 444 0 
L 444 2659 
Q 444 3250 425 3381 
L 956 3381 
Q 959 3366 962 3297 
Q 966 3228 970 3139 
Q 975 3050 981 2803 
L 991 2803 
Q 1184 3153 1439 3298 
Q 1694 3444 2072 3444 
Q 2628 3444 2886 3167 
Q 3144 2891 3144 2253 
L 3144 0 
L 2578 0 
z
" transform="scale(0.015625)"/>
       <path id="LiberationSans-6f" d="M 3291 1694 
Q 3291 806 2900 371 
Q 2509 -63 1766 -63 
Q 1025 -63 647 389 
Q 269 841 269 1694 
Q 269 3444 1784 3444 
Q 2559 3444 2925 3017 
Q 3291 2591 3291 1694 
z
M 2700 1694 
Q 2700 2394 2492 2711 
Q 2284 3028 1794 3028 
Q 1300 3028 1079 2704 
Q 859 2381 859 1694 
Q 859 1025 1076 689 
Q 1294 353 1759 353 
Q 2266 353 2483 678 
Q 2700 1003 2700 1694 
z
" transform="scale(0.015625)"/>
       <path id="LiberationSans-33" d="M 3278 1216 
Q 3278 606 2890 271 
Q 2503 -63 1784 -63 
Q 1116 -63 717 239 
Q 319 541 244 1131 
L 825 1184 
Q 938 403 1784 403 
Q 2209 403 2451 612 
Q 2694 822 2694 1234 
Q 2694 1594 2417 1795 
Q 2141 1997 1619 1997 
L 1300 1997 
L 1300 2484 
L 1606 2484 
Q 2069 2484 2323 2686 
Q 2578 2888 2578 3244 
Q 2578 3597 2370 3801 
Q 2163 4006 1753 4006 
Q 1381 4006 1151 3815 
Q 922 3625 884 3278 
L 319 3322 
Q 381 3863 767 4166 
Q 1153 4469 1759 4469 
Q 2422 4469 2789 4161 
Q 3156 3853 3156 3303 
Q 3156 2881 2920 2617 
Q 2684 2353 2234 2259 
L 2234 2247 
Q 2728 2194 3003 1916 
Q 3278 1638 3278 1216 
z
" transform="scale(0.015625)"/>
      </defs>
      <use xlink:href="#LiberationSans-4b"/>
      <use xlink:href="#LiberationSans-69" transform="translate(66.699219 0)"/>
      <use xlink:href="#LiberationSans-6e" transform="translate(88.916016 0)"/>
      <use xlink:href="#LiberationSans-6f" transform="translate(144.53125 0)"/>
      <use xlink:href="#LiberationSans-69" transform="translate(200.146484 0)"/>
      <use xlink:href="#LiberationSans-74" transform="translate(222.363281 0)"/>
      <use xlink:href="#LiberationSans-65" transform="translate(250.146484 0)"/>
      <use xlink:href="#LiberationSans-20" transform="translate(305.761719 0)"/>
      <use xlink:href="#LiberationSans-28" transform="translate(333.544922 0)"/>
      <use xlink:href="#LiberationSans-33" transform="translate(366.845703 0)"/>
      <use xlink:href="#LiberationSans-2e" transform="translate(422.460938 0)"/>
      <use xlink:href="#LiberationSans-31" transform="translate(450.244141 0)"/>
      <use xlink:href="#LiberationSans-6b" transform="translate(505.859375 0)"/>
      <use xlink:href="#LiberationSans-29" transform="translate(555.859375 0)"/>
     </g>
    </g>
    <g id="line2d_38">
     <path d="M 71.22 120.34 
L 87.22 120.34 
L 103.22 120.34 
" style="fill: none; stroke: #77aadd; stroke-width: 5; stroke-linecap: round"/>
    </g>
    <g id="text_20">
     <!-- Bluefin (1.5k) -->
     <g style="fill: #616161" transform="translate(116.02 125.94) scale(0.16 -0.16)">
      <defs>
       <path id="LiberationSans-66" d="M 1128 2972 
L 1128 0 
L 566 0 
L 566 2972 
L 91 2972 
L 91 3381 
L 566 3381 
L 566 3763 
Q 566 4225 769 4428 
Q 972 4631 1391 4631 
Q 1625 4631 1788 4594 
L 1788 4166 
Q 1647 4191 1538 4191 
Q 1322 4191 1225 4081 
Q 1128 3972 1128 3684 
L 1128 3381 
L 1788 3381 
L 1788 2972 
L 1128 2972 
z
" transform="scale(0.015625)"/>
      </defs>
      <use xlink:href="#LiberationSans-42"/>
      <use xlink:href="#LiberationSans-6c" transform="translate(66.699219 0)"/>
      <use xlink:href="#LiberationSans-75" transform="translate(88.916016 0)"/>
      <use xlink:href="#LiberationSans-65" transform="translate(144.53125 0)"/>
      <use xlink:href="#LiberationSans-66" transform="translate(200.146484 0)"/>
      <use xlink:href="#LiberationSans-69" transform="translate(227.929688 0)"/>
      <use xlink:href="#LiberationSans-6e" transform="translate(250.146484 0)"/>
      <use xlink:href="#LiberationSans-20" transform="translate(305.761719 0)"/>
      <use xlink:href="#LiberationSans-28" transform="translate(333.544922 0)"/>
      <use xlink:href="#LiberationSans-31" transform="translate(366.845703 0)"/>
      <use xlink:href="#LiberationSans-2e" transform="translate(422.460938 0)"/>
      <use xlink:href="#LiberationSans-35" transform="translate(450.244141 0)"/>
      <use xlink:href="#LiberationSans-6b" transform="translate(505.859375 0)"/>
      <use xlink:href="#LiberationSans-29" transform="translate(555.859375 0)"/>
     </g>
    </g>
    <g id="line2d_39">
     <path d="M 71.22 143.255 
L 87.22 143.255 
L 103.22 143.255 
" style="fill: none; stroke: #ee8866; stroke-width: 5; stroke-linecap: round"/>
    </g>
    <g id="text_21">
     <!-- Aurora (1.0k) -->
     <g style="fill: #616161" transform="translate(116.02 148.855) scale(0.16 -0.16)">
      <defs>
       <path id="LiberationSans-41" d="M 3647 0 
L 3144 1288 
L 1138 1288 
L 631 0 
L 13 0 
L 1809 4403 
L 2488 4403 
L 4256 0 
L 3647 0 
z
M 2141 3953 
L 2113 3866 
Q 2034 3606 1881 3200 
L 1319 1753 
L 2966 1753 
L 2400 3206 
Q 2313 3422 2225 3694 
L 2141 3953 
z
" transform="scale(0.015625)"/>
       <path id="LiberationSans-30" d="M 3309 2203 
Q 3309 1100 2920 518 
Q 2531 -63 1772 -63 
Q 1013 -63 631 515 
Q 250 1094 250 2203 
Q 250 3338 620 3903 
Q 991 4469 1791 4469 
Q 2569 4469 2939 3897 
Q 3309 3325 3309 2203 
z
M 2738 2203 
Q 2738 3156 2517 3584 
Q 2297 4013 1791 4013 
Q 1272 4013 1045 3591 
Q 819 3169 819 2203 
Q 819 1266 1048 831 
Q 1278 397 1778 397 
Q 2275 397 2506 840 
Q 2738 1284 2738 2203 
z
" transform="scale(0.015625)"/>
      </defs>
      <use xlink:href="#LiberationSans-41"/>
      <use xlink:href="#LiberationSans-75" transform="translate(66.699219 0)"/>
      <use xlink:href="#LiberationSans-72" transform="translate(122.314453 0)"/>
      <use xlink:href="#LiberationSans-6f" transform="translate(155.615234 0)"/>
      <use xlink:href="#LiberationSans-72" transform="translate(211.230469 0)"/>
      <use xlink:href="#LiberationSans-61" transform="translate(244.53125 0)"/>
      <use xlink:href="#LiberationSans-20" transform="translate(300.146484 0)"/>
      <use xlink:href="#LiberationSans-28" transform="translate(327.929688 0)"/>
      <use xlink:href="#LiberationSans-31" transform="translate(361.230469 0)"/>
      <use xlink:href="#LiberationSans-2e" transform="translate(416.845703 0)"/>
      <use xlink:href="#LiberationSans-30" transform="translate(444.628906 0)"/>
      <use xlink:href="#LiberationSans-6b" transform="translate(500.244141 0)"/>
      <use xlink:href="#LiberationSans-29" transform="translate(550.244141 0)"/>
     </g>
    </g>
    <g id="line2d_40">
     <path d="M 71.22 166.17 
L 87.22 166.17 
L 103.22 166.17 
" style="fill: none; stroke: #ffaabb; stroke-width: 5; stroke-linecap: round"/>
    </g>
    <g id="text_22">
     <!-- uCore (0.4k) -->
     <g style="fill: #616161" transform="translate(116.02 171.77) scale(0.16 -0.16)">
      <defs>
       <path id="LiberationSans-43" d="M 2475 3981 
Q 1744 3981 1337 3511 
Q 931 3041 931 2222 
Q 931 1413 1354 920 
Q 1778 428 2500 428 
Q 3425 428 3891 1344 
L 4378 1100 
Q 4106 531 3614 234 
Q 3122 -63 2472 -63 
Q 1806 -63 1320 214 
Q 834 491 579 1005 
Q 325 1519 325 2222 
Q 325 3275 894 3872 
Q 1463 4469 2469 4469 
Q 3172 4469 3644 4194 
Q 4116 3919 4338 3378 
L 3772 3191 
Q 3619 3575 3280 3778 
Q 2941 3981 2475 3981 
z
" transform="scale(0.015625)"/>
       <path id="LiberationSans-34" d="M 2753 997 
L 2753 0 
L 2222 0 
L 2222 997 
L 147 997 
L 147 1434 
L 2163 4403 
L 2753 4403 
L 2753 1441 
L 3372 1441 
L 3372 997 
L 2753 997 
z
M 2222 3769 
Q 2216 3750 2134 3603 
Q 2053 3456 2013 3397 
L 884 1734 
L 716 1503 
L 666 1441 
L 2222 1441 
L 2222 3769 
z
" transform="scale(0.015625)"/>
      </defs>
      <use xlink:href="#LiberationSans-75"/>
      <use xlink:href="#LiberationSans-43" transform="translate(55.615234 0)"/>
      <use xlink:href="#LiberationSans-6f" transform="translate(127.832031 0)"/>
      <use xlink:href="#LiberationSans-72" transform="translate(183.447266 0)"/>
      <use xlink:href="#LiberationSans-65" transform="translate(216.748047 0)"/>
      <use xlink:href="#LiberationSans-20" transform="translate(272.363281 0)"/>
      <use xlink:href="#LiberationSans-28" transform="translate(300.146484 0)"/>
      <use xlink:href="#LiberationSans-30" transform="translate(333.447266 0)"/>
      <use xlink:href="#LiberationSans-2e" transform="translate(389.0625 0)"/>
      <use xlink:href="#LiberationSans-34" transform="translate(416.845703 0)"/>
      <use xlink:href="#LiberationSans-6b" transform="translate(472.460938 0)"/>
      <use xlink:href="#LiberationSans-29" transform="translate(522.460938 0)"/>
     </g>
    </g>
   </g>
  </g>
 </g>
 <defs>
  <clipPath id="pe9f58be670">
   <rect x="56.82" y="31.2" width="1084.38" height="558.143192"/>
  </clipPath>
 </defs>
</svg>
