<?xml version="1.0" encoding="utf-8" standalone="no"?>
<!DOCTYPE svg PUBLIC "-//W3C//DTD SVG 1.1//EN"
  "http://www.w3.org/Graphics/SVG/1.1/DTD/svg11.dtd">
<svg xmlns:xlink="http://www.w3.org/1999/xlink" width="1152pt" height="648pt" viewBox="0 0 1152 648" xmlns="http://www.w3.org/2000/svg" version="1.1">
 <metadata>
  <rdf:RDF xmlns:dc="http://purl.org/dc/elements/1.1/" xmlns:cc="http://creativecommons.org/ns#" xmlns:rdf="http://www.w3.org/1999/02/22-rdf-syntax-ns#">
   <cc:Work>
    <dc:type rdf:resource="http://purl.org/dc/dcmitype/StillImage"/>
    <dc:date>2026-04-12T00:25:55.342354</dc:date>
    <dc:format>image/svg+xml</dc:format>
    <dc:creator>
     <cc:Agent>
      <dc:title>Matplotlib v3.10.8, https://matplotlib.org/</dc:title>
     </cc:Agent>
    </dc:creator>
   </cc:Work>
  </rdf:RDF>
 </metadata>
 <defs>
  <style type="text/css">*{stroke-linejoin: round; stroke-linecap: butt}</style>
 </defs>
 <g id="figure_1">
  <g id="patch_1">
   <path d="M 0 648 
L 1152 648 
L 1152 0 
L 0 0 
z
" style="fill: #ffffff"/>
  </g>
  <g id="axes_1">
   <g id="patch_2">
    <path d="M 56.73 589.343192 
L 1141.2 589.343192 
L 1141.2 31.2 
L 56.73 31.2 
z
" style="fill: #ffffff"/>
   </g>
   <g id="matplotlib.axis_1">
    <g id="xtick_1">
     <g id="line2d_1">
      <path d="M 135.817176 589.343192 
L 135.817176 31.2 
" clip-path="url(#p81d74336c0)" style="fill: none; stroke: #cccccc; stroke-width: 0.8; stroke-linecap: round"/>
     </g>
     <g id="line2d_2"/>
     <g id="text_1">
      <!-- 08/2025 -->
      <g style="fill: #616161" transform="translate(120.48688 635.797719) rotate(-45) scale(0.14 -0.14)">
       <defs>
        <path id="LiberationSans-Bold-30" d="M 3297 2203 
Q 3297 1088 2914 512 
Q 2531 -63 1766 -63 
Q 253 -63 253 2203 
Q 253 2994 418 3494 
Q 584 3994 915 4231 
Q 1247 4469 1791 4469 
Q 2572 4469 2934 3903 
Q 3297 3338 3297 2203 
z
M 2416 2203 
Q 2416 2813 2356 3150 
Q 2297 3488 2165 3634 
Q 2034 3781 1784 3781 
Q 1519 3781 1383 3632 
Q 1247 3484 1189 3148 
Q 1131 2813 1131 2203 
Q 1131 1600 1192 1261 
Q 1253 922 1386 775 
Q 1519 628 1772 628 
Q 2022 628 2158 783 
Q 2294 938 2355 1278 
Q 2416 1619 2416 2203 
z
" transform="scale(0.015625)"/>
        <path id="LiberationSans-Bold-38" d="M 3363 1241 
Q 3363 622 2953 279 
Q 2544 -63 1784 -63 
Q 1031 -63 617 278 
Q 203 619 203 1234 
Q 203 1656 447 1945 
Q 691 2234 1100 2303 
L 1100 2316 
Q 744 2394 525 2669 
Q 306 2944 306 3303 
Q 306 3844 689 4156 
Q 1072 4469 1772 4469 
Q 2488 4469 2870 4164 
Q 3253 3859 3253 3297 
Q 3253 2938 3036 2666 
Q 2819 2394 2453 2322 
L 2453 2309 
Q 2878 2241 3120 1961 
Q 3363 1681 3363 1241 
z
M 2350 3250 
Q 2350 3563 2206 3708 
Q 2063 3853 1772 3853 
Q 1203 3853 1203 3250 
Q 1203 2619 1778 2619 
Q 2066 2619 2208 2766 
Q 2350 2913 2350 3250 
z
M 2453 1313 
Q 2453 2003 1766 2003 
Q 1447 2003 1276 1822 
Q 1106 1641 1106 1300 
Q 1106 913 1275 734 
Q 1444 556 1791 556 
Q 2131 556 2292 734 
Q 2453 913 2453 1313 
z
" transform="scale(0.015625)"/>
        <path id="LiberationSans-Bold-2f" d="M 63 -128 
L 972 4638 
L 1716 4638 
L 822 -128 
L 63 -128 
z
" transform="scale(0.015625)"/>
        <path id="LiberationSans-Bold-32" d="M 222 0 
L 222 609 
Q 394 988 711 1347 
Q 1028 1706 1509 2097 
Q 1972 2472 2158 2715 
Q 2344 2959 2344 3194 
Q 2344 3769 1766 3769 
Q 1484 3769 1336 3617 
Q 1188 3466 1144 3163 
L 259 3213 
Q 334 3825 717 4147 
Q 1100 4469 1759 4469 
Q 2472 4469 2853 4144 
Q 3234 3819 3234 3231 
Q 3234 2922 3112 2672 
Q 2991 2422 2800 2211 
Q 2609 2000 2376 1815 
Q 2144 1631 1925 1456 
Q 1706 1281 1526 1103 
Q 1347 925 1259 722 
L 3303 722 
L 3303 0 
L 222 0 
z
" transform="scale(0.015625)"/>
        <path id="LiberationSans-Bold-35" d="M 3381 1466 
Q 3381 766 2945 351 
Q 2509 -63 1750 -63 
Q 1088 -63 689 235 
Q 291 534 197 1100 
L 1075 1172 
Q 1144 891 1319 762 
Q 1494 634 1759 634 
Q 2088 634 2283 843 
Q 2478 1053 2478 1447 
Q 2478 1794 2293 2001 
Q 2109 2209 1778 2209 
Q 1413 2209 1181 1925 
L 325 1925 
L 478 4403 
L 3125 4403 
L 3125 3750 
L 1275 3750 
L 1203 2638 
Q 1522 2919 2000 2919 
Q 2628 2919 3004 2528 
Q 3381 2138 3381 1466 
z
" transform="scale(0.015625)"/>
       </defs>
       <use xlink:href="#LiberationSans-Bold-30"/>
       <use xlink:href="#LiberationSans-Bold-38" transform="translate(55.615234 0)"/>
       <use xlink:href="#LiberationSans-Bold-2f" transform="translate(111.230469 0)"/>
       <use xlink:href="#LiberationSans-Bold-32" transform="translate(139.013672 0)"/>
       <use xlink:href="#LiberationSans-Bold-30" transform="translate(194.628906 0)"/>
       <use xlink:href="#LiberationSans-Bold-32" transform="translate(250.244141 0)"/>
       <use xlink:href="#LiberationSans-Bold-35" transform="translate(305.859375 0)"/>
      </g>
     </g>
    </g>
    <g id="xtick_2">
     <g id="line2d_3">
      <path d="M 258.512687 589.343192 
L 258.512687 31.2 
" clip-path="url(#p81d74336c0)" style="fill: none; stroke: #cccccc; stroke-width: 0.8; stroke-linecap: round"/>
     </g>
     <g id="line2d_4"/>
     <g id="text_2">
      <!-- 09/2025 -->
      <g style="fill: #616161" transform="translate(243.182391 635.797719) rotate(-45) scale(0.14 -0.14)">
       <defs>
        <path id="LiberationSans-Bold-39" d="M 3322 2272 
Q 3322 1100 2894 518 
Q 2466 -63 1678 -63 
Q 1097 -63 767 185 
Q 438 434 300 972 
L 1125 1088 
Q 1247 628 1688 628 
Q 2056 628 2254 981 
Q 2453 1334 2459 2028 
Q 2341 1794 2070 1661 
Q 1800 1528 1488 1528 
Q 906 1528 564 1923 
Q 222 2319 222 2994 
Q 222 3688 623 4078 
Q 1025 4469 1759 4469 
Q 2550 4469 2936 3920 
Q 3322 3372 3322 2272 
z
M 2394 2888 
Q 2394 3297 2214 3539 
Q 2034 3781 1738 3781 
Q 1447 3781 1280 3570 
Q 1113 3359 1113 2988 
Q 1113 2622 1278 2401 
Q 1444 2181 1741 2181 
Q 2022 2181 2208 2373 
Q 2394 2566 2394 2888 
z
" transform="scale(0.015625)"/>
       </defs>
       <use xlink:href="#LiberationSans-Bold-30"/>
       <use xlink:href="#LiberationSans-Bold-39" transform="translate(55.615234 0)"/>
       <use xlink:href="#LiberationSans-Bold-2f" transform="translate(111.230469 0)"/>
       <use xlink:href="#LiberationSans-Bold-32" transform="translate(139.013672 0)"/>
       <use xlink:href="#LiberationSans-Bold-30" transform="translate(194.628906 0)"/>
       <use xlink:href="#LiberationSans-Bold-32" transform="translate(250.244141 0)"/>
       <use xlink:href="#LiberationSans-Bold-35" transform="translate(305.859375 0)"/>
      </g>
     </g>
    </g>
    <g id="xtick_3">
     <g id="line2d_5">
      <path d="M 377.250278 589.343192 
L 377.250278 31.2 
" clip-path="url(#p81d74336c0)" style="fill: none; stroke: #cccccc; stroke-width: 0.8; stroke-linecap: round"/>
     </g>
     <g id="line2d_6"/>
     <g id="text_3">
      <!-- 10/2025 -->
      <g style="fill: #616161" transform="translate(361.919982 635.797719) rotate(-45) scale(0.14 -0.14)">
       <defs>
        <path id="LiberationSans-Bold-31" d="M 403 0 
L 403 653 
L 1494 653 
L 1494 3656 
L 438 2997 
L 438 3688 
L 1541 4403 
L 2372 4403 
L 2372 653 
L 3381 653 
L 3381 0 
L 403 0 
z
" transform="scale(0.015625)"/>
       </defs>
       <use xlink:href="#LiberationSans-Bold-31"/>
       <use xlink:href="#LiberationSans-Bold-30" transform="translate(55.615234 0)"/>
       <use xlink:href="#LiberationSans-Bold-2f" transform="translate(111.230469 0)"/>
       <use xlink:href="#LiberationSans-Bold-32" transform="translate(139.013672 0)"/>
       <use xlink:href="#LiberationSans-Bold-30" transform="translate(194.628906 0)"/>
       <use xlink:href="#LiberationSans-Bold-32" transform="translate(250.244141 0)"/>
       <use xlink:href="#LiberationSans-Bold-35" transform="translate(305.859375 0)"/>
      </g>
     </g>
    </g>
    <g id="xtick_4">
     <g id="line2d_7">
      <path d="M 499.945789 589.343192 
L 499.945789 31.2 
" clip-path="url(#p81d74336c0)" style="fill: none; stroke: #cccccc; stroke-width: 0.8; stroke-linecap: round"/>
     </g>
     <g id="line2d_8"/>
     <g id="text_4">
      <!-- 11/2025 -->
      <g style="fill: #616161" transform="translate(484.887729 635.253247) rotate(-45) scale(0.14 -0.14)">
       <use xlink:href="#LiberationSans-Bold-31"/>
       <use xlink:href="#LiberationSans-Bold-31" transform="translate(50.115234 0)"/>
       <use xlink:href="#LiberationSans-Bold-2f" transform="translate(105.730469 0)"/>
       <use xlink:href="#LiberationSans-Bold-32" transform="translate(133.513672 0)"/>
       <use xlink:href="#LiberationSans-Bold-30" transform="translate(189.128906 0)"/>
       <use xlink:href="#LiberationSans-Bold-32" transform="translate(244.744141 0)"/>
       <use xlink:href="#LiberationSans-Bold-35" transform="translate(300.359375 0)"/>
      </g>
     </g>
    </g>
    <g id="xtick_5">
     <g id="line2d_9">
      <path d="M 618.68338 589.343192 
L 618.68338 31.2 
" clip-path="url(#p81d74336c0)" style="fill: none; stroke: #cccccc; stroke-width: 0.8; stroke-linecap: round"/>
     </g>
     <g id="line2d_10"/>
     <g id="text_5">
      <!-- 12/2025 -->
      <g style="fill: #616161" transform="translate(603.353084 635.797719) rotate(-45) scale(0.14 -0.14)">
       <use xlink:href="#LiberationSans-Bold-31"/>
       <use xlink:href="#LiberationSans-Bold-32" transform="translate(55.615234 0)"/>
       <use xlink:href="#LiberationSans-Bold-2f" transform="translate(111.230469 0)"/>
       <use xlink:href="#LiberationSans-Bold-32" transform="translate(139.013672 0)"/>
       <use xlink:href="#LiberationSans-Bold-30" transform="translate(194.628906 0)"/>
       <use xlink:href="#LiberationSans-Bold-32" transform="translate(250.244141 0)"/>
       <use xlink:href="#LiberationSans-Bold-35" transform="translate(305.859375 0)"/>
      </g>
     </g>
    </g>
    <g id="xtick_6">
     <g id="line2d_11">
      <path d="M 741.378891 589.343192 
L 741.378891 31.2 
" clip-path="url(#p81d74336c0)" style="fill: none; stroke: #cccccc; stroke-width: 0.8; stroke-linecap: round"/>
     </g>
     <g id="line2d_12"/>
     <g id="text_6">
      <!-- 01/2026 -->
      <g style="fill: #616161" transform="translate(726.048595 635.797719) rotate(-45) scale(0.14 -0.14)">
       <defs>
        <path id="LiberationSans-Bold-36" d="M 3328 1441 
Q 3328 738 2934 337 
Q 2541 -63 1847 -63 
Q 1069 -63 651 482 
Q 234 1028 234 2100 
Q 234 3278 657 3873 
Q 1081 4469 1869 4469 
Q 2428 4469 2751 4222 
Q 3075 3975 3209 3456 
L 2381 3341 
Q 2263 3775 1850 3775 
Q 1497 3775 1295 3422 
Q 1094 3069 1094 2350 
Q 1234 2584 1484 2709 
Q 1734 2834 2050 2834 
Q 2641 2834 2984 2459 
Q 3328 2084 3328 1441 
z
M 2447 1416 
Q 2447 1791 2273 1989 
Q 2100 2188 1797 2188 
Q 1506 2188 1331 2002 
Q 1156 1816 1156 1509 
Q 1156 1125 1339 873 
Q 1522 622 1819 622 
Q 2116 622 2281 833 
Q 2447 1044 2447 1416 
z
" transform="scale(0.015625)"/>
       </defs>
       <use xlink:href="#LiberationSans-Bold-30"/>
       <use xlink:href="#LiberationSans-Bold-31" transform="translate(55.615234 0)"/>
       <use xlink:href="#LiberationSans-Bold-2f" transform="translate(111.230469 0)"/>
       <use xlink:href="#LiberationSans-Bold-32" transform="translate(139.013672 0)"/>
       <use xlink:href="#LiberationSans-Bold-30" transform="translate(194.628906 0)"/>
       <use xlink:href="#LiberationSans-Bold-32" transform="translate(250.244141 0)"/>
       <use xlink:href="#LiberationSans-Bold-36" transform="translate(305.859375 0)"/>
      </g>
     </g>
    </g>
    <g id="xtick_7">
     <g id="line2d_13">
      <path d="M 864.074402 589.343192 
L 864.074402 31.2 
" clip-path="url(#p81d74336c0)" style="fill: none; stroke: #cccccc; stroke-width: 0.8; stroke-linecap: round"/>
     </g>
     <g id="line2d_14"/>
     <g id="text_7">
      <!-- 02/2026 -->
      <g style="fill: #616161" transform="translate(848.744106 635.797719) rotate(-45) scale(0.14 -0.14)">
       <use xlink:href="#LiberationSans-Bold-30"/>
       <use xlink:href="#LiberationSans-Bold-32" transform="translate(55.615234 0)"/>
       <use xlink:href="#LiberationSans-Bold-2f" transform="translate(111.230469 0)"/>
       <use xlink:href="#LiberationSans-Bold-32" transform="translate(139.013672 0)"/>
       <use xlink:href="#LiberationSans-Bold-30" transform="translate(194.628906 0)"/>
       <use xlink:href="#LiberationSans-Bold-32" transform="translate(250.244141 0)"/>
       <use xlink:href="#LiberationSans-Bold-36" transform="translate(305.859375 0)"/>
      </g>
     </g>
    </g>
    <g id="xtick_8">
     <g id="line2d_15">
      <path d="M 974.896154 589.343192 
L 974.896154 31.2 
" clip-path="url(#p81d74336c0)" style="fill: none; stroke: #cccccc; stroke-width: 0.8; stroke-linecap: round"/>
     </g>
     <g id="line2d_16"/>
     <g id="text_8">
      <!-- 03/2026 -->
      <g style="fill: #616161" transform="translate(959.565858 635.797719) rotate(-45) scale(0.14 -0.14)">
       <defs>
        <path id="LiberationSans-Bold-33" d="M 3328 1222 
Q 3328 603 2922 265 
Q 2516 -72 1766 -72 
Q 1056 -72 637 254 
Q 219 581 147 1197 
L 1041 1275 
Q 1125 641 1763 641 
Q 2078 641 2253 797 
Q 2428 953 2428 1275 
Q 2428 1569 2215 1725 
Q 2003 1881 1584 1881 
L 1278 1881 
L 1278 2591 
L 1566 2591 
Q 1944 2591 2134 2745 
Q 2325 2900 2325 3188 
Q 2325 3459 2173 3614 
Q 2022 3769 1731 3769 
Q 1459 3769 1292 3619 
Q 1125 3469 1100 3194 
L 222 3256 
Q 291 3825 694 4147 
Q 1097 4469 1747 4469 
Q 2438 4469 2827 4158 
Q 3216 3847 3216 3297 
Q 3216 2884 2973 2618 
Q 2731 2353 2275 2266 
L 2275 2253 
Q 2781 2194 3054 1920 
Q 3328 1647 3328 1222 
z
" transform="scale(0.015625)"/>
       </defs>
       <use xlink:href="#LiberationSans-Bold-30"/>
       <use xlink:href="#LiberationSans-Bold-33" transform="translate(55.615234 0)"/>
       <use xlink:href="#LiberationSans-Bold-2f" transform="translate(111.230469 0)"/>
       <use xlink:href="#LiberationSans-Bold-32" transform="translate(139.013672 0)"/>
       <use xlink:href="#LiberationSans-Bold-30" transform="translate(194.628906 0)"/>
       <use xlink:href="#LiberationSans-Bold-32" transform="translate(250.244141 0)"/>
       <use xlink:href="#LiberationSans-Bold-36" transform="translate(305.859375 0)"/>
      </g>
     </g>
    </g>
    <g id="xtick_9">
     <g id="line2d_17">
      <path d="M 1097.591665 589.343192 
L 1097.591665 31.2 
" clip-path="url(#p81d74336c0)" style="fill: none; stroke: #cccccc; stroke-width: 0.8; stroke-linecap: round"/>
     </g>
     <g id="line2d_18"/>
     <g id="text_9">
      <!-- 04/2026 -->
      <g style="fill: #616161" transform="translate(1082.261369 635.797719) rotate(-45) scale(0.14 -0.14)">
       <defs>
        <path id="LiberationSans-Bold-34" d="M 2938 897 
L 2938 0 
L 2100 0 
L 2100 897 
L 97 897 
L 97 1556 
L 1956 4403 
L 2938 4403 
L 2938 1550 
L 3525 1550 
L 3525 897 
L 2938 897 
z
M 2100 2991 
Q 2100 3159 2111 3356 
Q 2122 3553 2128 3609 
Q 2047 3434 1834 3103 
L 813 1550 
L 2100 1550 
L 2100 2991 
z
" transform="scale(0.015625)"/>
       </defs>
       <use xlink:href="#LiberationSans-Bold-30"/>
       <use xlink:href="#LiberationSans-Bold-34" transform="translate(55.615234 0)"/>
       <use xlink:href="#LiberationSans-Bold-2f" transform="translate(111.230469 0)"/>
       <use xlink:href="#LiberationSans-Bold-32" transform="translate(139.013672 0)"/>
       <use xlink:href="#LiberationSans-Bold-30" transform="translate(194.628906 0)"/>
       <use xlink:href="#LiberationSans-Bold-32" transform="translate(250.244141 0)"/>
       <use xlink:href="#LiberationSans-Bold-36" transform="translate(305.859375 0)"/>
      </g>
     </g>
    </g>
   </g>
   <g id="matplotlib.axis_2">
    <g id="ytick_1">
     <g id="line2d_19">
      <path d="M 56.73 589.343192 
L 1141.2 589.343192 
" clip-path="url(#p81d74336c0)" style="fill: none; stroke: #cccccc; stroke-width: 0.8; stroke-linecap: round"/>
     </g>
     <g id="line2d_20"/>
     <g id="text_10">
      <!-- 0k -->
      <g style="fill: #616161" transform="translate(37.659375 594.416004) scale(0.14 -0.14)">
       <defs>
        <path id="LiberationSans-Bold-6b" d="M 2606 0 
L 1703 1531 
L 1325 1269 
L 1325 0 
L 447 0 
L 447 4638 
L 1325 4638 
L 1325 1981 
L 2531 3381 
L 3475 3381 
L 2288 2063 
L 3566 0 
L 2606 0 
z
" transform="scale(0.015625)"/>
       </defs>
       <use xlink:href="#LiberationSans-Bold-30"/>
       <use xlink:href="#LiberationSans-Bold-6b" transform="translate(55.615234 0)"/>
      </g>
     </g>
    </g>
    <g id="ytick_2">
     <g id="line2d_21">
      <path d="M 56.73 516.908191 
L 1141.2 516.908191 
" clip-path="url(#p81d74336c0)" style="fill: none; stroke: #cccccc; stroke-width: 0.8; stroke-linecap: round"/>
     </g>
     <g id="line2d_22"/>
     <g id="text_11">
      <!-- 10k -->
      <g style="fill: #616161" transform="translate(29.874062 521.981003) scale(0.14 -0.14)">
       <use xlink:href="#LiberationSans-Bold-31"/>
       <use xlink:href="#LiberationSans-Bold-30" transform="translate(55.615234 0)"/>
       <use xlink:href="#LiberationSans-Bold-6b" transform="translate(111.230469 0)"/>
      </g>
     </g>
    </g>
    <g id="ytick_3">
     <g id="line2d_23">
      <path d="M 56.73 444.47319 
L 1141.2 444.47319 
" clip-path="url(#p81d74336c0)" style="fill: none; stroke: #cccccc; stroke-width: 0.8; stroke-linecap: round"/>
     </g>
     <g id="line2d_24"/>
     <g id="text_12">
      <!-- 20k -->
      <g style="fill: #616161" transform="translate(29.874062 449.546002) scale(0.14 -0.14)">
       <use xlink:href="#LiberationSans-Bold-32"/>
       <use xlink:href="#LiberationSans-Bold-30" transform="translate(55.615234 0)"/>
       <use xlink:href="#LiberationSans-Bold-6b" transform="translate(111.230469 0)"/>
      </g>
     </g>
    </g>
    <g id="ytick_4">
     <g id="line2d_25">
      <path d="M 56.73 372.038189 
L 1141.2 372.038189 
" clip-path="url(#p81d74336c0)" style="fill: none; stroke: #cccccc; stroke-width: 0.8; stroke-linecap: round"/>
     </g>
     <g id="line2d_26"/>
     <g id="text_13">
      <!-- 30k -->
      <g style="fill: #616161" transform="translate(29.874062 377.111001) scale(0.14 -0.14)">
       <use xlink:href="#LiberationSans-Bold-33"/>
       <use xlink:href="#LiberationSans-Bold-30" transform="translate(55.615234 0)"/>
       <use xlink:href="#LiberationSans-Bold-6b" transform="translate(111.230469 0)"/>
      </g>
     </g>
    </g>
    <g id="ytick_5">
     <g id="line2d_27">
      <path d="M 56.73 299.603188 
L 1141.2 299.603188 
" clip-path="url(#p81d74336c0)" style="fill: none; stroke: #cccccc; stroke-width: 0.8; stroke-linecap: round"/>
     </g>
     <g id="line2d_28"/>
     <g id="text_14">
      <!-- 40k -->
      <g style="fill: #616161" transform="translate(29.874062 304.676) scale(0.14 -0.14)">
       <use xlink:href="#LiberationSans-Bold-34"/>
       <use xlink:href="#LiberationSans-Bold-30" transform="translate(55.615234 0)"/>
       <use xlink:href="#LiberationSans-Bold-6b" transform="translate(111.230469 0)"/>
      </g>
     </g>
    </g>
    <g id="ytick_6">
     <g id="line2d_29">
      <path d="M 56.73 227.168187 
L 1141.2 227.168187 
" clip-path="url(#p81d74336c0)" style="fill: none; stroke: #cccccc; stroke-width: 0.8; stroke-linecap: round"/>
     </g>
     <g id="line2d_30"/>
     <g id="text_15">
      <!-- 50k -->
      <g style="fill: #616161" transform="translate(29.874062 232.240999) scale(0.14 -0.14)">
       <use xlink:href="#LiberationSans-Bold-35"/>
       <use xlink:href="#LiberationSans-Bold-30" transform="translate(55.615234 0)"/>
       <use xlink:href="#LiberationSans-Bold-6b" transform="translate(111.230469 0)"/>
      </g>
     </g>
    </g>
    <g id="ytick_7">
     <g id="line2d_31">
      <path d="M 56.73 154.733186 
L 1141.2 154.733186 
" clip-path="url(#p81d74336c0)" style="fill: none; stroke: #cccccc; stroke-width: 0.8; stroke-linecap: round"/>
     </g>
     <g id="line2d_32"/>
     <g id="text_16">
      <!-- 60k -->
      <g style="fill: #616161" transform="translate(29.874062 159.805998) scale(0.14 -0.14)">
       <use xlink:href="#LiberationSans-Bold-36"/>
       <use xlink:href="#LiberationSans-Bold-30" transform="translate(55.615234 0)"/>
       <use xlink:href="#LiberationSans-Bold-6b" transform="translate(111.230469 0)"/>
      </g>
     </g>
    </g>
    <g id="ytick_8">
     <g id="line2d_33">
      <path d="M 56.73 82.298185 
L 1141.2 82.298185 
" clip-path="url(#p81d74336c0)" style="fill: none; stroke: #cccccc; stroke-width: 0.8; stroke-linecap: round"/>
     </g>
     <g id="line2d_34"/>
     <g id="text_17">
      <!-- 70k -->
      <g style="fill: #616161" transform="translate(29.874062 87.370997) scale(0.14 -0.14)">
       <defs>
        <path id="LiberationSans-Bold-37" d="M 3278 3706 
Q 2981 3238 2717 2797 
Q 2453 2356 2256 1911 
Q 2059 1466 1945 995 
Q 1831 525 1831 0 
L 916 0 
Q 916 550 1059 1064 
Q 1203 1578 1475 2111 
Q 1747 2644 2463 3681 
L 275 3681 
L 275 4403 
L 3278 4403 
L 3278 3706 
z
" transform="scale(0.015625)"/>
       </defs>
       <use xlink:href="#LiberationSans-Bold-37"/>
       <use xlink:href="#LiberationSans-Bold-30" transform="translate(55.615234 0)"/>
       <use xlink:href="#LiberationSans-Bold-6b" transform="translate(111.230469 0)"/>
      </g>
     </g>
    </g>
    <g id="text_18">
     <!-- Devices -->
     <g style="fill: #616161" transform="translate(22.554062 340.515346) rotate(-90) scale(0.16 -0.16)">
      <defs>
       <path id="LiberationSans-Bold-44" d="M 4353 2234 
Q 4353 1553 4086 1045 
Q 3819 538 3330 269 
Q 2841 0 2209 0 
L 428 0 
L 428 4403 
L 2022 4403 
Q 3134 4403 3743 3842 
Q 4353 3281 4353 2234 
z
M 3425 2234 
Q 3425 2944 3056 3317 
Q 2688 3691 2003 3691 
L 1350 3691 
L 1350 713 
L 2131 713 
Q 2725 713 3075 1122 
Q 3425 1531 3425 2234 
z
" transform="scale(0.015625)"/>
       <path id="LiberationSans-Bold-65" d="M 1831 -63 
Q 1069 -63 659 389 
Q 250 841 250 1706 
Q 250 2544 665 2994 
Q 1081 3444 1844 3444 
Q 2572 3444 2956 2961 
Q 3341 2478 3341 1547 
L 3341 1522 
L 1172 1522 
Q 1172 1028 1355 776 
Q 1538 525 1875 525 
Q 2341 525 2463 928 
L 3291 856 
Q 2931 -63 1831 -63 
z
M 1831 2891 
Q 1522 2891 1355 2675 
Q 1188 2459 1178 2072 
L 2491 2072 
Q 2466 2481 2294 2686 
Q 2122 2891 1831 2891 
z
" transform="scale(0.015625)"/>
       <path id="LiberationSans-Bold-76" d="M 2284 0 
L 1234 0 
L 25 3381 
L 953 3381 
L 1544 1491 
Q 1591 1334 1766 709 
Q 1797 838 1894 1159 
Q 1991 1481 2613 3381 
L 3531 3381 
L 2284 0 
z
" transform="scale(0.015625)"/>
       <path id="LiberationSans-Bold-69" d="M 447 3991 
L 447 4638 
L 1325 4638 
L 1325 3991 
L 447 3991 
z
M 447 0 
L 447 3381 
L 1325 3381 
L 1325 0 
L 447 0 
z
" transform="scale(0.015625)"/>
       <path id="LiberationSans-Bold-63" d="M 1856 -63 
Q 1088 -63 669 395 
Q 250 853 250 1672 
Q 250 2509 672 2976 
Q 1094 3444 1869 3444 
Q 2466 3444 2856 3144 
Q 3247 2844 3347 2316 
L 2463 2272 
Q 2425 2531 2275 2686 
Q 2125 2841 1850 2841 
Q 1172 2841 1172 1706 
Q 1172 538 1863 538 
Q 2113 538 2281 695 
Q 2450 853 2491 1166 
L 3372 1125 
Q 3325 778 3123 506 
Q 2922 234 2594 85 
Q 2266 -63 1856 -63 
z
" transform="scale(0.015625)"/>
       <path id="LiberationSans-Bold-73" d="M 3297 988 
Q 3297 497 2895 217 
Q 2494 -63 1784 -63 
Q 1088 -63 717 157 
Q 347 378 225 844 
L 997 959 
Q 1063 719 1223 619 
Q 1384 519 1784 519 
Q 2153 519 2322 612 
Q 2491 706 2491 906 
Q 2491 1069 2355 1164 
Q 2219 1259 1894 1325 
Q 1150 1472 890 1598 
Q 631 1725 495 1926 
Q 359 2128 359 2422 
Q 359 2906 732 3176 
Q 1106 3447 1791 3447 
Q 2394 3447 2761 3212 
Q 3128 2978 3219 2534 
L 2441 2453 
Q 2403 2659 2256 2761 
Q 2109 2863 1791 2863 
Q 1478 2863 1322 2783 
Q 1166 2703 1166 2516 
Q 1166 2369 1286 2283 
Q 1406 2197 1691 2141 
Q 2088 2059 2395 1973 
Q 2703 1888 2889 1769 
Q 3075 1650 3186 1464 
Q 3297 1278 3297 988 
z
" transform="scale(0.015625)"/>
      </defs>
      <use xlink:href="#LiberationSans-Bold-44"/>
      <use xlink:href="#LiberationSans-Bold-65" transform="translate(72.216797 0)"/>
      <use xlink:href="#LiberationSans-Bold-76" transform="translate(127.832031 0)"/>
      <use xlink:href="#LiberationSans-Bold-69" transform="translate(183.447266 0)"/>
      <use xlink:href="#LiberationSans-Bold-63" transform="translate(211.230469 0)"/>
      <use xlink:href="#LiberationSans-Bold-65" transform="translate(266.845703 0)"/>
      <use xlink:href="#LiberationSans-Bold-73" transform="translate(322.460938 0)"/>
     </g>
    </g>
   </g>
   <g id="line2d_35">
    <path d="M 60.616701 424.329016 
L 88.322139 395.434694 
L 116.027577 396.231479 
L 143.733015 390.588792 
L 171.438453 391.972301 
L 199.143891 389.19804 
L 226.849329 385.373472 
L 254.554767 381.157755 
L 282.260205 375.442634 
L 309.965643 372.740808 
L 337.671081 370.821281 
L 365.376519 370.212827 
L 393.081957 358.376948 
L 420.787395 350.894412 
L 448.492833 338.406618 
L 476.198271 322.963476 
L 503.903709 313.583143 
L 531.609146 312.72841 
L 559.314584 299.987093 
L 587.020022 273.562805 
L 614.72546 241.314743 
L 642.430898 246.015774 
L 670.136336 218.591883 
L 697.841774 199.787756 
L 725.547212 170.871704 
L 753.25265 136.327452 
L 780.958088 149.85831 
L 808.663526 159.072042 
L 836.368964 127.331025 
L 864.074402 118.885104 
L 891.77984 113.619079 
L 919.485278 103.456449 
L 947.190716 95.010528 
L 974.896154 94.467265 
L 1002.601592 87.977089 
L 1030.30703 68.941171 
L 1058.012468 71.07076 
L 1085.717906 72.693304 
L 1113.423344 57.641311 
" clip-path="url(#p81d74336c0)" style="fill: none; stroke: #6c3fc4; stroke-width: 5; stroke-linecap: round"/>
   </g>
   <g id="line2d_36">
    <path d="M 60.616701 547.504735 
L 88.322139 538.827022 
L 116.027577 541.021802 
L 143.733015 542.166275 
L 171.438453 540.225017 
L 199.143891 540.949367 
L 226.849329 538.211324 
L 254.554767 538.225811 
L 282.260205 539.312336 
L 309.965643 538.030237 
L 337.671081 537.552166 
L 365.376519 541.478143 
L 393.081957 541.311542 
L 420.787395 538.095428 
L 448.492833 538.913944 
L 476.198271 538.109915 
L 503.903709 533.292988 
L 531.609146 536.27731 
L 559.314584 536.378719 
L 587.020022 537.458 
L 614.72546 535.103863 
L 642.430898 538.61696 
L 670.136336 536.726407 
L 697.841774 532.930813 
L 725.547212 538.218568 
L 753.25265 534.372269 
L 780.958088 532.025375 
L 808.663526 530.424562 
L 836.368964 525.897374 
L 864.074402 518.48003 
L 891.77984 523.680863 
L 919.485278 524.238613 
L 947.190716 524.4197 
L 974.896154 526.30301 
L 1002.601592 524.238613 
L 1030.30703 522.043832 
L 1058.012468 522.731965 
L 1085.717906 524.216882 
L 1113.423344 520.711028 
" clip-path="url(#p81d74336c0)" style="fill: none; stroke: #99ddff; stroke-width: 5; stroke-linecap: round"/>
   </g>
   <g id="line2d_37">
    <path d="M 60.616701 567.561987 
L 88.322139 562.795764 
L 116.027577 564.09235 
L 143.733015 566.432001 
L 171.438453 565.041249 
L 199.143891 564.758752 
L 226.849329 563.324539 
L 254.554767 563.215887 
L 282.260205 564.193759 
L 309.965643 563.013069 
L 337.671081 563.701201 
L 365.376519 566.250913 
L 393.081957 566.96802 
L 420.787395 565.613485 
L 448.492833 564.50523 
L 476.198271 562.868199 
L 503.903709 560.948671 
L 531.609146 563.556331 
L 559.314584 563.578062 
L 587.020022 564.461769 
L 614.72546 564.309655 
L 642.430898 565.135414 
L 670.136336 562.875442 
L 697.841774 560.296756 
L 725.547212 562.440832 
L 753.25265 560.412652 
L 780.958088 559.101579 
L 808.663526 558.304794 
L 836.368964 554.82067 
L 864.074402 550.025473 
L 891.77984 552.973578 
L 919.485278 553.132935 
L 947.190716 551.213407 
L 974.896154 552.538968 
L 1002.601592 551.524878 
L 1030.30703 554.270164 
L 1058.012468 551.749426 
L 1085.717906 554.444008 
L 1113.423344 551.459686 
" clip-path="url(#p81d74336c0)" style="fill: none; stroke: #eedd88; stroke-width: 5; stroke-linecap: round"/>
   </g>
   <g id="line2d_38">
    <path d="M 60.616701 573.21916 
L 88.322139 571.33585 
L 116.027577 571.502451 
L 143.733015 569.358375 
L 171.438453 569.30767 
L 199.143891 569.662602 
L 226.849329 570.401439 
L 254.554767 568.916521 
L 282.260205 566.38854 
L 309.965643 565.816303 
L 337.671081 567.409873 
L 365.376519 569.59741 
L 393.081957 567.351925 
L 420.787395 566.996994 
L 448.492833 566.0988 
L 476.198271 562.947877 
L 503.903709 564.23722 
L 531.609146 567.533013 
L 559.314584 569.727793 
L 587.020022 566.605845 
L 614.72546 566.801419 
L 642.430898 566.417514 
L 670.136336 566.41027 
L 697.841774 566.910072 
L 725.547212 567.091159 
L 753.25265 564.845674 
L 780.958088 565.330989 
L 808.663526 565.598998 
L 836.368964 565.584511 
L 864.074402 565.671433 
L 891.77984 565.483102 
L 919.485278 565.468615 
L 947.190716 565.417911 
L 974.896154 564.048889 
L 1002.601592 563.904019 
L 1030.30703 563.592549 
L 1058.012468 563.976454 
L 1085.717906 564.555934 
L 1113.423344 564.019915 
" clip-path="url(#p81d74336c0)" style="fill: none; stroke: #77aadd; stroke-width: 5; stroke-linecap: round"/>
   </g>
   <g id="line2d_39">
    <path d="M 60.616701 578.492428 
L 88.322139 576.26143 
L 116.027577 577.789809 
L 143.733015 573.957997 
L 171.438453 575.471889 
L 199.143891 576.732258 
L 226.849329 575.124201 
L 254.554767 576.935076 
L 282.260205 576.058612 
L 309.965643 576.67431 
L 337.671081 576.319378 
L 365.376519 576.913345 
L 393.081957 575.638489 
L 420.787395 575.500863 
L 448.492833 574.407094 
L 476.198271 572.18334 
L 503.903709 573.494413 
L 531.609146 575.269071 
L 559.314584 576.493222 
L 587.020022 575.39221 
L 614.72546 574.008702 
L 642.430898 574.979331 
L 670.136336 574.573695 
L 697.841774 573.356787 
L 725.547212 574.559208 
L 753.25265 573.161212 
L 780.958088 573.19743 
L 808.663526 572.603463 
L 836.368964 572.668654 
L 864.074402 572.538271 
L 891.77984 572.885959 
L 919.485278 571.828408 
L 947.190716 571.198224 
L 974.896154 571.292389 
L 1002.601592 571.009893 
L 1030.30703 570.32176 
L 1058.012468 571.038867 
L 1085.717906 571.538668 
L 1113.423344 572.161609 
" clip-path="url(#p81d74336c0)" style="fill: none; stroke: #ee8866; stroke-width: 5; stroke-linecap: round"/>
   </g>
   <g id="line2d_40">
    <path d="M 60.616701 586.467522 
L 88.322139 585.395484 
L 116.027577 585.77939 
L 143.733015 585.554841 
L 171.438453 585.250614 
L 199.143891 585.033309 
L 226.849329 585.120231 
L 254.554767 585.178179 
L 282.260205 585.250614 
L 309.965643 584.852222 
L 337.671081 584.098898 
L 365.376519 584.555238 
L 393.081957 583.89608 
L 420.787395 584.721839 
L 448.492833 584.656647 
L 476.198271 584.700108 
L 503.903709 584.18582 
L 531.609146 584.323446 
L 559.314584 584.156846 
L 587.020022 583.990245 
L 614.72546 583.89608 
L 642.430898 584.142359 
L 670.136336 583.983002 
L 697.841774 583.432496 
L 725.547212 583.178973 
L 753.25265 583.186217 
L 780.958088 582.88199 
L 808.663526 583.005129 
L 836.368964 582.729876 
L 864.074402 582.548789 
L 891.77984 582.193857 
L 919.485278 582.331484 
L 947.190716 581.194254 
L 974.896154 581.45502 
L 1002.601592 581.788221 
L 1030.30703 581.701299 
L 1058.012468 581.28842 
L 1085.717906 581.643351 
L 1113.423344 581.31015 
" clip-path="url(#p81d74336c0)" style="fill: none; stroke: #ffaabb; stroke-width: 5; stroke-linecap: round"/>
   </g>
   <g id="patch_3">
    <path d="M 56.73 589.343192 
L 56.73 31.2 
" style="fill: none"/>
   </g>
   <g id="patch_4">
    <path d="M 1141.2 589.343192 
L 1141.2 31.2 
" style="fill: none"/>
   </g>
   <g id="patch_5">
    <path d="M 56.73 589.343192 
L 1141.2 589.343192 
" style="fill: none"/>
   </g>
   <g id="patch_6">
    <path d="M 56.73 31.2 
L 1141.2 31.2 
" style="fill: none"/>
   </g>
   <g id="text_19">
    <!-- Active Users (Weekly) -->
    <g transform="translate(494.654063 25.2) scale(0.2 -0.2)">
     <defs>
      <path id="LiberationSans-Bold-41" d="M 3541 0 
L 3150 1125 
L 1472 1125 
L 1081 0 
L 159 0 
L 1766 4403 
L 2853 4403 
L 4453 0 
L 3541 0 
z
M 2309 3725 
L 2291 3656 
Q 2259 3544 2215 3400 
Q 2172 3256 1678 1819 
L 2944 1819 
L 2509 3084 
L 2375 3509 
L 2309 3725 
z
" transform="scale(0.015625)"/>
      <path id="LiberationSans-Bold-74" d="M 1313 -56 
Q 925 -56 715 155 
Q 506 366 506 794 
L 506 2788 
L 78 2788 
L 78 3381 
L 550 3381 
L 825 4175 
L 1375 4175 
L 1375 3381 
L 2016 3381 
L 2016 2788 
L 1375 2788 
L 1375 1031 
Q 1375 784 1469 667 
Q 1563 550 1759 550 
Q 1863 550 2053 594 
L 2053 50 
Q 1728 -56 1313 -56 
z
" transform="scale(0.015625)"/>
      <path id="LiberationSans-Bold-20" transform="scale(0.015625)"/>
      <path id="LiberationSans-Bold-55" d="M 2259 -63 
Q 1350 -63 867 381 
Q 384 825 384 1650 
L 384 4403 
L 1306 4403 
L 1306 1722 
Q 1306 1200 1554 929 
Q 1803 659 2284 659 
Q 2778 659 3043 942 
Q 3309 1225 3309 1753 
L 3309 4403 
L 4231 4403 
L 4231 1697 
Q 4231 859 3714 398 
Q 3197 -63 2259 -63 
z
" transform="scale(0.015625)"/>
      <path id="LiberationSans-Bold-72" d="M 447 0 
L 447 2588 
Q 447 2866 439 3052 
Q 431 3238 422 3381 
L 1259 3381 
Q 1269 3325 1284 3039 
Q 1300 2753 1300 2659 
L 1313 2659 
Q 1441 3016 1541 3161 
Q 1641 3306 1778 3376 
Q 1916 3447 2122 3447 
Q 2291 3447 2394 3400 
L 2394 2666 
Q 2181 2713 2019 2713 
Q 1691 2713 1508 2447 
Q 1325 2181 1325 1659 
L 1325 0 
L 447 0 
z
" transform="scale(0.015625)"/>
      <path id="LiberationSans-Bold-28" d="M 1247 -1328 
Q 756 -622 537 81 
Q 319 784 319 1659 
Q 319 2531 537 3232 
Q 756 3934 1247 4638 
L 2125 4638 
Q 1631 3925 1407 3219 
Q 1184 2513 1184 1656 
Q 1184 803 1406 101 
Q 1628 -600 2125 -1328 
L 1247 -1328 
z
" transform="scale(0.015625)"/>
      <path id="LiberationSans-Bold-57" d="M 4897 0 
L 3803 0 
L 3206 2547 
Q 3097 2997 3022 3488 
Q 2947 3078 2900 2864 
Q 2853 2650 2234 0 
L 1141 0 
L 6 4403 
L 941 4403 
L 1578 1559 
L 1722 872 
Q 1809 1306 1892 1701 
Q 1975 2097 2516 4403 
L 3547 4403 
L 4103 2059 
Q 4169 1797 4325 872 
L 4403 1234 
L 4569 1953 
L 5100 4403 
L 6034 4403 
L 4897 0 
z
" transform="scale(0.015625)"/>
      <path id="LiberationSans-Bold-6c" d="M 447 0 
L 447 4638 
L 1325 4638 
L 1325 0 
L 447 0 
z
" transform="scale(0.015625)"/>
      <path id="LiberationSans-Bold-79" d="M 884 -1328 
Q 569 -1328 331 -1288 
L 331 -663 
Q 497 -688 634 -688 
Q 822 -688 945 -628 
Q 1069 -569 1167 -431 
Q 1266 -294 1388 34 
L 50 3381 
L 978 3381 
L 1509 1797 
Q 1634 1456 1825 753 
L 1903 1050 
L 2106 1784 
L 2606 3381 
L 3525 3381 
L 2188 -178 
Q 1919 -828 1630 -1078 
Q 1341 -1328 884 -1328 
z
" transform="scale(0.015625)"/>
      <path id="LiberationSans-Bold-29" d="M 6 -1328 
Q 506 -597 726 101 
Q 947 800 947 1656 
Q 947 2516 722 3223 
Q 497 3931 6 4638 
L 884 4638 
Q 1378 3928 1595 3225 
Q 1813 2522 1813 1659 
Q 1813 791 1595 87 
Q 1378 -616 884 -1328 
L 6 -1328 
z
" transform="scale(0.015625)"/>
     </defs>
     <use xlink:href="#LiberationSans-Bold-41"/>
     <use xlink:href="#LiberationSans-Bold-63" transform="translate(72.216797 0)"/>
     <use xlink:href="#LiberationSans-Bold-74" transform="translate(127.832031 0)"/>
     <use xlink:href="#LiberationSans-Bold-69" transform="translate(161.132812 0)"/>
     <use xlink:href="#LiberationSans-Bold-76" transform="translate(188.916016 0)"/>
     <use xlink:href="#LiberationSans-Bold-65" transform="translate(244.53125 0)"/>
     <use xlink:href="#LiberationSans-Bold-20" transform="translate(300.146484 0)"/>
     <use xlink:href="#LiberationSans-Bold-55" transform="translate(327.929688 0)"/>
     <use xlink:href="#LiberationSans-Bold-73" transform="translate(400.146484 0)"/>
     <use xlink:href="#LiberationSans-Bold-65" transform="translate(455.761719 0)"/>
     <use xlink:href="#LiberationSans-Bold-72" transform="translate(511.376953 0)"/>
     <use xlink:href="#LiberationSans-Bold-73" transform="translate(550.292969 0)"/>
     <use xlink:href="#LiberationSans-Bold-20" transform="translate(605.908203 0)"/>
     <use xlink:href="#LiberationSans-Bold-28" transform="translate(633.691406 0)"/>
     <use xlink:href="#LiberationSans-Bold-57" transform="translate(666.992188 0)"/>
     <use xlink:href="#LiberationSans-Bold-65" transform="translate(759.626953 0)"/>
     <use xlink:href="#LiberationSans-Bold-65" transform="translate(815.242188 0)"/>
     <use xlink:href="#LiberationSans-Bold-6b" transform="translate(870.857422 0)"/>
     <use xlink:href="#LiberationSans-Bold-6c" transform="translate(926.472656 0)"/>
     <use xlink:href="#LiberationSans-Bold-79" transform="translate(954.255859 0)"/>
     <use xlink:href="#LiberationSans-Bold-29" transform="translate(1009.871094 0)"/>
    </g>
   </g>
   <g id="legend_1">
    <g id="line2d_41">
     <path d="M 71.13 51.595 
L 87.13 51.595 
L 103.13 51.595 
" style="fill: none; stroke: #6c3fc4; stroke-width: 5; stroke-linecap: round"/>
    </g>
    <g id="text_20">
     <!-- Bazzite (73.4k) -->
     <g style="fill: #616161" transform="translate(115.93 57.195) scale(0.16 -0.16)">
      <defs>
       <path id="LiberationSans-42" d="M 3931 1241 
Q 3931 653 3503 326 
Q 3075 0 2313 0 
L 525 0 
L 525 4403 
L 2125 4403 
Q 3675 4403 3675 3334 
Q 3675 2944 3456 2678 
Q 3238 2413 2838 2322 
Q 3363 2259 3647 1970 
Q 3931 1681 3931 1241 
z
M 3075 3263 
Q 3075 3619 2831 3772 
Q 2588 3925 2125 3925 
L 1122 3925 
L 1122 2531 
L 2125 2531 
Q 2603 2531 2839 2711 
Q 3075 2891 3075 3263 
z
M 3328 1288 
Q 3328 2066 2234 2066 
L 1122 2066 
L 1122 478 
L 2281 478 
Q 2828 478 3078 681 
Q 3328 884 3328 1288 
z
" transform="scale(0.015625)"/>
       <path id="LiberationSans-61" d="M 1294 -63 
Q 784 -63 528 206 
Q 272 475 272 944 
Q 272 1469 617 1750 
Q 963 2031 1731 2050 
L 2491 2063 
L 2491 2247 
Q 2491 2659 2316 2837 
Q 2141 3016 1766 3016 
Q 1388 3016 1216 2887 
Q 1044 2759 1009 2478 
L 422 2531 
Q 566 3444 1778 3444 
Q 2416 3444 2737 3151 
Q 3059 2859 3059 2306 
L 3059 850 
Q 3059 600 3125 473 
Q 3191 347 3375 347 
Q 3456 347 3559 369 
L 3559 19 
Q 3347 -31 3125 -31 
Q 2813 -31 2670 133 
Q 2528 297 2509 647 
L 2491 647 
Q 2275 259 1989 98 
Q 1703 -63 1294 -63 
z
M 1422 359 
Q 1731 359 1972 500 
Q 2213 641 2352 886 
Q 2491 1131 2491 1391 
L 2491 1669 
L 1875 1656 
Q 1478 1650 1273 1575 
Q 1069 1500 959 1344 
Q 850 1188 850 934 
Q 850 659 998 509 
Q 1147 359 1422 359 
z
" transform="scale(0.015625)"/>
       <path id="LiberationSans-7a" d="M 259 0 
L 259 428 
L 2150 2947 
L 366 2947 
L 366 3381 
L 2816 3381 
L 2816 2953 
L 922 434 
L 2881 434 
L 2881 0 
L 259 0 
z
" transform="scale(0.015625)"/>
       <path id="LiberationSans-69" d="M 428 4100 
L 428 4638 
L 991 4638 
L 991 4100 
L 428 4100 
z
M 428 0 
L 428 3381 
L 991 3381 
L 991 0 
L 428 0 
z
" transform="scale(0.015625)"/>
       <path id="LiberationSans-74" d="M 1731 25 
Q 1453 -50 1163 -50 
Q 488 -50 488 716 
L 488 2972 
L 97 2972 
L 97 3381 
L 509 3381 
L 675 4138 
L 1050 4138 
L 1050 3381 
L 1675 3381 
L 1675 2972 
L 1050 2972 
L 1050 838 
Q 1050 594 1129 495 
Q 1209 397 1406 397 
Q 1519 397 1731 441 
L 1731 25 
z
" transform="scale(0.015625)"/>
       <path id="LiberationSans-65" d="M 863 1572 
Q 863 991 1103 675 
Q 1344 359 1806 359 
Q 2172 359 2392 506 
Q 2613 653 2691 878 
L 3184 738 
Q 2881 -63 1806 -63 
Q 1056 -63 664 384 
Q 272 831 272 1713 
Q 272 2550 664 2997 
Q 1056 3444 1784 3444 
Q 3275 3444 3275 1647 
L 3275 1572 
L 863 1572 
z
M 2694 2003 
Q 2647 2538 2422 2783 
Q 2197 3028 1775 3028 
Q 1366 3028 1127 2754 
Q 888 2481 869 2003 
L 2694 2003 
z
" transform="scale(0.015625)"/>
       <path id="LiberationSans-20" transform="scale(0.015625)"/>
       <path id="LiberationSans-28" d="M 397 1663 
Q 397 2566 680 3284 
Q 963 4003 1550 4638 
L 2094 4638 
Q 1509 3988 1236 3256 
Q 963 2525 963 1656 
Q 963 791 1233 62 
Q 1503 -666 2094 -1325 
L 1550 -1325 
Q 959 -688 678 32 
Q 397 753 397 1650 
L 397 1663 
z
" transform="scale(0.015625)"/>
       <path id="LiberationSans-37" d="M 3238 3947 
Q 2563 2916 2284 2331 
Q 2006 1747 1867 1178 
Q 1728 609 1728 0 
L 1141 0 
Q 1141 844 1498 1776 
Q 1856 2709 2694 3925 
L 328 3925 
L 328 4403 
L 3238 4403 
L 3238 3947 
z
" transform="scale(0.015625)"/>
       <path id="LiberationSans-33" d="M 3278 1216 
Q 3278 606 2890 271 
Q 2503 -63 1784 -63 
Q 1116 -63 717 239 
Q 319 541 244 1131 
L 825 1184 
Q 938 403 1784 403 
Q 2209 403 2451 612 
Q 2694 822 2694 1234 
Q 2694 1594 2417 1795 
Q 2141 1997 1619 1997 
L 1300 1997 
L 1300 2484 
L 1606 2484 
Q 2069 2484 2323 2686 
Q 2578 2888 2578 3244 
Q 2578 3597 2370 3801 
Q 2163 4006 1753 4006 
Q 1381 4006 1151 3815 
Q 922 3625 884 3278 
L 319 3322 
Q 381 3863 767 4166 
Q 1153 4469 1759 4469 
Q 2422 4469 2789 4161 
Q 3156 3853 3156 3303 
Q 3156 2881 2920 2617 
Q 2684 2353 2234 2259 
L 2234 2247 
Q 2728 2194 3003 1916 
Q 3278 1638 3278 1216 
z
" transform="scale(0.015625)"/>
       <path id="LiberationSans-2e" d="M 584 0 
L 584 684 
L 1194 684 
L 1194 0 
L 584 0 
z
" transform="scale(0.015625)"/>
       <path id="LiberationSans-34" d="M 2753 997 
L 2753 0 
L 2222 0 
L 2222 997 
L 147 997 
L 147 1434 
L 2163 4403 
L 2753 4403 
L 2753 1441 
L 3372 1441 
L 3372 997 
L 2753 997 
z
M 2222 3769 
Q 2216 3750 2134 3603 
Q 2053 3456 2013 3397 
L 884 1734 
L 716 1503 
L 666 1441 
L 2222 1441 
L 2222 3769 
z
" transform="scale(0.015625)"/>
       <path id="LiberationSans-6b" d="M 2550 0 
L 1406 1544 
L 994 1203 
L 994 0 
L 431 0 
L 431 4638 
L 994 4638 
L 994 1741 
L 2478 3381 
L 3138 3381 
L 1766 1928 
L 3209 0 
L 2550 0 
z
" transform="scale(0.015625)"/>
       <path id="LiberationSans-29" d="M 1734 1650 
Q 1734 747 1451 28 
Q 1169 -691 581 -1325 
L 38 -1325 
Q 625 -669 897 57 
Q 1169 784 1169 1656 
Q 1169 2528 895 3256 
Q 622 3984 38 4638 
L 581 4638 
Q 1172 4000 1453 3279 
Q 1734 2559 1734 1663 
L 1734 1650 
z
" transform="scale(0.015625)"/>
      </defs>
      <use xlink:href="#LiberationSans-42"/>
      <use xlink:href="#LiberationSans-61" transform="translate(66.699219 0)"/>
      <use xlink:href="#LiberationSans-7a" transform="translate(122.314453 0)"/>
      <use xlink:href="#LiberationSans-7a" transform="translate(172.314453 0)"/>
      <use xlink:href="#LiberationSans-69" transform="translate(222.314453 0)"/>
      <use xlink:href="#LiberationSans-74" transform="translate(244.53125 0)"/>
      <use xlink:href="#LiberationSans-65" transform="translate(272.314453 0)"/>
      <use xlink:href="#LiberationSans-20" transform="translate(327.929688 0)"/>
      <use xlink:href="#LiberationSans-28" transform="translate(355.712891 0)"/>
      <use xlink:href="#LiberationSans-37" transform="translate(389.013672 0)"/>
      <use xlink:href="#LiberationSans-33" transform="translate(444.628906 0)"/>
      <use xlink:href="#LiberationSans-2e" transform="translate(500.244141 0)"/>
      <use xlink:href="#LiberationSans-34" transform="translate(528.027344 0)"/>
      <use xlink:href="#LiberationSans-6b" transform="translate(583.642578 0)"/>
      <use xlink:href="#LiberationSans-29" transform="translate(633.642578 0)"/>
     </g>
    </g>
    <g id="line2d_42">
     <path d="M 71.13 74.51 
L 87.13 74.51 
L 103.13 74.51 
" style="fill: none; stroke: #99ddff; stroke-width: 5; stroke-linecap: round"/>
    </g>
    <g id="text_21">
     <!-- Silverblue (9.5k) -->
     <g style="fill: #616161" transform="translate(115.93 80.11) scale(0.16 -0.16)">
      <defs>
       <path id="LiberationSans-53" d="M 3975 1216 
Q 3975 606 3498 271 
Q 3022 -63 2156 -63 
Q 547 -63 291 1056 
L 869 1172 
Q 969 775 1294 589 
Q 1619 403 2178 403 
Q 2756 403 3070 601 
Q 3384 800 3384 1184 
Q 3384 1400 3286 1534 
Q 3188 1669 3009 1756 
Q 2831 1844 2584 1903 
Q 2338 1963 2038 2031 
Q 1516 2147 1245 2262 
Q 975 2378 819 2520 
Q 663 2663 580 2853 
Q 497 3044 497 3291 
Q 497 3856 930 4162 
Q 1363 4469 2169 4469 
Q 2919 4469 3316 4239 
Q 3713 4009 3872 3456 
L 3284 3353 
Q 3188 3703 2916 3861 
Q 2644 4019 2163 4019 
Q 1634 4019 1356 3844 
Q 1078 3669 1078 3322 
Q 1078 3119 1186 2986 
Q 1294 2853 1497 2761 
Q 1700 2669 2306 2534 
Q 2509 2488 2711 2439 
Q 2913 2391 3097 2323 
Q 3281 2256 3442 2165 
Q 3603 2075 3722 1944 
Q 3841 1813 3908 1634 
Q 3975 1456 3975 1216 
z
" transform="scale(0.015625)"/>
       <path id="LiberationSans-6c" d="M 431 0 
L 431 4638 
L 994 4638 
L 994 0 
L 431 0 
z
" transform="scale(0.015625)"/>
       <path id="LiberationSans-76" d="M 1916 0 
L 1250 0 
L 22 3381 
L 622 3381 
L 1366 1181 
Q 1406 1056 1581 441 
L 1691 806 
L 1813 1175 
L 2581 3381 
L 3178 3381 
L 1916 0 
z
" transform="scale(0.015625)"/>
       <path id="LiberationSans-72" d="M 444 0 
L 444 2594 
Q 444 2950 425 3381 
L 956 3381 
Q 981 2806 981 2691 
L 994 2691 
Q 1128 3125 1303 3284 
Q 1478 3444 1797 3444 
Q 1909 3444 2025 3413 
L 2025 2897 
Q 1913 2928 1725 2928 
Q 1375 2928 1190 2626 
Q 1006 2325 1006 1763 
L 1006 0 
L 444 0 
z
" transform="scale(0.015625)"/>
       <path id="LiberationSans-62" d="M 3291 1706 
Q 3291 -63 2047 -63 
Q 1663 -63 1408 76 
Q 1153 216 994 525 
L 988 525 
Q 988 428 975 229 
Q 963 31 956 0 
L 413 0 
Q 431 169 431 697 
L 431 4638 
L 994 4638 
L 994 3316 
Q 994 3113 981 2838 
L 994 2838 
Q 1150 3163 1408 3303 
Q 1666 3444 2047 3444 
Q 2688 3444 2989 3012 
Q 3291 2581 3291 1706 
z
M 2700 1688 
Q 2700 2397 2512 2703 
Q 2325 3009 1903 3009 
Q 1428 3009 1211 2684 
Q 994 2359 994 1653 
Q 994 988 1206 670 
Q 1419 353 1897 353 
Q 2322 353 2511 667 
Q 2700 981 2700 1688 
z
" transform="scale(0.015625)"/>
       <path id="LiberationSans-75" d="M 981 3381 
L 981 1238 
Q 981 903 1047 718 
Q 1113 534 1256 453 
Q 1400 372 1678 372 
Q 2084 372 2318 650 
Q 2553 928 2553 1422 
L 2553 3381 
L 3116 3381 
L 3116 722 
Q 3116 131 3134 0 
L 2603 0 
Q 2600 16 2597 84 
Q 2594 153 2589 242 
Q 2584 331 2578 578 
L 2569 578 
Q 2375 228 2120 82 
Q 1866 -63 1488 -63 
Q 931 -63 673 214 
Q 416 491 416 1128 
L 416 3381 
L 981 3381 
z
" transform="scale(0.015625)"/>
       <path id="LiberationSans-39" d="M 3256 2291 
Q 3256 1156 2842 546 
Q 2428 -63 1663 -63 
Q 1147 -63 836 154 
Q 525 372 391 856 
L 928 941 
Q 1097 391 1672 391 
Q 2156 391 2422 841 
Q 2688 1291 2700 2125 
Q 2575 1844 2272 1673 
Q 1969 1503 1606 1503 
Q 1013 1503 656 1909 
Q 300 2316 300 2988 
Q 300 3678 687 4073 
Q 1075 4469 1766 4469 
Q 2500 4469 2878 3925 
Q 3256 3381 3256 2291 
z
M 2644 2834 
Q 2644 3366 2400 3689 
Q 2156 4013 1747 4013 
Q 1341 4013 1106 3736 
Q 872 3459 872 2988 
Q 872 2506 1106 2226 
Q 1341 1947 1741 1947 
Q 1984 1947 2193 2058 
Q 2403 2169 2523 2372 
Q 2644 2575 2644 2834 
z
" transform="scale(0.015625)"/>
       <path id="LiberationSans-35" d="M 3291 1434 
Q 3291 738 2877 337 
Q 2463 -63 1728 -63 
Q 1113 -63 734 206 
Q 356 475 256 984 
L 825 1050 
Q 1003 397 1741 397 
Q 2194 397 2450 670 
Q 2706 944 2706 1422 
Q 2706 1838 2448 2094 
Q 2191 2350 1753 2350 
Q 1525 2350 1328 2278 
Q 1131 2206 934 2034 
L 384 2034 
L 531 4403 
L 3034 4403 
L 3034 3925 
L 1044 3925 
L 959 2528 
Q 1325 2809 1869 2809 
Q 2519 2809 2905 2428 
Q 3291 2047 3291 1434 
z
" transform="scale(0.015625)"/>
      </defs>
      <use xlink:href="#LiberationSans-53"/>
      <use xlink:href="#LiberationSans-69" transform="translate(66.699219 0)"/>
      <use xlink:href="#LiberationSans-6c" transform="translate(88.916016 0)"/>
      <use xlink:href="#LiberationSans-76" transform="translate(111.132812 0)"/>
      <use xlink:href="#LiberationSans-65" transform="translate(161.132812 0)"/>
      <use xlink:href="#LiberationSans-72" transform="translate(216.748047 0)"/>
      <use xlink:href="#LiberationSans-62" transform="translate(250.048828 0)"/>
      <use xlink:href="#LiberationSans-6c" transform="translate(305.664062 0)"/>
      <use xlink:href="#LiberationSans-75" transform="translate(327.880859 0)"/>
      <use xlink:href="#LiberationSans-65" transform="translate(383.496094 0)"/>
      <use xlink:href="#LiberationSans-20" transform="translate(439.111328 0)"/>
      <use xlink:href="#LiberationSans-28" transform="translate(466.894531 0)"/>
      <use xlink:href="#LiberationSans-39" transform="translate(500.195312 0)"/>
      <use xlink:href="#LiberationSans-2e" transform="translate(555.810547 0)"/>
      <use xlink:href="#LiberationSans-35" transform="translate(583.59375 0)"/>
      <use xlink:href="#LiberationSans-6b" transform="translate(639.208984 0)"/>
      <use xlink:href="#LiberationSans-29" transform="translate(689.208984 0)"/>
     </g>
    </g>
    <g id="line2d_43">
     <path d="M 71.13 97.425 
L 87.13 97.425 
L 103.13 97.425 
" style="fill: none; stroke: #eedd88; stroke-width: 5; stroke-linecap: round"/>
    </g>
    <g id="text_22">
     <!-- Kinoite (5.2k) -->
     <g style="fill: #616161" transform="translate(115.93 103.025) scale(0.16 -0.16)">
      <defs>
       <path id="LiberationSans-4b" d="M 3456 0 
L 1697 2125 
L 1122 1688 
L 1122 0 
L 525 0 
L 525 4403 
L 1122 4403 
L 1122 2197 
L 3244 4403 
L 3947 4403 
L 2072 2491 
L 4197 0 
L 3456 0 
z
" transform="scale(0.015625)"/>
       <path id="LiberationSans-6e" d="M 2578 0 
L 2578 2144 
Q 2578 2478 2512 2662 
Q 2447 2847 2303 2928 
Q 2159 3009 1881 3009 
Q 1475 3009 1240 2731 
Q 1006 2453 1006 1959 
L 1006 0 
L 444 0 
L 444 2659 
Q 444 3250 425 3381 
L 956 3381 
Q 959 3366 962 3297 
Q 966 3228 970 3139 
Q 975 3050 981 2803 
L 991 2803 
Q 1184 3153 1439 3298 
Q 1694 3444 2072 3444 
Q 2628 3444 2886 3167 
Q 3144 2891 3144 2253 
L 3144 0 
L 2578 0 
z
" transform="scale(0.015625)"/>
       <path id="LiberationSans-6f" d="M 3291 1694 
Q 3291 806 2900 371 
Q 2509 -63 1766 -63 
Q 1025 -63 647 389 
Q 269 841 269 1694 
Q 269 3444 1784 3444 
Q 2559 3444 2925 3017 
Q 3291 2591 3291 1694 
z
M 2700 1694 
Q 2700 2394 2492 2711 
Q 2284 3028 1794 3028 
Q 1300 3028 1079 2704 
Q 859 2381 859 1694 
Q 859 1025 1076 689 
Q 1294 353 1759 353 
Q 2266 353 2483 678 
Q 2700 1003 2700 1694 
z
" transform="scale(0.015625)"/>
       <path id="LiberationSans-32" d="M 322 0 
L 322 397 
Q 481 763 711 1042 
Q 941 1322 1194 1548 
Q 1447 1775 1695 1969 
Q 1944 2163 2144 2356 
Q 2344 2550 2467 2762 
Q 2591 2975 2591 3244 
Q 2591 3606 2378 3806 
Q 2166 4006 1788 4006 
Q 1428 4006 1195 3811 
Q 963 3616 922 3263 
L 347 3316 
Q 409 3844 795 4156 
Q 1181 4469 1788 4469 
Q 2453 4469 2811 4155 
Q 3169 3841 3169 3263 
Q 3169 3006 3051 2753 
Q 2934 2500 2703 2247 
Q 2472 1994 1819 1463 
Q 1459 1169 1246 933 
Q 1034 697 941 478 
L 3238 478 
L 3238 0 
L 322 0 
z
" transform="scale(0.015625)"/>
      </defs>
      <use xlink:href="#LiberationSans-4b"/>
      <use xlink:href="#LiberationSans-69" transform="translate(66.699219 0)"/>
      <use xlink:href="#LiberationSans-6e" transform="translate(88.916016 0)"/>
      <use xlink:href="#LiberationSans-6f" transform="translate(144.53125 0)"/>
      <use xlink:href="#LiberationSans-69" transform="translate(200.146484 0)"/>
      <use xlink:href="#LiberationSans-74" transform="translate(222.363281 0)"/>
      <use xlink:href="#LiberationSans-65" transform="translate(250.146484 0)"/>
      <use xlink:href="#LiberationSans-20" transform="translate(305.761719 0)"/>
      <use xlink:href="#LiberationSans-28" transform="translate(333.544922 0)"/>
      <use xlink:href="#LiberationSans-35" transform="translate(366.845703 0)"/>
      <use xlink:href="#LiberationSans-2e" transform="translate(422.460938 0)"/>
      <use xlink:href="#LiberationSans-32" transform="translate(450.244141 0)"/>
      <use xlink:href="#LiberationSans-6b" transform="translate(505.859375 0)"/>
      <use xlink:href="#LiberationSans-29" transform="translate(555.859375 0)"/>
     </g>
    </g>
    <g id="line2d_44">
     <path d="M 71.13 120.34 
L 87.13 120.34 
L 103.13 120.34 
" style="fill: none; stroke: #77aadd; stroke-width: 5; stroke-linecap: round"/>
    </g>
    <g id="text_23">
     <!-- Bluefin (3.5k) -->
     <g style="fill: #616161" transform="translate(115.93 125.94) scale(0.16 -0.16)">
      <defs>
       <path id="LiberationSans-66" d="M 1128 2972 
L 1128 0 
L 566 0 
L 566 2972 
L 91 2972 
L 91 3381 
L 566 3381 
L 566 3763 
Q 566 4225 769 4428 
Q 972 4631 1391 4631 
Q 1625 4631 1788 4594 
L 1788 4166 
Q 1647 4191 1538 4191 
Q 1322 4191 1225 4081 
Q 1128 3972 1128 3684 
L 1128 3381 
L 1788 3381 
L 1788 2972 
L 1128 2972 
z
" transform="scale(0.015625)"/>
      </defs>
      <use xlink:href="#LiberationSans-42"/>
      <use xlink:href="#LiberationSans-6c" transform="translate(66.699219 0)"/>
      <use xlink:href="#LiberationSans-75" transform="translate(88.916016 0)"/>
      <use xlink:href="#LiberationSans-65" transform="translate(144.53125 0)"/>
      <use xlink:href="#LiberationSans-66" transform="translate(200.146484 0)"/>
      <use xlink:href="#LiberationSans-69" transform="translate(227.929688 0)"/>
      <use xlink:href="#LiberationSans-6e" transform="translate(250.146484 0)"/>
      <use xlink:href="#LiberationSans-20" transform="translate(305.761719 0)"/>
      <use xlink:href="#LiberationSans-28" transform="translate(333.544922 0)"/>
      <use xlink:href="#LiberationSans-33" transform="translate(366.845703 0)"/>
      <use xlink:href="#LiberationSans-2e" transform="translate(422.460938 0)"/>
      <use xlink:href="#LiberationSans-35" transform="translate(450.244141 0)"/>
      <use xlink:href="#LiberationSans-6b" transform="translate(505.859375 0)"/>
      <use xlink:href="#LiberationSans-29" transform="translate(555.859375 0)"/>
     </g>
    </g>
    <g id="line2d_45">
     <path d="M 71.13 143.255 
L 87.13 143.255 
L 103.13 143.255 
" style="fill: none; stroke: #ee8866; stroke-width: 5; stroke-linecap: round"/>
    </g>
    <g id="text_24">
     <!-- Aurora (2.4k) -->
     <g style="fill: #616161" transform="translate(115.93 148.855) scale(0.16 -0.16)">
      <defs>
       <path id="LiberationSans-41" d="M 3647 0 
L 3144 1288 
L 1138 1288 
L 631 0 
L 13 0 
L 1809 4403 
L 2488 4403 
L 4256 0 
L 3647 0 
z
M 2141 3953 
L 2113 3866 
Q 2034 3606 1881 3200 
L 1319 1753 
L 2966 1753 
L 2400 3206 
Q 2313 3422 2225 3694 
L 2141 3953 
z
" transform="scale(0.015625)"/>
      </defs>
      <use xlink:href="#LiberationSans-41"/>
      <use xlink:href="#LiberationSans-75" transform="translate(66.699219 0)"/>
      <use xlink:href="#LiberationSans-72" transform="translate(122.314453 0)"/>
      <use xlink:href="#LiberationSans-6f" transform="translate(155.615234 0)"/>
      <use xlink:href="#LiberationSans-72" transform="translate(211.230469 0)"/>
      <use xlink:href="#LiberationSans-61" transform="translate(244.53125 0)"/>
      <use xlink:href="#LiberationSans-20" transform="translate(300.146484 0)"/>
      <use xlink:href="#LiberationSans-28" transform="translate(327.929688 0)"/>
      <use xlink:href="#LiberationSans-32" transform="translate(361.230469 0)"/>
      <use xlink:href="#LiberationSans-2e" transform="translate(416.845703 0)"/>
      <use xlink:href="#LiberationSans-34" transform="translate(444.628906 0)"/>
      <use xlink:href="#LiberationSans-6b" transform="translate(500.244141 0)"/>
      <use xlink:href="#LiberationSans-29" transform="translate(550.244141 0)"/>
     </g>
    </g>
    <g id="line2d_46">
     <path d="M 71.13 166.17 
L 87.13 166.17 
L 103.13 166.17 
" style="fill: none; stroke: #ffaabb; stroke-width: 5; stroke-linecap: round"/>
    </g>
    <g id="text_25">
     <!-- uCore (1.1k) -->
     <g style="fill: #616161" transform="translate(115.93 171.77) scale(0.16 -0.16)">
      <defs>
       <path id="LiberationSans-43" d="M 2475 3981 
Q 1744 3981 1337 3511 
Q 931 3041 931 2222 
Q 931 1413 1354 920 
Q 1778 428 2500 428 
Q 3425 428 3891 1344 
L 4378 1100 
Q 4106 531 3614 234 
Q 3122 -63 2472 -63 
Q 1806 -63 1320 214 
Q 834 491 579 1005 
Q 325 1519 325 2222 
Q 325 3275 894 3872 
Q 1463 4469 2469 4469 
Q 3172 4469 3644 4194 
Q 4116 3919 4338 3378 
L 3772 3191 
Q 3619 3575 3280 3778 
Q 2941 3981 2475 3981 
z
" transform="scale(0.015625)"/>
       <path id="LiberationSans-31" d="M 488 0 
L 488 478 
L 1609 478 
L 1609 3866 
L 616 3156 
L 616 3688 
L 1656 4403 
L 2175 4403 
L 2175 478 
L 3247 478 
L 3247 0 
L 488 0 
z
" transform="scale(0.015625)"/>
      </defs>
      <use xlink:href="#LiberationSans-75"/>
      <use xlink:href="#LiberationSans-43" transform="translate(55.615234 0)"/>
      <use xlink:href="#LiberationSans-6f" transform="translate(127.832031 0)"/>
      <use xlink:href="#LiberationSans-72" transform="translate(183.447266 0)"/>
      <use xlink:href="#LiberationSans-65" transform="translate(216.748047 0)"/>
      <use xlink:href="#LiberationSans-20" transform="translate(272.363281 0)"/>
      <use xlink:href="#LiberationSans-28" transform="translate(300.146484 0)"/>
      <use xlink:href="#LiberationSans-31" transform="translate(333.447266 0)"/>
      <use xlink:href="#LiberationSans-2e" transform="translate(389.0625 0)"/>
      <use xlink:href="#LiberationSans-31" transform="translate(416.845703 0)"/>
      <use xlink:href="#LiberationSans-6b" transform="translate(472.460938 0)"/>
      <use xlink:href="#LiberationSans-29" transform="translate(522.460938 0)"/>
     </g>
    </g>
   </g>
  </g>
 </g>
 <defs>
  <clipPath id="p81d74336c0">
   <rect x="56.73" y="31.2" width="1084.47" height="558.143192"/>
  </clipPath>
 </defs>
</svg>
