<?xml version="1.0" encoding="utf-8" standalone="no"?>
<!DOCTYPE svg PUBLIC "-//W3C//DTD SVG 1.1//EN"
  "http://www.w3.org/Graphics/SVG/1.1/DTD/svg11.dtd">
<svg xmlns:xlink="http://www.w3.org/1999/xlink" width="1152pt" height="648pt" viewBox="0 0 1152 648" xmlns="http://www.w3.org/2000/svg" version="1.1">
 <metadata>
  <rdf:RDF xmlns:dc="http://purl.org/dc/elements/1.1/" xmlns:cc="http://creativecommons.org/ns#" xmlns:rdf="http://www.w3.org/1999/02/22-rdf-syntax-ns#">
   <cc:Work>
    <dc:type rdf:resource="http://purl.org/dc/dcmitype/StillImage"/>
    <dc:date>2025-07-10T00:14:47.977285</dc:date>
    <dc:format>image/svg+xml</dc:format>
    <dc:creator>
     <cc:Agent>
      <dc:title>Matplotlib v3.10.1, https://matplotlib.org/</dc:title>
     </cc:Agent>
    </dc:creator>
   </cc:Work>
  </rdf:RDF>
 </metadata>
 <defs>
  <style type="text/css">*{stroke-linejoin: round; stroke-linecap: butt}</style>
 </defs>
 <g id="figure_1">
  <g id="patch_1">
   <path d="M 0 648 
L 1152 648 
L 1152 0 
L 0 0 
z
" style="fill: #ffffff"/>
  </g>
  <g id="axes_1">
   <g id="patch_2">
    <path d="M 60.78 589.343192 
L 1141.2 589.343192 
L 1141.2 31.2 
L 60.78 31.2 
z
" style="fill: #ffffff"/>
   </g>
   <g id="matplotlib.axis_1">
    <g id="xtick_1">
     <g id="line2d_1">
      <path d="M 147.806206 589.343192 
L 147.806206 31.2 
" clip-path="url(#pcfe03fbeaf)" style="fill: none; stroke: #cccccc; stroke-width: 0.8; stroke-linecap: round"/>
     </g>
     <g id="line2d_2"/>
     <g id="text_1">
      <!-- 11/2024 -->
      <g style="fill: #616161" transform="translate(132.748146 635.253247) rotate(-45) scale(0.14 -0.14)">
       <defs>
        <path id="LiberationSans-Bold-31" d="M 403 0 
L 403 653 
L 1494 653 
L 1494 3656 
L 438 2997 
L 438 3688 
L 1541 4403 
L 2372 4403 
L 2372 653 
L 3381 653 
L 3381 0 
L 403 0 
z
" transform="scale(0.015625)"/>
        <path id="LiberationSans-Bold-2f" d="M 63 -128 
L 972 4638 
L 1716 4638 
L 822 -128 
L 63 -128 
z
" transform="scale(0.015625)"/>
        <path id="LiberationSans-Bold-32" d="M 222 0 
L 222 609 
Q 394 988 711 1347 
Q 1028 1706 1509 2097 
Q 1972 2472 2158 2715 
Q 2344 2959 2344 3194 
Q 2344 3769 1766 3769 
Q 1484 3769 1336 3617 
Q 1188 3466 1144 3163 
L 259 3213 
Q 334 3825 717 4147 
Q 1100 4469 1759 4469 
Q 2472 4469 2853 4144 
Q 3234 3819 3234 3231 
Q 3234 2922 3112 2672 
Q 2991 2422 2800 2211 
Q 2609 2000 2376 1815 
Q 2144 1631 1925 1456 
Q 1706 1281 1526 1103 
Q 1347 925 1259 722 
L 3303 722 
L 3303 0 
L 222 0 
z
" transform="scale(0.015625)"/>
        <path id="LiberationSans-Bold-30" d="M 3297 2203 
Q 3297 1088 2914 512 
Q 2531 -63 1766 -63 
Q 253 -63 253 2203 
Q 253 2994 418 3494 
Q 584 3994 915 4231 
Q 1247 4469 1791 4469 
Q 2572 4469 2934 3903 
Q 3297 3338 3297 2203 
z
M 2416 2203 
Q 2416 2813 2356 3150 
Q 2297 3488 2165 3634 
Q 2034 3781 1784 3781 
Q 1519 3781 1383 3632 
Q 1247 3484 1189 3148 
Q 1131 2813 1131 2203 
Q 1131 1600 1192 1261 
Q 1253 922 1386 775 
Q 1519 628 1772 628 
Q 2022 628 2158 783 
Q 2294 938 2355 1278 
Q 2416 1619 2416 2203 
z
" transform="scale(0.015625)"/>
        <path id="LiberationSans-Bold-34" d="M 2938 897 
L 2938 0 
L 2100 0 
L 2100 897 
L 97 897 
L 97 1556 
L 1956 4403 
L 2938 4403 
L 2938 1550 
L 3525 1550 
L 3525 897 
L 2938 897 
z
M 2100 2991 
Q 2100 3159 2111 3356 
Q 2122 3553 2128 3609 
Q 2047 3434 1834 3103 
L 813 1550 
L 2100 1550 
L 2100 2991 
z
" transform="scale(0.015625)"/>
       </defs>
       <use xlink:href="#LiberationSans-Bold-31"/>
       <use xlink:href="#LiberationSans-Bold-31" transform="translate(50.115234 0)"/>
       <use xlink:href="#LiberationSans-Bold-2f" transform="translate(105.730469 0)"/>
       <use xlink:href="#LiberationSans-Bold-32" transform="translate(133.513672 0)"/>
       <use xlink:href="#LiberationSans-Bold-30" transform="translate(189.128906 0)"/>
       <use xlink:href="#LiberationSans-Bold-32" transform="translate(244.744141 0)"/>
       <use xlink:href="#LiberationSans-Bold-34" transform="translate(300.359375 0)"/>
      </g>
     </g>
    </g>
    <g id="xtick_2">
     <g id="line2d_3">
      <path d="M 266.533678 589.343192 
L 266.533678 31.2 
" clip-path="url(#pcfe03fbeaf)" style="fill: none; stroke: #cccccc; stroke-width: 0.8; stroke-linecap: round"/>
     </g>
     <g id="line2d_4"/>
     <g id="text_2">
      <!-- 12/2024 -->
      <g style="fill: #616161" transform="translate(251.203382 635.797719) rotate(-45) scale(0.14 -0.14)">
       <use xlink:href="#LiberationSans-Bold-31"/>
       <use xlink:href="#LiberationSans-Bold-32" transform="translate(55.615234 0)"/>
       <use xlink:href="#LiberationSans-Bold-2f" transform="translate(111.230469 0)"/>
       <use xlink:href="#LiberationSans-Bold-32" transform="translate(139.013672 0)"/>
       <use xlink:href="#LiberationSans-Bold-30" transform="translate(194.628906 0)"/>
       <use xlink:href="#LiberationSans-Bold-32" transform="translate(250.244141 0)"/>
       <use xlink:href="#LiberationSans-Bold-34" transform="translate(305.859375 0)"/>
      </g>
     </g>
    </g>
    <g id="xtick_3">
     <g id="line2d_5">
      <path d="M 389.218733 589.343192 
L 389.218733 31.2 
" clip-path="url(#pcfe03fbeaf)" style="fill: none; stroke: #cccccc; stroke-width: 0.8; stroke-linecap: round"/>
     </g>
     <g id="line2d_6"/>
     <g id="text_3">
      <!-- 01/2025 -->
      <g style="fill: #616161" transform="translate(373.888437 635.797719) rotate(-45) scale(0.14 -0.14)">
       <defs>
        <path id="LiberationSans-Bold-35" d="M 3381 1466 
Q 3381 766 2945 351 
Q 2509 -63 1750 -63 
Q 1088 -63 689 235 
Q 291 534 197 1100 
L 1075 1172 
Q 1144 891 1319 762 
Q 1494 634 1759 634 
Q 2088 634 2283 843 
Q 2478 1053 2478 1447 
Q 2478 1794 2293 2001 
Q 2109 2209 1778 2209 
Q 1413 2209 1181 1925 
L 325 1925 
L 478 4403 
L 3125 4403 
L 3125 3750 
L 1275 3750 
L 1203 2638 
Q 1522 2919 2000 2919 
Q 2628 2919 3004 2528 
Q 3381 2138 3381 1466 
z
" transform="scale(0.015625)"/>
       </defs>
       <use xlink:href="#LiberationSans-Bold-30"/>
       <use xlink:href="#LiberationSans-Bold-31" transform="translate(55.615234 0)"/>
       <use xlink:href="#LiberationSans-Bold-2f" transform="translate(111.230469 0)"/>
       <use xlink:href="#LiberationSans-Bold-32" transform="translate(139.013672 0)"/>
       <use xlink:href="#LiberationSans-Bold-30" transform="translate(194.628906 0)"/>
       <use xlink:href="#LiberationSans-Bold-32" transform="translate(250.244141 0)"/>
       <use xlink:href="#LiberationSans-Bold-35" transform="translate(305.859375 0)"/>
      </g>
     </g>
    </g>
    <g id="xtick_4">
     <g id="line2d_7">
      <path d="M 511.903788 589.343192 
L 511.903788 31.2 
" clip-path="url(#pcfe03fbeaf)" style="fill: none; stroke: #cccccc; stroke-width: 0.8; stroke-linecap: round"/>
     </g>
     <g id="line2d_8"/>
     <g id="text_4">
      <!-- 02/2025 -->
      <g style="fill: #616161" transform="translate(496.573492 635.797719) rotate(-45) scale(0.14 -0.14)">
       <use xlink:href="#LiberationSans-Bold-30"/>
       <use xlink:href="#LiberationSans-Bold-32" transform="translate(55.615234 0)"/>
       <use xlink:href="#LiberationSans-Bold-2f" transform="translate(111.230469 0)"/>
       <use xlink:href="#LiberationSans-Bold-32" transform="translate(139.013672 0)"/>
       <use xlink:href="#LiberationSans-Bold-30" transform="translate(194.628906 0)"/>
       <use xlink:href="#LiberationSans-Bold-32" transform="translate(250.244141 0)"/>
       <use xlink:href="#LiberationSans-Bold-35" transform="translate(305.859375 0)"/>
      </g>
     </g>
    </g>
    <g id="xtick_5">
     <g id="line2d_9">
      <path d="M 622.716096 589.343192 
L 622.716096 31.2 
" clip-path="url(#pcfe03fbeaf)" style="fill: none; stroke: #cccccc; stroke-width: 0.8; stroke-linecap: round"/>
     </g>
     <g id="line2d_10"/>
     <g id="text_5">
      <!-- 03/2025 -->
      <g style="fill: #616161" transform="translate(607.3858 635.797719) rotate(-45) scale(0.14 -0.14)">
       <defs>
        <path id="LiberationSans-Bold-33" d="M 3328 1222 
Q 3328 603 2922 265 
Q 2516 -72 1766 -72 
Q 1056 -72 637 254 
Q 219 581 147 1197 
L 1041 1275 
Q 1125 641 1763 641 
Q 2078 641 2253 797 
Q 2428 953 2428 1275 
Q 2428 1569 2215 1725 
Q 2003 1881 1584 1881 
L 1278 1881 
L 1278 2591 
L 1566 2591 
Q 1944 2591 2134 2745 
Q 2325 2900 2325 3188 
Q 2325 3459 2173 3614 
Q 2022 3769 1731 3769 
Q 1459 3769 1292 3619 
Q 1125 3469 1100 3194 
L 222 3256 
Q 291 3825 694 4147 
Q 1097 4469 1747 4469 
Q 2438 4469 2827 4158 
Q 3216 3847 3216 3297 
Q 3216 2884 2973 2618 
Q 2731 2353 2275 2266 
L 2275 2253 
Q 2781 2194 3054 1920 
Q 3328 1647 3328 1222 
z
" transform="scale(0.015625)"/>
       </defs>
       <use xlink:href="#LiberationSans-Bold-30"/>
       <use xlink:href="#LiberationSans-Bold-33" transform="translate(55.615234 0)"/>
       <use xlink:href="#LiberationSans-Bold-2f" transform="translate(111.230469 0)"/>
       <use xlink:href="#LiberationSans-Bold-32" transform="translate(139.013672 0)"/>
       <use xlink:href="#LiberationSans-Bold-30" transform="translate(194.628906 0)"/>
       <use xlink:href="#LiberationSans-Bold-32" transform="translate(250.244141 0)"/>
       <use xlink:href="#LiberationSans-Bold-35" transform="translate(305.859375 0)"/>
      </g>
     </g>
    </g>
    <g id="xtick_6">
     <g id="line2d_11">
      <path d="M 745.401151 589.343192 
L 745.401151 31.2 
" clip-path="url(#pcfe03fbeaf)" style="fill: none; stroke: #cccccc; stroke-width: 0.8; stroke-linecap: round"/>
     </g>
     <g id="line2d_12"/>
     <g id="text_6">
      <!-- 04/2025 -->
      <g style="fill: #616161" transform="translate(730.070855 635.797719) rotate(-45) scale(0.14 -0.14)">
       <use xlink:href="#LiberationSans-Bold-30"/>
       <use xlink:href="#LiberationSans-Bold-34" transform="translate(55.615234 0)"/>
       <use xlink:href="#LiberationSans-Bold-2f" transform="translate(111.230469 0)"/>
       <use xlink:href="#LiberationSans-Bold-32" transform="translate(139.013672 0)"/>
       <use xlink:href="#LiberationSans-Bold-30" transform="translate(194.628906 0)"/>
       <use xlink:href="#LiberationSans-Bold-32" transform="translate(250.244141 0)"/>
       <use xlink:href="#LiberationSans-Bold-35" transform="translate(305.859375 0)"/>
      </g>
     </g>
    </g>
    <g id="xtick_7">
     <g id="line2d_13">
      <path d="M 864.128623 589.343192 
L 864.128623 31.2 
" clip-path="url(#pcfe03fbeaf)" style="fill: none; stroke: #cccccc; stroke-width: 0.8; stroke-linecap: round"/>
     </g>
     <g id="line2d_14"/>
     <g id="text_7">
      <!-- 05/2025 -->
      <g style="fill: #616161" transform="translate(848.798327 635.797719) rotate(-45) scale(0.14 -0.14)">
       <use xlink:href="#LiberationSans-Bold-30"/>
       <use xlink:href="#LiberationSans-Bold-35" transform="translate(55.615234 0)"/>
       <use xlink:href="#LiberationSans-Bold-2f" transform="translate(111.230469 0)"/>
       <use xlink:href="#LiberationSans-Bold-32" transform="translate(139.013672 0)"/>
       <use xlink:href="#LiberationSans-Bold-30" transform="translate(194.628906 0)"/>
       <use xlink:href="#LiberationSans-Bold-32" transform="translate(250.244141 0)"/>
       <use xlink:href="#LiberationSans-Bold-35" transform="translate(305.859375 0)"/>
      </g>
     </g>
    </g>
    <g id="xtick_8">
     <g id="line2d_15">
      <path d="M 986.813678 589.343192 
L 986.813678 31.2 
" clip-path="url(#pcfe03fbeaf)" style="fill: none; stroke: #cccccc; stroke-width: 0.8; stroke-linecap: round"/>
     </g>
     <g id="line2d_16"/>
     <g id="text_8">
      <!-- 06/2025 -->
      <g style="fill: #616161" transform="translate(971.483382 635.797719) rotate(-45) scale(0.14 -0.14)">
       <defs>
        <path id="LiberationSans-Bold-36" d="M 3328 1441 
Q 3328 738 2934 337 
Q 2541 -63 1847 -63 
Q 1069 -63 651 482 
Q 234 1028 234 2100 
Q 234 3278 657 3873 
Q 1081 4469 1869 4469 
Q 2428 4469 2751 4222 
Q 3075 3975 3209 3456 
L 2381 3341 
Q 2263 3775 1850 3775 
Q 1497 3775 1295 3422 
Q 1094 3069 1094 2350 
Q 1234 2584 1484 2709 
Q 1734 2834 2050 2834 
Q 2641 2834 2984 2459 
Q 3328 2084 3328 1441 
z
M 2447 1416 
Q 2447 1791 2273 1989 
Q 2100 2188 1797 2188 
Q 1506 2188 1331 2002 
Q 1156 1816 1156 1509 
Q 1156 1125 1339 873 
Q 1522 622 1819 622 
Q 2116 622 2281 833 
Q 2447 1044 2447 1416 
z
" transform="scale(0.015625)"/>
       </defs>
       <use xlink:href="#LiberationSans-Bold-30"/>
       <use xlink:href="#LiberationSans-Bold-36" transform="translate(55.615234 0)"/>
       <use xlink:href="#LiberationSans-Bold-2f" transform="translate(111.230469 0)"/>
       <use xlink:href="#LiberationSans-Bold-32" transform="translate(139.013672 0)"/>
       <use xlink:href="#LiberationSans-Bold-30" transform="translate(194.628906 0)"/>
       <use xlink:href="#LiberationSans-Bold-32" transform="translate(250.244141 0)"/>
       <use xlink:href="#LiberationSans-Bold-35" transform="translate(305.859375 0)"/>
      </g>
     </g>
    </g>
    <g id="xtick_9">
     <g id="line2d_17">
      <path d="M 1105.541151 589.343192 
L 1105.541151 31.2 
" clip-path="url(#pcfe03fbeaf)" style="fill: none; stroke: #cccccc; stroke-width: 0.8; stroke-linecap: round"/>
     </g>
     <g id="line2d_18"/>
     <g id="text_9">
      <!-- 07/2025 -->
      <g style="fill: #616161" transform="translate(1090.210855 635.797719) rotate(-45) scale(0.14 -0.14)">
       <defs>
        <path id="LiberationSans-Bold-37" d="M 3278 3706 
Q 2981 3238 2717 2797 
Q 2453 2356 2256 1911 
Q 2059 1466 1945 995 
Q 1831 525 1831 0 
L 916 0 
Q 916 550 1059 1064 
Q 1203 1578 1475 2111 
Q 1747 2644 2463 3681 
L 275 3681 
L 275 4403 
L 3278 4403 
L 3278 3706 
z
" transform="scale(0.015625)"/>
       </defs>
       <use xlink:href="#LiberationSans-Bold-30"/>
       <use xlink:href="#LiberationSans-Bold-37" transform="translate(55.615234 0)"/>
       <use xlink:href="#LiberationSans-Bold-2f" transform="translate(111.230469 0)"/>
       <use xlink:href="#LiberationSans-Bold-32" transform="translate(139.013672 0)"/>
       <use xlink:href="#LiberationSans-Bold-30" transform="translate(194.628906 0)"/>
       <use xlink:href="#LiberationSans-Bold-32" transform="translate(250.244141 0)"/>
       <use xlink:href="#LiberationSans-Bold-35" transform="translate(305.859375 0)"/>
      </g>
     </g>
    </g>
   </g>
   <g id="matplotlib.axis_2">
    <g id="ytick_1">
     <g id="line2d_19">
      <path d="M 60.78 589.343192 
L 1141.2 589.343192 
" clip-path="url(#pcfe03fbeaf)" style="fill: none; stroke: #cccccc; stroke-width: 0.8; stroke-linecap: round"/>
     </g>
     <g id="line2d_20"/>
     <g id="text_10">
      <!-- 0.0k -->
      <g style="fill: #616161" transform="translate(30.034687 594.416004) scale(0.14 -0.14)">
       <defs>
        <path id="LiberationSans-Bold-2e" d="M 434 0 
L 434 953 
L 1338 953 
L 1338 0 
L 434 0 
z
" transform="scale(0.015625)"/>
        <path id="LiberationSans-Bold-6b" d="M 2606 0 
L 1703 1531 
L 1325 1269 
L 1325 0 
L 447 0 
L 447 4638 
L 1325 4638 
L 1325 1981 
L 2531 3381 
L 3475 3381 
L 2288 2063 
L 3566 0 
L 2606 0 
z
" transform="scale(0.015625)"/>
       </defs>
       <use xlink:href="#LiberationSans-Bold-30"/>
       <use xlink:href="#LiberationSans-Bold-2e" transform="translate(55.615234 0)"/>
       <use xlink:href="#LiberationSans-Bold-30" transform="translate(83.398438 0)"/>
       <use xlink:href="#LiberationSans-Bold-6b" transform="translate(139.013672 0)"/>
      </g>
     </g>
    </g>
    <g id="ytick_2">
     <g id="line2d_21">
      <path d="M 60.78 517.437908 
L 1141.2 517.437908 
" clip-path="url(#pcfe03fbeaf)" style="fill: none; stroke: #cccccc; stroke-width: 0.8; stroke-linecap: round"/>
     </g>
     <g id="line2d_22"/>
     <g id="text_11">
      <!-- 0.2k -->
      <g style="fill: #616161" transform="translate(30.034687 522.510721) scale(0.14 -0.14)">
       <use xlink:href="#LiberationSans-Bold-30"/>
       <use xlink:href="#LiberationSans-Bold-2e" transform="translate(55.615234 0)"/>
       <use xlink:href="#LiberationSans-Bold-32" transform="translate(83.398438 0)"/>
       <use xlink:href="#LiberationSans-Bold-6b" transform="translate(139.013672 0)"/>
      </g>
     </g>
    </g>
    <g id="ytick_3">
     <g id="line2d_23">
      <path d="M 60.78 445.532625 
L 1141.2 445.532625 
" clip-path="url(#pcfe03fbeaf)" style="fill: none; stroke: #cccccc; stroke-width: 0.8; stroke-linecap: round"/>
     </g>
     <g id="line2d_24"/>
     <g id="text_12">
      <!-- 0.5k -->
      <g style="fill: #616161" transform="translate(30.034687 450.605437) scale(0.14 -0.14)">
       <use xlink:href="#LiberationSans-Bold-30"/>
       <use xlink:href="#LiberationSans-Bold-2e" transform="translate(55.615234 0)"/>
       <use xlink:href="#LiberationSans-Bold-35" transform="translate(83.398438 0)"/>
       <use xlink:href="#LiberationSans-Bold-6b" transform="translate(139.013672 0)"/>
      </g>
     </g>
    </g>
    <g id="ytick_4">
     <g id="line2d_25">
      <path d="M 60.78 373.627341 
L 1141.2 373.627341 
" clip-path="url(#pcfe03fbeaf)" style="fill: none; stroke: #cccccc; stroke-width: 0.8; stroke-linecap: round"/>
     </g>
     <g id="line2d_26"/>
     <g id="text_13">
      <!-- 0.8k -->
      <g style="fill: #616161" transform="translate(30.034687 378.700154) scale(0.14 -0.14)">
       <defs>
        <path id="LiberationSans-Bold-38" d="M 3363 1241 
Q 3363 622 2953 279 
Q 2544 -63 1784 -63 
Q 1031 -63 617 278 
Q 203 619 203 1234 
Q 203 1656 447 1945 
Q 691 2234 1100 2303 
L 1100 2316 
Q 744 2394 525 2669 
Q 306 2944 306 3303 
Q 306 3844 689 4156 
Q 1072 4469 1772 4469 
Q 2488 4469 2870 4164 
Q 3253 3859 3253 3297 
Q 3253 2938 3036 2666 
Q 2819 2394 2453 2322 
L 2453 2309 
Q 2878 2241 3120 1961 
Q 3363 1681 3363 1241 
z
M 2350 3250 
Q 2350 3563 2206 3708 
Q 2063 3853 1772 3853 
Q 1203 3853 1203 3250 
Q 1203 2619 1778 2619 
Q 2066 2619 2208 2766 
Q 2350 2913 2350 3250 
z
M 2453 1313 
Q 2453 2003 1766 2003 
Q 1447 2003 1276 1822 
Q 1106 1641 1106 1300 
Q 1106 913 1275 734 
Q 1444 556 1791 556 
Q 2131 556 2292 734 
Q 2453 913 2453 1313 
z
" transform="scale(0.015625)"/>
       </defs>
       <use xlink:href="#LiberationSans-Bold-30"/>
       <use xlink:href="#LiberationSans-Bold-2e" transform="translate(55.615234 0)"/>
       <use xlink:href="#LiberationSans-Bold-38" transform="translate(83.398438 0)"/>
       <use xlink:href="#LiberationSans-Bold-6b" transform="translate(139.013672 0)"/>
      </g>
     </g>
    </g>
    <g id="ytick_5">
     <g id="line2d_27">
      <path d="M 60.78 301.722058 
L 1141.2 301.722058 
" clip-path="url(#pcfe03fbeaf)" style="fill: none; stroke: #cccccc; stroke-width: 0.8; stroke-linecap: round"/>
     </g>
     <g id="line2d_28"/>
     <g id="text_14">
      <!-- 1.0k -->
      <g style="fill: #616161" transform="translate(30.034687 306.79487) scale(0.14 -0.14)">
       <use xlink:href="#LiberationSans-Bold-31"/>
       <use xlink:href="#LiberationSans-Bold-2e" transform="translate(55.615234 0)"/>
       <use xlink:href="#LiberationSans-Bold-30" transform="translate(83.398438 0)"/>
       <use xlink:href="#LiberationSans-Bold-6b" transform="translate(139.013672 0)"/>
      </g>
     </g>
    </g>
    <g id="ytick_6">
     <g id="line2d_29">
      <path d="M 60.78 229.816774 
L 1141.2 229.816774 
" clip-path="url(#pcfe03fbeaf)" style="fill: none; stroke: #cccccc; stroke-width: 0.8; stroke-linecap: round"/>
     </g>
     <g id="line2d_30"/>
     <g id="text_15">
      <!-- 1.2k -->
      <g style="fill: #616161" transform="translate(30.034687 234.889587) scale(0.14 -0.14)">
       <use xlink:href="#LiberationSans-Bold-31"/>
       <use xlink:href="#LiberationSans-Bold-2e" transform="translate(55.615234 0)"/>
       <use xlink:href="#LiberationSans-Bold-32" transform="translate(83.398438 0)"/>
       <use xlink:href="#LiberationSans-Bold-6b" transform="translate(139.013672 0)"/>
      </g>
     </g>
    </g>
    <g id="ytick_7">
     <g id="line2d_31">
      <path d="M 60.78 157.911491 
L 1141.2 157.911491 
" clip-path="url(#pcfe03fbeaf)" style="fill: none; stroke: #cccccc; stroke-width: 0.8; stroke-linecap: round"/>
     </g>
     <g id="line2d_32"/>
     <g id="text_16">
      <!-- 1.5k -->
      <g style="fill: #616161" transform="translate(30.034687 162.984303) scale(0.14 -0.14)">
       <use xlink:href="#LiberationSans-Bold-31"/>
       <use xlink:href="#LiberationSans-Bold-2e" transform="translate(55.615234 0)"/>
       <use xlink:href="#LiberationSans-Bold-35" transform="translate(83.398438 0)"/>
       <use xlink:href="#LiberationSans-Bold-6b" transform="translate(139.013672 0)"/>
      </g>
     </g>
    </g>
    <g id="ytick_8">
     <g id="line2d_33">
      <path d="M 60.78 86.006207 
L 1141.2 86.006207 
" clip-path="url(#pcfe03fbeaf)" style="fill: none; stroke: #cccccc; stroke-width: 0.8; stroke-linecap: round"/>
     </g>
     <g id="line2d_34"/>
     <g id="text_17">
      <!-- 1.8k -->
      <g style="fill: #616161" transform="translate(30.034687 91.07902) scale(0.14 -0.14)">
       <use xlink:href="#LiberationSans-Bold-31"/>
       <use xlink:href="#LiberationSans-Bold-2e" transform="translate(55.615234 0)"/>
       <use xlink:href="#LiberationSans-Bold-38" transform="translate(83.398438 0)"/>
       <use xlink:href="#LiberationSans-Bold-6b" transform="translate(139.013672 0)"/>
      </g>
     </g>
    </g>
    <g id="text_18">
     <!-- Devices -->
     <g style="fill: #616161" transform="translate(22.714687 340.515346) rotate(-90) scale(0.16 -0.16)">
      <defs>
       <path id="LiberationSans-Bold-44" d="M 4353 2234 
Q 4353 1553 4086 1045 
Q 3819 538 3330 269 
Q 2841 0 2209 0 
L 428 0 
L 428 4403 
L 2022 4403 
Q 3134 4403 3743 3842 
Q 4353 3281 4353 2234 
z
M 3425 2234 
Q 3425 2944 3056 3317 
Q 2688 3691 2003 3691 
L 1350 3691 
L 1350 713 
L 2131 713 
Q 2725 713 3075 1122 
Q 3425 1531 3425 2234 
z
" transform="scale(0.015625)"/>
       <path id="LiberationSans-Bold-65" d="M 1831 -63 
Q 1069 -63 659 389 
Q 250 841 250 1706 
Q 250 2544 665 2994 
Q 1081 3444 1844 3444 
Q 2572 3444 2956 2961 
Q 3341 2478 3341 1547 
L 3341 1522 
L 1172 1522 
Q 1172 1028 1355 776 
Q 1538 525 1875 525 
Q 2341 525 2463 928 
L 3291 856 
Q 2931 -63 1831 -63 
z
M 1831 2891 
Q 1522 2891 1355 2675 
Q 1188 2459 1178 2072 
L 2491 2072 
Q 2466 2481 2294 2686 
Q 2122 2891 1831 2891 
z
" transform="scale(0.015625)"/>
       <path id="LiberationSans-Bold-76" d="M 2284 0 
L 1234 0 
L 25 3381 
L 953 3381 
L 1544 1491 
Q 1591 1334 1766 709 
Q 1797 838 1894 1159 
Q 1991 1481 2613 3381 
L 3531 3381 
L 2284 0 
z
" transform="scale(0.015625)"/>
       <path id="LiberationSans-Bold-69" d="M 447 3991 
L 447 4638 
L 1325 4638 
L 1325 3991 
L 447 3991 
z
M 447 0 
L 447 3381 
L 1325 3381 
L 1325 0 
L 447 0 
z
" transform="scale(0.015625)"/>
       <path id="LiberationSans-Bold-63" d="M 1856 -63 
Q 1088 -63 669 395 
Q 250 853 250 1672 
Q 250 2509 672 2976 
Q 1094 3444 1869 3444 
Q 2466 3444 2856 3144 
Q 3247 2844 3347 2316 
L 2463 2272 
Q 2425 2531 2275 2686 
Q 2125 2841 1850 2841 
Q 1172 2841 1172 1706 
Q 1172 538 1863 538 
Q 2113 538 2281 695 
Q 2450 853 2491 1166 
L 3372 1125 
Q 3325 778 3123 506 
Q 2922 234 2594 85 
Q 2266 -63 1856 -63 
z
" transform="scale(0.015625)"/>
       <path id="LiberationSans-Bold-73" d="M 3297 988 
Q 3297 497 2895 217 
Q 2494 -63 1784 -63 
Q 1088 -63 717 157 
Q 347 378 225 844 
L 997 959 
Q 1063 719 1223 619 
Q 1384 519 1784 519 
Q 2153 519 2322 612 
Q 2491 706 2491 906 
Q 2491 1069 2355 1164 
Q 2219 1259 1894 1325 
Q 1150 1472 890 1598 
Q 631 1725 495 1926 
Q 359 2128 359 2422 
Q 359 2906 732 3176 
Q 1106 3447 1791 3447 
Q 2394 3447 2761 3212 
Q 3128 2978 3219 2534 
L 2441 2453 
Q 2403 2659 2256 2761 
Q 2109 2863 1791 2863 
Q 1478 2863 1322 2783 
Q 1166 2703 1166 2516 
Q 1166 2369 1286 2283 
Q 1406 2197 1691 2141 
Q 2088 2059 2395 1973 
Q 2703 1888 2889 1769 
Q 3075 1650 3186 1464 
Q 3297 1278 3297 988 
z
" transform="scale(0.015625)"/>
      </defs>
      <use xlink:href="#LiberationSans-Bold-44"/>
      <use xlink:href="#LiberationSans-Bold-65" transform="translate(72.216797 0)"/>
      <use xlink:href="#LiberationSans-Bold-76" transform="translate(127.832031 0)"/>
      <use xlink:href="#LiberationSans-Bold-69" transform="translate(183.447266 0)"/>
      <use xlink:href="#LiberationSans-Bold-63" transform="translate(211.230469 0)"/>
      <use xlink:href="#LiberationSans-Bold-65" transform="translate(266.845703 0)"/>
      <use xlink:href="#LiberationSans-Bold-73" transform="translate(322.460938 0)"/>
     </g>
    </g>
   </g>
   <g id="line2d_35">
    <path d="M 72.61214 349.179545 
L 100.315217 338.537563 
L 128.018294 335.661351 
L 155.721371 318.691705 
L 183.424448 319.842189 
L 211.127524 311.788797 
L 238.830601 296.544877 
L 266.533678 282.739063 
L 294.236755 255.702676 
L 321.939832 258.578887 
L 349.642909 241.609241 
L 405.049063 254.552192 
L 432.75214 237.582545 
L 460.455217 236.144439 
L 488.158294 211.1214 
L 515.861371 207.957568 
L 543.564448 194.726996 
L 571.267524 179.195455 
L 598.970601 170.854442 
L 626.673678 170.56682 
L 654.376755 167.690609 
L 682.079832 148.707614 
L 709.782909 152.159068 
L 737.485986 152.159068 
L 765.189063 142.955192 
L 792.89214 131.737967 
L 820.595217 113.042594 
L 848.298294 85.143344 
L 876.001371 122.534091 
L 903.704448 100.674885 
L 931.407524 79.678542 
L 959.110601 70.187045 
L 986.813678 75.076604 
L 1014.516755 60.120305 
L 1042.219832 100.962506 
L 1069.922909 57.531715 
L 1097.625986 75.076604 
" clip-path="url(#pcfe03fbeaf)" style="fill: none; stroke: #77aadd; stroke-width: 5; stroke-linecap: round"/>
   </g>
   <g id="line2d_36">
    <path d="M 349.642909 563.169668 
L 405.049063 557.417246 
L 432.75214 571.798302 
L 460.455217 584.166011 
L 488.158294 583.015527 
L 515.861371 503.632094 
L 543.564448 538.721872 
L 571.267524 561.731563 
L 598.970601 565.183016 
L 626.673678 579.851694 
L 654.376755 581.2898 
L 682.079832 580.426936 
L 709.782909 571.798302 
L 737.485986 553.678171 
L 765.189063 580.714558 
L 792.89214 563.45729 
L 820.595217 577.550725 
L 848.298294 577.263104 
L 876.001371 571.22306 
L 903.704448 566.908743 
L 931.407524 558.855351 
L 959.110601 571.510681 
L 986.813678 567.771607 
L 1014.516755 574.962135 
L 1042.219832 572.085924 
L 1069.922909 571.510681 
L 1097.625986 572.948787 
" clip-path="url(#pcfe03fbeaf)" style="fill: none; stroke: #ee8866; stroke-width: 5; stroke-linecap: round"/>
   </g>
   <g id="patch_3">
    <path d="M 60.78 589.343192 
L 60.78 31.2 
" style="fill: none"/>
   </g>
   <g id="patch_4">
    <path d="M 1141.2 589.343192 
L 1141.2 31.2 
" style="fill: none"/>
   </g>
   <g id="patch_5">
    <path d="M 60.78 589.343192 
L 1141.2 589.343192 
" style="fill: none"/>
   </g>
   <g id="patch_6">
    <path d="M 60.78 31.2 
L 1141.2 31.2 
" style="fill: none"/>
   </g>
   <g id="text_19">
    <!-- Active Users (Weekly) -->
    <g transform="translate(496.679062 25.2) scale(0.2 -0.2)">
     <defs>
      <path id="LiberationSans-Bold-41" d="M 3541 0 
L 3150 1125 
L 1472 1125 
L 1081 0 
L 159 0 
L 1766 4403 
L 2853 4403 
L 4453 0 
L 3541 0 
z
M 2309 3725 
L 2291 3656 
Q 2259 3544 2215 3400 
Q 2172 3256 1678 1819 
L 2944 1819 
L 2509 3084 
L 2375 3509 
L 2309 3725 
z
" transform="scale(0.015625)"/>
      <path id="LiberationSans-Bold-74" d="M 1313 -56 
Q 925 -56 715 155 
Q 506 366 506 794 
L 506 2788 
L 78 2788 
L 78 3381 
L 550 3381 
L 825 4175 
L 1375 4175 
L 1375 3381 
L 2016 3381 
L 2016 2788 
L 1375 2788 
L 1375 1031 
Q 1375 784 1469 667 
Q 1563 550 1759 550 
Q 1863 550 2053 594 
L 2053 50 
Q 1728 -56 1313 -56 
z
" transform="scale(0.015625)"/>
      <path id="LiberationSans-Bold-20" transform="scale(0.015625)"/>
      <path id="LiberationSans-Bold-55" d="M 2259 -63 
Q 1350 -63 867 381 
Q 384 825 384 1650 
L 384 4403 
L 1306 4403 
L 1306 1722 
Q 1306 1200 1554 929 
Q 1803 659 2284 659 
Q 2778 659 3043 942 
Q 3309 1225 3309 1753 
L 3309 4403 
L 4231 4403 
L 4231 1697 
Q 4231 859 3714 398 
Q 3197 -63 2259 -63 
z
" transform="scale(0.015625)"/>
      <path id="LiberationSans-Bold-72" d="M 447 0 
L 447 2588 
Q 447 2866 439 3052 
Q 431 3238 422 3381 
L 1259 3381 
Q 1269 3325 1284 3039 
Q 1300 2753 1300 2659 
L 1313 2659 
Q 1441 3016 1541 3161 
Q 1641 3306 1778 3376 
Q 1916 3447 2122 3447 
Q 2291 3447 2394 3400 
L 2394 2666 
Q 2181 2713 2019 2713 
Q 1691 2713 1508 2447 
Q 1325 2181 1325 1659 
L 1325 0 
L 447 0 
z
" transform="scale(0.015625)"/>
      <path id="LiberationSans-Bold-28" d="M 1247 -1328 
Q 756 -622 537 81 
Q 319 784 319 1659 
Q 319 2531 537 3232 
Q 756 3934 1247 4638 
L 2125 4638 
Q 1631 3925 1407 3219 
Q 1184 2513 1184 1656 
Q 1184 803 1406 101 
Q 1628 -600 2125 -1328 
L 1247 -1328 
z
" transform="scale(0.015625)"/>
      <path id="LiberationSans-Bold-57" d="M 4897 0 
L 3803 0 
L 3206 2547 
Q 3097 2997 3022 3488 
Q 2947 3078 2900 2864 
Q 2853 2650 2234 0 
L 1141 0 
L 6 4403 
L 941 4403 
L 1578 1559 
L 1722 872 
Q 1809 1306 1892 1701 
Q 1975 2097 2516 4403 
L 3547 4403 
L 4103 2059 
Q 4169 1797 4325 872 
L 4403 1234 
L 4569 1953 
L 5100 4403 
L 6034 4403 
L 4897 0 
z
" transform="scale(0.015625)"/>
      <path id="LiberationSans-Bold-6c" d="M 447 0 
L 447 4638 
L 1325 4638 
L 1325 0 
L 447 0 
z
" transform="scale(0.015625)"/>
      <path id="LiberationSans-Bold-79" d="M 884 -1328 
Q 569 -1328 331 -1288 
L 331 -663 
Q 497 -688 634 -688 
Q 822 -688 945 -628 
Q 1069 -569 1167 -431 
Q 1266 -294 1388 34 
L 50 3381 
L 978 3381 
L 1509 1797 
Q 1634 1456 1825 753 
L 1903 1050 
L 2106 1784 
L 2606 3381 
L 3525 3381 
L 2188 -178 
Q 1919 -828 1630 -1078 
Q 1341 -1328 884 -1328 
z
" transform="scale(0.015625)"/>
      <path id="LiberationSans-Bold-29" d="M 6 -1328 
Q 506 -597 726 101 
Q 947 800 947 1656 
Q 947 2516 722 3223 
Q 497 3931 6 4638 
L 884 4638 
Q 1378 3928 1595 3225 
Q 1813 2522 1813 1659 
Q 1813 791 1595 87 
Q 1378 -616 884 -1328 
L 6 -1328 
z
" transform="scale(0.015625)"/>
     </defs>
     <use xlink:href="#LiberationSans-Bold-41"/>
     <use xlink:href="#LiberationSans-Bold-63" transform="translate(72.216797 0)"/>
     <use xlink:href="#LiberationSans-Bold-74" transform="translate(127.832031 0)"/>
     <use xlink:href="#LiberationSans-Bold-69" transform="translate(161.132812 0)"/>
     <use xlink:href="#LiberationSans-Bold-76" transform="translate(188.916016 0)"/>
     <use xlink:href="#LiberationSans-Bold-65" transform="translate(244.53125 0)"/>
     <use xlink:href="#LiberationSans-Bold-20" transform="translate(300.146484 0)"/>
     <use xlink:href="#LiberationSans-Bold-55" transform="translate(327.929688 0)"/>
     <use xlink:href="#LiberationSans-Bold-73" transform="translate(400.146484 0)"/>
     <use xlink:href="#LiberationSans-Bold-65" transform="translate(455.761719 0)"/>
     <use xlink:href="#LiberationSans-Bold-72" transform="translate(511.376953 0)"/>
     <use xlink:href="#LiberationSans-Bold-73" transform="translate(550.292969 0)"/>
     <use xlink:href="#LiberationSans-Bold-20" transform="translate(605.908203 0)"/>
     <use xlink:href="#LiberationSans-Bold-28" transform="translate(633.691406 0)"/>
     <use xlink:href="#LiberationSans-Bold-57" transform="translate(666.992188 0)"/>
     <use xlink:href="#LiberationSans-Bold-65" transform="translate(759.626953 0)"/>
     <use xlink:href="#LiberationSans-Bold-65" transform="translate(815.242188 0)"/>
     <use xlink:href="#LiberationSans-Bold-6b" transform="translate(870.857422 0)"/>
     <use xlink:href="#LiberationSans-Bold-6c" transform="translate(926.472656 0)"/>
     <use xlink:href="#LiberationSans-Bold-79" transform="translate(954.255859 0)"/>
     <use xlink:href="#LiberationSans-Bold-29" transform="translate(1009.871094 0)"/>
    </g>
   </g>
   <g id="legend_1">
    <g id="line2d_37">
     <path d="M 75.18 51.595 
L 91.18 51.595 
L 107.18 51.595 
" style="fill: none; stroke: #77aadd; stroke-width: 5; stroke-linecap: round"/>
    </g>
    <g id="text_20">
     <!-- Bluefin (1.8k) -->
     <g style="fill: #616161" transform="translate(119.98 57.195) scale(0.16 -0.16)">
      <defs>
       <path id="LiberationSans-42" d="M 3931 1241 
Q 3931 653 3503 326 
Q 3075 0 2313 0 
L 525 0 
L 525 4403 
L 2125 4403 
Q 3675 4403 3675 3334 
Q 3675 2944 3456 2678 
Q 3238 2413 2838 2322 
Q 3363 2259 3647 1970 
Q 3931 1681 3931 1241 
z
M 3075 3263 
Q 3075 3619 2831 3772 
Q 2588 3925 2125 3925 
L 1122 3925 
L 1122 2531 
L 2125 2531 
Q 2603 2531 2839 2711 
Q 3075 2891 3075 3263 
z
M 3328 1288 
Q 3328 2066 2234 2066 
L 1122 2066 
L 1122 478 
L 2281 478 
Q 2828 478 3078 681 
Q 3328 884 3328 1288 
z
" transform="scale(0.015625)"/>
       <path id="LiberationSans-6c" d="M 431 0 
L 431 4638 
L 994 4638 
L 994 0 
L 431 0 
z
" transform="scale(0.015625)"/>
       <path id="LiberationSans-75" d="M 981 3381 
L 981 1238 
Q 981 903 1047 718 
Q 1113 534 1256 453 
Q 1400 372 1678 372 
Q 2084 372 2318 650 
Q 2553 928 2553 1422 
L 2553 3381 
L 3116 3381 
L 3116 722 
Q 3116 131 3134 0 
L 2603 0 
Q 2600 16 2597 84 
Q 2594 153 2589 242 
Q 2584 331 2578 578 
L 2569 578 
Q 2375 228 2120 82 
Q 1866 -63 1488 -63 
Q 931 -63 673 214 
Q 416 491 416 1128 
L 416 3381 
L 981 3381 
z
" transform="scale(0.015625)"/>
       <path id="LiberationSans-65" d="M 863 1572 
Q 863 991 1103 675 
Q 1344 359 1806 359 
Q 2172 359 2392 506 
Q 2613 653 2691 878 
L 3184 738 
Q 2881 -63 1806 -63 
Q 1056 -63 664 384 
Q 272 831 272 1713 
Q 272 2550 664 2997 
Q 1056 3444 1784 3444 
Q 3275 3444 3275 1647 
L 3275 1572 
L 863 1572 
z
M 2694 2003 
Q 2647 2538 2422 2783 
Q 2197 3028 1775 3028 
Q 1366 3028 1127 2754 
Q 888 2481 869 2003 
L 2694 2003 
z
" transform="scale(0.015625)"/>
       <path id="LiberationSans-66" d="M 1128 2972 
L 1128 0 
L 566 0 
L 566 2972 
L 91 2972 
L 91 3381 
L 566 3381 
L 566 3763 
Q 566 4225 769 4428 
Q 972 4631 1391 4631 
Q 1625 4631 1788 4594 
L 1788 4166 
Q 1647 4191 1538 4191 
Q 1322 4191 1225 4081 
Q 1128 3972 1128 3684 
L 1128 3381 
L 1788 3381 
L 1788 2972 
L 1128 2972 
z
" transform="scale(0.015625)"/>
       <path id="LiberationSans-69" d="M 428 4100 
L 428 4638 
L 991 4638 
L 991 4100 
L 428 4100 
z
M 428 0 
L 428 3381 
L 991 3381 
L 991 0 
L 428 0 
z
" transform="scale(0.015625)"/>
       <path id="LiberationSans-6e" d="M 2578 0 
L 2578 2144 
Q 2578 2478 2512 2662 
Q 2447 2847 2303 2928 
Q 2159 3009 1881 3009 
Q 1475 3009 1240 2731 
Q 1006 2453 1006 1959 
L 1006 0 
L 444 0 
L 444 2659 
Q 444 3250 425 3381 
L 956 3381 
Q 959 3366 962 3297 
Q 966 3228 970 3139 
Q 975 3050 981 2803 
L 991 2803 
Q 1184 3153 1439 3298 
Q 1694 3444 2072 3444 
Q 2628 3444 2886 3167 
Q 3144 2891 3144 2253 
L 3144 0 
L 2578 0 
z
" transform="scale(0.015625)"/>
       <path id="LiberationSans-20" transform="scale(0.015625)"/>
       <path id="LiberationSans-28" d="M 397 1663 
Q 397 2566 680 3284 
Q 963 4003 1550 4638 
L 2094 4638 
Q 1509 3988 1236 3256 
Q 963 2525 963 1656 
Q 963 791 1233 62 
Q 1503 -666 2094 -1325 
L 1550 -1325 
Q 959 -688 678 32 
Q 397 753 397 1650 
L 397 1663 
z
" transform="scale(0.015625)"/>
       <path id="LiberationSans-31" d="M 488 0 
L 488 478 
L 1609 478 
L 1609 3866 
L 616 3156 
L 616 3688 
L 1656 4403 
L 2175 4403 
L 2175 478 
L 3247 478 
L 3247 0 
L 488 0 
z
" transform="scale(0.015625)"/>
       <path id="LiberationSans-2e" d="M 584 0 
L 584 684 
L 1194 684 
L 1194 0 
L 584 0 
z
" transform="scale(0.015625)"/>
       <path id="LiberationSans-38" d="M 3281 1228 
Q 3281 619 2893 278 
Q 2506 -63 1781 -63 
Q 1075 -63 676 271 
Q 278 606 278 1222 
Q 278 1653 525 1947 
Q 772 2241 1156 2303 
L 1156 2316 
Q 797 2400 589 2681 
Q 381 2963 381 3341 
Q 381 3844 757 4156 
Q 1134 4469 1769 4469 
Q 2419 4469 2795 4162 
Q 3172 3856 3172 3334 
Q 3172 2956 2962 2675 
Q 2753 2394 2391 2322 
L 2391 2309 
Q 2813 2241 3047 1952 
Q 3281 1663 3281 1228 
z
M 2588 3303 
Q 2588 4050 1769 4050 
Q 1372 4050 1164 3862 
Q 956 3675 956 3303 
Q 956 2925 1170 2726 
Q 1384 2528 1775 2528 
Q 2172 2528 2380 2711 
Q 2588 2894 2588 3303 
z
M 2697 1281 
Q 2697 1691 2453 1898 
Q 2209 2106 1769 2106 
Q 1341 2106 1100 1882 
Q 859 1659 859 1269 
Q 859 359 1788 359 
Q 2247 359 2472 579 
Q 2697 800 2697 1281 
z
" transform="scale(0.015625)"/>
       <path id="LiberationSans-6b" d="M 2550 0 
L 1406 1544 
L 994 1203 
L 994 0 
L 431 0 
L 431 4638 
L 994 4638 
L 994 1741 
L 2478 3381 
L 3138 3381 
L 1766 1928 
L 3209 0 
L 2550 0 
z
" transform="scale(0.015625)"/>
       <path id="LiberationSans-29" d="M 1734 1650 
Q 1734 747 1451 28 
Q 1169 -691 581 -1325 
L 38 -1325 
Q 625 -669 897 57 
Q 1169 784 1169 1656 
Q 1169 2528 895 3256 
Q 622 3984 38 4638 
L 581 4638 
Q 1172 4000 1453 3279 
Q 1734 2559 1734 1663 
L 1734 1650 
z
" transform="scale(0.015625)"/>
      </defs>
      <use xlink:href="#LiberationSans-42"/>
      <use xlink:href="#LiberationSans-6c" transform="translate(66.699219 0)"/>
      <use xlink:href="#LiberationSans-75" transform="translate(88.916016 0)"/>
      <use xlink:href="#LiberationSans-65" transform="translate(144.53125 0)"/>
      <use xlink:href="#LiberationSans-66" transform="translate(200.146484 0)"/>
      <use xlink:href="#LiberationSans-69" transform="translate(227.929688 0)"/>
      <use xlink:href="#LiberationSans-6e" transform="translate(250.146484 0)"/>
      <use xlink:href="#LiberationSans-20" transform="translate(305.761719 0)"/>
      <use xlink:href="#LiberationSans-28" transform="translate(333.544922 0)"/>
      <use xlink:href="#LiberationSans-31" transform="translate(366.845703 0)"/>
      <use xlink:href="#LiberationSans-2e" transform="translate(422.460938 0)"/>
      <use xlink:href="#LiberationSans-38" transform="translate(450.244141 0)"/>
      <use xlink:href="#LiberationSans-6b" transform="translate(505.859375 0)"/>
      <use xlink:href="#LiberationSans-29" transform="translate(555.859375 0)"/>
     </g>
    </g>
    <g id="line2d_38">
     <path d="M 75.18 74.51 
L 91.18 74.51 
L 107.18 74.51 
" style="fill: none; stroke: #ee8866; stroke-width: 5; stroke-linecap: round"/>
    </g>
    <g id="text_21">
     <!-- Bluefin LTS (0.1k) -->
     <g style="fill: #616161" transform="translate(119.98 80.11) scale(0.16 -0.16)">
      <defs>
       <path id="LiberationSans-4c" d="M 525 0 
L 525 4403 
L 1122 4403 
L 1122 488 
L 3347 488 
L 3347 0 
L 525 0 
z
" transform="scale(0.015625)"/>
       <path id="LiberationSans-54" d="M 2250 3916 
L 2250 0 
L 1656 0 
L 1656 3916 
L 144 3916 
L 144 4403 
L 3763 4403 
L 3763 3916 
L 2250 3916 
z
" transform="scale(0.015625)"/>
       <path id="LiberationSans-53" d="M 3975 1216 
Q 3975 606 3498 271 
Q 3022 -63 2156 -63 
Q 547 -63 291 1056 
L 869 1172 
Q 969 775 1294 589 
Q 1619 403 2178 403 
Q 2756 403 3070 601 
Q 3384 800 3384 1184 
Q 3384 1400 3286 1534 
Q 3188 1669 3009 1756 
Q 2831 1844 2584 1903 
Q 2338 1963 2038 2031 
Q 1516 2147 1245 2262 
Q 975 2378 819 2520 
Q 663 2663 580 2853 
Q 497 3044 497 3291 
Q 497 3856 930 4162 
Q 1363 4469 2169 4469 
Q 2919 4469 3316 4239 
Q 3713 4009 3872 3456 
L 3284 3353 
Q 3188 3703 2916 3861 
Q 2644 4019 2163 4019 
Q 1634 4019 1356 3844 
Q 1078 3669 1078 3322 
Q 1078 3119 1186 2986 
Q 1294 2853 1497 2761 
Q 1700 2669 2306 2534 
Q 2509 2488 2711 2439 
Q 2913 2391 3097 2323 
Q 3281 2256 3442 2165 
Q 3603 2075 3722 1944 
Q 3841 1813 3908 1634 
Q 3975 1456 3975 1216 
z
" transform="scale(0.015625)"/>
       <path id="LiberationSans-30" d="M 3309 2203 
Q 3309 1100 2920 518 
Q 2531 -63 1772 -63 
Q 1013 -63 631 515 
Q 250 1094 250 2203 
Q 250 3338 620 3903 
Q 991 4469 1791 4469 
Q 2569 4469 2939 3897 
Q 3309 3325 3309 2203 
z
M 2738 2203 
Q 2738 3156 2517 3584 
Q 2297 4013 1791 4013 
Q 1272 4013 1045 3591 
Q 819 3169 819 2203 
Q 819 1266 1048 831 
Q 1278 397 1778 397 
Q 2275 397 2506 840 
Q 2738 1284 2738 2203 
z
" transform="scale(0.015625)"/>
      </defs>
      <use xlink:href="#LiberationSans-42"/>
      <use xlink:href="#LiberationSans-6c" transform="translate(66.699219 0)"/>
      <use xlink:href="#LiberationSans-75" transform="translate(88.916016 0)"/>
      <use xlink:href="#LiberationSans-65" transform="translate(144.53125 0)"/>
      <use xlink:href="#LiberationSans-66" transform="translate(200.146484 0)"/>
      <use xlink:href="#LiberationSans-69" transform="translate(227.929688 0)"/>
      <use xlink:href="#LiberationSans-6e" transform="translate(250.146484 0)"/>
      <use xlink:href="#LiberationSans-20" transform="translate(305.761719 0)"/>
      <use xlink:href="#LiberationSans-4c" transform="translate(333.544922 0)"/>
      <use xlink:href="#LiberationSans-54" transform="translate(381.785156 0)"/>
      <use xlink:href="#LiberationSans-53" transform="translate(442.869141 0)"/>
      <use xlink:href="#LiberationSans-20" transform="translate(509.568359 0)"/>
      <use xlink:href="#LiberationSans-28" transform="translate(537.351562 0)"/>
      <use xlink:href="#LiberationSans-30" transform="translate(570.652344 0)"/>
      <use xlink:href="#LiberationSans-2e" transform="translate(626.267578 0)"/>
      <use xlink:href="#LiberationSans-31" transform="translate(654.050781 0)"/>
      <use xlink:href="#LiberationSans-6b" transform="translate(709.666016 0)"/>
      <use xlink:href="#LiberationSans-29" transform="translate(759.666016 0)"/>
     </g>
    </g>
   </g>
  </g>
 </g>
 <defs>
  <clipPath id="pcfe03fbeaf">
   <rect x="60.78" y="31.2" width="1080.42" height="558.143192"/>
  </clipPath>
 </defs>
</svg>
